<mxfile host="Electron" modified="2023-08-13T19:23:21.391Z" agent="Mozilla/5.0 (Macintosh; Intel Mac OS X 10_15_7) AppleWebKit/537.36 (KHTML, like Gecko) draw.io/21.6.8 Chrome/114.0.5735.289 Electron/25.5.0 Safari/537.36" etag="3SbJUzcSDvrNEzZfnxR4" version="21.6.8" type="device">
  <diagram name="Page-1" id="su8EH4UpeZfntfLApgr-">
    <mxGraphModel dx="2895" dy="956" grid="0" gridSize="10" guides="0" tooltips="1" connect="0" arrows="0" fold="1" page="1" pageScale="1" pageWidth="827" pageHeight="1169" math="0" shadow="0">
      <root>
        <mxCell id="0" />
        <mxCell id="1" parent="0" />
        <mxCell id="TyTauK2ivze7dspQ0SNf-46" value="&lt;b&gt;Batch Layer: Model training&lt;/b&gt;" style="rounded=0;whiteSpace=wrap;html=1;verticalAlign=top;align=left;spacingLeft=10;fillColor=#f5f5f5;fontColor=#333333;strokeColor=#666666;" vertex="1" parent="1">
          <mxGeometry x="-92" y="636" width="950" height="350" as="geometry" />
        </mxCell>
        <mxCell id="TyTauK2ivze7dspQ0SNf-45" value="&lt;b&gt;Streaming Layer: Model prediction&lt;/b&gt;" style="rounded=0;whiteSpace=wrap;html=1;verticalAlign=top;align=left;spacingLeft=10;fillColor=#f5f5f5;fontColor=#333333;strokeColor=#666666;" vertex="1" parent="1">
          <mxGeometry x="-92" y="176" width="950" height="350" as="geometry" />
        </mxCell>
        <mxCell id="TyTauK2ivze7dspQ0SNf-57" style="edgeStyle=orthogonalEdgeStyle;rounded=0;orthogonalLoop=1;jettySize=auto;html=1;exitX=1;exitY=0.5;exitDx=0;exitDy=0;" edge="1" parent="1" source="TyTauK2ivze7dspQ0SNf-42" target="TyTauK2ivze7dspQ0SNf-79">
          <mxGeometry relative="1" as="geometry">
            <mxPoint x="1055" y="351" as="targetPoint" />
          </mxGeometry>
        </mxCell>
        <mxCell id="TyTauK2ivze7dspQ0SNf-58" value="show prediction &lt;br&gt;on console" style="edgeLabel;html=1;align=center;verticalAlign=middle;resizable=0;points=[];" vertex="1" connectable="0" parent="TyTauK2ivze7dspQ0SNf-57">
          <mxGeometry x="-0.3451" y="-3" relative="1" as="geometry">
            <mxPoint x="21" y="-3" as="offset" />
          </mxGeometry>
        </mxCell>
        <mxCell id="TyTauK2ivze7dspQ0SNf-42" value="&lt;b&gt;PredictionApp&lt;/b&gt;" style="rounded=0;whiteSpace=wrap;html=1;align=left;verticalAlign=top;spacingTop=0;spacingLeft=5;" vertex="1" parent="1">
          <mxGeometry x="658" y="306.32" width="190" height="89.37" as="geometry" />
        </mxCell>
        <mxCell id="TyTauK2ivze7dspQ0SNf-37" value="" style="rounded=0;whiteSpace=wrap;html=1;verticalAlign=top;align=left;spacingLeft=10;spacingBottom=10;" vertex="1" parent="1">
          <mxGeometry x="339" y="196" width="260" height="271.05" as="geometry" />
        </mxCell>
        <mxCell id="TyTauK2ivze7dspQ0SNf-3" value="&lt;font color=&quot;#000000&quot;&gt;data/uber.csv&lt;/font&gt;" style="html=1;verticalLabelPosition=bottom;align=center;labelBackgroundColor=none;verticalAlign=top;strokeWidth=2;strokeColor=#000000;shadow=0;dashed=0;shape=mxgraph.ios7.icons.document;fillColor=default;" vertex="1" parent="1">
          <mxGeometry x="-22" y="786" width="21" height="30" as="geometry" />
        </mxCell>
        <mxCell id="TyTauK2ivze7dspQ0SNf-39" style="rounded=0;orthogonalLoop=1;jettySize=auto;html=1;exitX=0.5;exitY=0;exitDx=0;exitDy=0;entryX=0.5;entryY=1;entryDx=0;entryDy=0;" edge="1" parent="1" source="TyTauK2ivze7dspQ0SNf-12" target="TyTauK2ivze7dspQ0SNf-42">
          <mxGeometry relative="1" as="geometry">
            <mxPoint x="758" y="406" as="targetPoint" />
          </mxGeometry>
        </mxCell>
        <mxCell id="TyTauK2ivze7dspQ0SNf-40" value="loads" style="edgeLabel;html=1;align=right;verticalAlign=middle;resizable=0;points=[];labelPosition=left;verticalLabelPosition=middle;labelBackgroundColor=none;" vertex="1" connectable="0" parent="TyTauK2ivze7dspQ0SNf-39">
          <mxGeometry x="-0.0056" y="-2" relative="1" as="geometry">
            <mxPoint as="offset" />
          </mxGeometry>
        </mxCell>
        <mxCell id="TyTauK2ivze7dspQ0SNf-59" style="rounded=0;orthogonalLoop=1;jettySize=auto;html=1;exitX=0.75;exitY=1;exitDx=0;exitDy=0;entryX=0.5;entryY=0;entryDx=0;entryDy=0;endArrow=block;endFill=1;labelPosition=right;verticalLabelPosition=middle;align=left;verticalAlign=middle;" edge="1" parent="1" source="TyTauK2ivze7dspQ0SNf-12" target="TyTauK2ivze7dspQ0SNf-55">
          <mxGeometry relative="1" as="geometry" />
        </mxCell>
        <mxCell id="TyTauK2ivze7dspQ0SNf-60" value="load" style="edgeLabel;html=1;align=left;verticalAlign=middle;resizable=0;points=[];labelBackgroundColor=none;labelPosition=right;verticalLabelPosition=middle;" vertex="1" connectable="0" parent="TyTauK2ivze7dspQ0SNf-59">
          <mxGeometry x="0.0694" y="4" relative="1" as="geometry">
            <mxPoint x="1" as="offset" />
          </mxGeometry>
        </mxCell>
        <mxCell id="TyTauK2ivze7dspQ0SNf-12" value="Cluster Model" style="rounded=0;whiteSpace=wrap;html=1;" vertex="1" parent="1">
          <mxGeometry x="438" y="556" width="120" height="60" as="geometry" />
        </mxCell>
        <mxCell id="TyTauK2ivze7dspQ0SNf-65" style="edgeStyle=orthogonalEdgeStyle;rounded=0;orthogonalLoop=1;jettySize=auto;html=1;exitX=0.5;exitY=0;exitDx=0;exitDy=0;entryX=0.5;entryY=1;entryDx=0;entryDy=0;" edge="1" parent="1">
          <mxGeometry relative="1" as="geometry">
            <mxPoint x="950" y="806" as="sourcePoint" />
            <mxPoint x="950" y="746" as="targetPoint" />
          </mxGeometry>
        </mxCell>
        <mxCell id="TyTauK2ivze7dspQ0SNf-66" value="visualize" style="edgeLabel;html=1;align=center;verticalAlign=middle;resizable=0;points=[];" vertex="1" connectable="0" parent="TyTauK2ivze7dspQ0SNf-65">
          <mxGeometry x="0.0641" y="4" relative="1" as="geometry">
            <mxPoint x="4" as="offset" />
          </mxGeometry>
        </mxCell>
        <mxCell id="TyTauK2ivze7dspQ0SNf-26" style="edgeStyle=orthogonalEdgeStyle;rounded=0;orthogonalLoop=1;jettySize=auto;html=1;entryX=0;entryY=0.5;entryDx=0;entryDy=0;endArrow=block;endFill=1;" edge="1" parent="1" target="TyTauK2ivze7dspQ0SNf-22">
          <mxGeometry relative="1" as="geometry">
            <mxPoint x="78" y="351" as="sourcePoint" />
          </mxGeometry>
        </mxCell>
        <mxCell id="TyTauK2ivze7dspQ0SNf-16" value="Kafka Consumer" style="rounded=0;whiteSpace=wrap;html=1;" vertex="1" parent="1">
          <mxGeometry x="693" y="343.19" width="120" height="35" as="geometry" />
        </mxCell>
        <mxCell id="TyTauK2ivze7dspQ0SNf-36" style="edgeStyle=orthogonalEdgeStyle;rounded=0;orthogonalLoop=1;jettySize=auto;html=1;exitX=1;exitY=0.5;exitDx=0;exitDy=0;entryX=0;entryY=0.5;entryDx=0;entryDy=0;endArrow=block;endFill=1;" edge="1" parent="1" source="TyTauK2ivze7dspQ0SNf-22" target="TyTauK2ivze7dspQ0SNf-42">
          <mxGeometry relative="1" as="geometry">
            <mxPoint x="648" y="351" as="targetPoint" />
          </mxGeometry>
        </mxCell>
        <mxCell id="TyTauK2ivze7dspQ0SNf-22" value="&lt;b&gt;Topic:&lt;/b&gt; request" style="rounded=0;whiteSpace=wrap;html=1;verticalAlign=top;" vertex="1" parent="1">
          <mxGeometry x="358" y="276" width="220" height="150" as="geometry" />
        </mxCell>
        <mxCell id="TyTauK2ivze7dspQ0SNf-24" value="Partition 0" style="shape=cylinder3;whiteSpace=wrap;html=1;boundedLbl=1;backgroundOutline=1;size=15;direction=south;" vertex="1" parent="1">
          <mxGeometry x="374" y="316" width="190" height="40" as="geometry" />
        </mxCell>
        <mxCell id="TyTauK2ivze7dspQ0SNf-25" value="Partition 1" style="shape=cylinder3;whiteSpace=wrap;html=1;boundedLbl=1;backgroundOutline=1;size=15;direction=south;" vertex="1" parent="1">
          <mxGeometry x="374" y="366" width="190" height="40" as="geometry" />
        </mxCell>
        <mxCell id="TyTauK2ivze7dspQ0SNf-28" value="{&lt;br&gt;&amp;nbsp; &quot;topic&quot; : &quot;requests&quot;,&lt;br&gt;&amp;nbsp; &quot;key&quot; : &quot;path/to/picksups.json&quot;&lt;br&gt;}" style="shape=document;whiteSpace=wrap;html=1;boundedLbl=1;align=left;spacingLeft=10;spacingRight=0;spacingTop=10;spacingBottom=10;labelBackgroundColor=none;fillColor=#FFF4C3;strokeColor=#FFE599;fontColor=#000000;" vertex="1" parent="1">
          <mxGeometry x="128" y="241.79999999999995" width="190" height="104.2" as="geometry" />
        </mxCell>
        <mxCell id="TyTauK2ivze7dspQ0SNf-34" value="&lt;b style=&quot;font-size: 10px;&quot;&gt;Message:&lt;/b&gt; Prediction request (assign pickups from file to cluster centers)" style="text;html=1;strokeColor=none;fillColor=none;align=left;verticalAlign=middle;whiteSpace=wrap;rounded=0;fontSize=10;" vertex="1" parent="1">
          <mxGeometry x="138" y="206" width="190" height="30" as="geometry" />
        </mxCell>
        <mxCell id="TyTauK2ivze7dspQ0SNf-43" value="&lt;b&gt;RequestProducer&lt;/b&gt;" style="rounded=0;whiteSpace=wrap;html=1;align=left;verticalAlign=top;spacingTop=0;spacingLeft=5;" vertex="1" parent="1">
          <mxGeometry x="-82" y="306.32" width="190" height="89.37" as="geometry" />
        </mxCell>
        <mxCell id="TyTauK2ivze7dspQ0SNf-44" value="Kafka Producer" style="rounded=0;whiteSpace=wrap;html=1;" vertex="1" parent="1">
          <mxGeometry x="-47" y="343.19" width="120" height="35" as="geometry" />
        </mxCell>
        <mxCell id="TyTauK2ivze7dspQ0SNf-53" style="rounded=0;orthogonalLoop=1;jettySize=auto;html=1;exitX=0;exitY=0.5;exitDx=0;exitDy=0;endArrow=none;endFill=0;startArrow=block;startFill=1;" edge="1" parent="1" source="TyTauK2ivze7dspQ0SNf-8" target="TyTauK2ivze7dspQ0SNf-3">
          <mxGeometry relative="1" as="geometry" />
        </mxCell>
        <mxCell id="TyTauK2ivze7dspQ0SNf-54" value="reads" style="edgeLabel;html=1;align=center;verticalAlign=bottom;resizable=0;points=[];labelBackgroundColor=none;labelPosition=center;verticalLabelPosition=top;" vertex="1" connectable="0" parent="TyTauK2ivze7dspQ0SNf-53">
          <mxGeometry x="0.0963" y="3" relative="1" as="geometry">
            <mxPoint as="offset" />
          </mxGeometry>
        </mxCell>
        <mxCell id="TyTauK2ivze7dspQ0SNf-61" style="rounded=0;orthogonalLoop=1;jettySize=auto;html=1;exitX=1;exitY=0.5;exitDx=0;exitDy=0;endArrow=block;endFill=1;entryX=0;entryY=0.75;entryDx=0;entryDy=0;" edge="1" parent="1" source="TyTauK2ivze7dspQ0SNf-8" target="TyTauK2ivze7dspQ0SNf-68">
          <mxGeometry relative="1" as="geometry">
            <mxPoint x="908" y="846" as="targetPoint" />
          </mxGeometry>
        </mxCell>
        <mxCell id="TyTauK2ivze7dspQ0SNf-63" value="write index" style="edgeLabel;html=1;align=center;verticalAlign=bottom;resizable=0;points=[];labelPosition=center;verticalLabelPosition=top;labelBackgroundColor=none;" vertex="1" connectable="0" parent="TyTauK2ivze7dspQ0SNf-61">
          <mxGeometry x="0.1176" y="5" relative="1" as="geometry">
            <mxPoint as="offset" />
          </mxGeometry>
        </mxCell>
        <mxCell id="TyTauK2ivze7dspQ0SNf-8" value="PopulateClusterCentersEsIndexApp" style="rounded=0;whiteSpace=wrap;html=1;" vertex="1" parent="1">
          <mxGeometry x="128" y="846" width="220" height="60" as="geometry" />
        </mxCell>
        <mxCell id="TyTauK2ivze7dspQ0SNf-48" style="rounded=0;orthogonalLoop=1;jettySize=auto;html=1;exitX=0.5;exitY=0;exitDx=0;exitDy=0;labelBackgroundColor=none;" edge="1" parent="1" source="TyTauK2ivze7dspQ0SNf-47" target="TyTauK2ivze7dspQ0SNf-12">
          <mxGeometry relative="1" as="geometry" />
        </mxCell>
        <mxCell id="TyTauK2ivze7dspQ0SNf-49" value="trains" style="edgeLabel;html=1;align=right;verticalAlign=middle;resizable=0;points=[];labelBackgroundColor=none;labelPosition=left;verticalLabelPosition=middle;" vertex="1" connectable="0" parent="TyTauK2ivze7dspQ0SNf-48">
          <mxGeometry x="-0.0234" y="5" relative="1" as="geometry">
            <mxPoint x="-1" as="offset" />
          </mxGeometry>
        </mxCell>
        <mxCell id="TyTauK2ivze7dspQ0SNf-50" style="rounded=0;orthogonalLoop=1;jettySize=auto;html=1;exitX=0;exitY=0.5;exitDx=0;exitDy=0;endArrow=none;endFill=0;startArrow=block;startFill=1;" edge="1" parent="1" source="TyTauK2ivze7dspQ0SNf-47" target="TyTauK2ivze7dspQ0SNf-3">
          <mxGeometry relative="1" as="geometry" />
        </mxCell>
        <mxCell id="TyTauK2ivze7dspQ0SNf-51" value="reads" style="edgeLabel;html=1;align=center;verticalAlign=bottom;resizable=0;points=[];labelBackgroundColor=none;labelPosition=center;verticalLabelPosition=top;" vertex="1" connectable="0" parent="TyTauK2ivze7dspQ0SNf-50">
          <mxGeometry x="0.3045" y="-1" relative="1" as="geometry">
            <mxPoint x="70" y="1" as="offset" />
          </mxGeometry>
        </mxCell>
        <mxCell id="TyTauK2ivze7dspQ0SNf-47" value="TrainClusteringModelApp" style="rounded=0;whiteSpace=wrap;html=1;" vertex="1" parent="1">
          <mxGeometry x="128" y="726" width="150" height="60" as="geometry" />
        </mxCell>
        <mxCell id="TyTauK2ivze7dspQ0SNf-62" style="rounded=0;orthogonalLoop=1;jettySize=auto;html=1;exitX=1;exitY=0.5;exitDx=0;exitDy=0;endArrow=block;endFill=1;entryX=0;entryY=0.25;entryDx=0;entryDy=0;" edge="1" parent="1" source="TyTauK2ivze7dspQ0SNf-55" target="TyTauK2ivze7dspQ0SNf-68">
          <mxGeometry relative="1" as="geometry">
            <mxPoint x="988" y="826" as="targetPoint" />
          </mxGeometry>
        </mxCell>
        <mxCell id="TyTauK2ivze7dspQ0SNf-64" value="write index" style="edgeLabel;html=1;align=center;verticalAlign=bottom;resizable=0;points=[];labelBackgroundColor=none;labelPosition=center;verticalLabelPosition=top;" vertex="1" connectable="0" parent="TyTauK2ivze7dspQ0SNf-62">
          <mxGeometry x="0.1284" y="3" relative="1" as="geometry">
            <mxPoint x="-27" y="-20" as="offset" />
          </mxGeometry>
        </mxCell>
        <mxCell id="TyTauK2ivze7dspQ0SNf-55" value="PopulateClusterCentersEsIndexApp" style="rounded=0;whiteSpace=wrap;html=1;" vertex="1" parent="1">
          <mxGeometry x="398" y="726" width="210" height="60" as="geometry" />
        </mxCell>
        <mxCell id="TyTauK2ivze7dspQ0SNf-67" value="Kibana" style="shape=image;verticalLabelPosition=bottom;labelBackgroundColor=default;verticalAlign=top;aspect=fixed;imageAspect=0;image=https://www.vectorlogo.zone/logos/elasticco_kibana/elasticco_kibana-icon.svg;" vertex="1" parent="1">
          <mxGeometry x="918" y="656" width="64" height="64" as="geometry" />
        </mxCell>
        <mxCell id="TyTauK2ivze7dspQ0SNf-68" value="Elasticsearch" style="shape=image;verticalLabelPosition=bottom;labelBackgroundColor=default;verticalAlign=top;aspect=fixed;imageAspect=0;image=https://www.vectorlogo.zone/logos/elastic/elastic-icon.svg;" vertex="1" parent="1">
          <mxGeometry x="918" y="806" width="64" height="64" as="geometry" />
        </mxCell>
        <mxCell id="TyTauK2ivze7dspQ0SNf-69" value="" style="shape=image;verticalLabelPosition=bottom;labelBackgroundColor=default;verticalAlign=top;aspect=fixed;imageAspect=0;image=https://www.vectorlogo.zone/logos/apache_kafka/apache_kafka-ar21.svg;" vertex="1" parent="1">
          <mxGeometry x="358" y="206" width="120" height="60" as="geometry" />
        </mxCell>
        <mxCell id="TyTauK2ivze7dspQ0SNf-74" value="" style="shape=image;verticalLabelPosition=bottom;labelBackgroundColor=default;verticalAlign=top;aspect=fixed;imageAspect=0;image=https://www.vectorlogo.zone/logos/apache_spark/apache_spark-icon.svg;" vertex="1" parent="1">
          <mxGeometry x="784" y="252" width="64" height="64" as="geometry" />
        </mxCell>
        <mxCell id="TyTauK2ivze7dspQ0SNf-75" value="" style="shape=image;verticalLabelPosition=bottom;labelBackgroundColor=default;verticalAlign=top;aspect=fixed;imageAspect=0;image=https://www.vectorlogo.zone/logos/scala-lang/scala-lang-icon.svg;" vertex="1" parent="1">
          <mxGeometry x="44" y="266" width="64" height="64" as="geometry" />
        </mxCell>
        <mxCell id="TyTauK2ivze7dspQ0SNf-76" value="" style="shape=image;verticalLabelPosition=bottom;labelBackgroundColor=default;verticalAlign=top;aspect=fixed;imageAspect=0;image=https://www.vectorlogo.zone/logos/apache_spark/apache_spark-icon.svg;" vertex="1" parent="1">
          <mxGeometry x="128" y="676" width="64" height="64" as="geometry" />
        </mxCell>
        <mxCell id="TyTauK2ivze7dspQ0SNf-77" value="" style="shape=image;verticalLabelPosition=bottom;labelBackgroundColor=default;verticalAlign=top;aspect=fixed;imageAspect=0;image=https://www.vectorlogo.zone/logos/apache_spark/apache_spark-icon.svg;" vertex="1" parent="1">
          <mxGeometry x="386" y="676" width="64" height="64" as="geometry" />
        </mxCell>
        <mxCell id="TyTauK2ivze7dspQ0SNf-78" value="" style="shape=image;verticalLabelPosition=bottom;labelBackgroundColor=default;verticalAlign=top;aspect=fixed;imageAspect=0;image=https://www.vectorlogo.zone/logos/apache_spark/apache_spark-icon.svg;" vertex="1" parent="1">
          <mxGeometry x="308" y="806" width="64" height="64" as="geometry" />
        </mxCell>
        <mxCell id="TyTauK2ivze7dspQ0SNf-79" value="" style="shape=image;verticalLabelPosition=bottom;labelBackgroundColor=default;verticalAlign=top;aspect=fixed;imageAspect=0;image=data:image/png,iVBORw0KGgoAAAANSUhEUgAAA9wAAAHgCAYAAABXd2XiAAABZGlDQ1BJQ0MgUHJvZmlsZQAAKJF1kL1Lw2AQxp/USkUjOjg4KGRwcKha0oIOgrRFRHCo1eLHlqaxEfrxNomU4uIg7gGnDi51cBcUioP4FwiCgyLq5OAoZNES723VtIoHx/14uHt4OMAnKozl/ADyBctILsSk9Y1NKfCCHvSjD1MIKarJoonEEq3ge3aWcwuBz5sJ7vVcquu+2epu9bQ++io+lv/ud1RvRjNVmh/UEZUZFiCEiBNli3HeIx4yKBTxIedsi084p1t80dxZTcaJr4kHVV3JED8RB9NteraN87kd9SsDTy9qhdQKzWHqEcSgoYBlSJjHGsKQMY0QUv/cRJo3cRTBUIGBbWShw6LrKCkMOXKTsEiOKiYRJJbJTUaY//r3Dz2teAzMOECX7Wlp+sH5AcW887SxI2BgHzi7Yoqh/HxWcPzmVlhusTgHdD+47ts4ELCBhu267zXXbdTI/x64rHwCs8hlYUq2Ld4AAACKZVhJZk1NACoAAAAIAAQBGgAFAAAAAQAAAD4BGwAFAAAAAQAAAEYBKAADAAAAAQACAACHaQAEAAAAAQAAAE4AAAAAAAAAkAAAAAEAAACQAAAAAQADkoYABwAAABIAAAB4oAIABAAAAAEAAAPcoAMABAAAAAEAAAHgAAAAAEFTQ0lJAAAAU2NyZWVuc2hvdM/saLkAAAAJcEhZcwAAFiUAABYlAUlSJPAAAAHWaVRYdFhNTDpjb20uYWRvYmUueG1wAAAAAAA8eDp4bXBtZXRhIHhtbG5zOng9ImFkb2JlOm5zOm1ldGEvIiB4OnhtcHRrPSJYTVAgQ29yZSA2LjAuMCI+CiAgIDxyZGY6UkRGIHhtbG5zOnJkZj0iaHR0cDovL3d3dy53My5vcmcvMTk5OS8wMi8yMi1yZGYtc3ludGF4LW5zIyI+CiAgICAgIDxyZGY6RGVzY3JpcHRpb24gcmRmOmFib3V0PSIiCiAgICAgICAgICAgIHhtbG5zOmV4aWY9Imh0dHA6Ly9ucy5hZG9iZS5jb20vZXhpZi8xLjAvIj4KICAgICAgICAgPGV4aWY6UGl4ZWxZRGltZW5zaW9uPjQ4MDwvZXhpZjpQaXhlbFlEaW1lbnNpb24+CiAgICAgICAgIDxleGlmOlBpeGVsWERpbWVuc2lvbj45ODg8L2V4aWY6UGl4ZWxYRGltZW5zaW9uPgogICAgICAgICA8ZXhpZjpVc2VyQ29tbWVudD5TY3JlZW5zaG90PC9leGlmOlVzZXJDb21tZW50PgogICAgICA8L3JkZjpEZXNjcmlwdGlvbj4KICAgPC9yZGY6UkRGPgo8L3g6eG1wbWV0YT4KdquirgAAABxpRE9UAAAAAgAAAAAAAADwAAAAKAAAAPAAAADwAACtdpk4N+QAAEAASURBVHgB7J11wBVFF8aPoqAiiIqNgIWFfrZiiwgidreCIGnQHYKSoojdiIFidwuo6GcgISjGpyiNoEijgt888zLL3svG2Ze93JfLM3/c3bs7e2bmN2d250xutP8BB/0rdCRAAiRAAiRAAiRAAiRAAiRAAiRAAqkS2IgGd6o8KYwESIAESIAESIAESIAESIAESIAELAEa3FQEEiABEiABEiABEiABEiABEiABEsgBARrcOYBKkSRAAiRAAiRAAiRAAiRAAiRAAiSwUeUqu3MON/WABEiABEiABEiABEiABEiABEiABFImQIM7ZaAURwIkQAIkQAIkQAIkQAIkQAIkQAIgUKIM7oMOPkSOPvoY+XrCePnoow/XSQ7lI8x1kjAGQgIkQAIkQAIkQAIkQAIkQAIkkFcCxTK4S5cuLVWqVJXff/9d5s2bm1oCWrZqIwcccKDcftut8vXXEzLkliq1iVStWlUWLlwoc+bMzrjn/7PHHnvKn3/+KXPn/ua/HHoeFWboQzm6oeWqZZGjaFKskkBJzSfEq0qVyrJk6VKZNXNmaGqcv+XL/5Lp06eF+uMNEigJBPD+bHRtE9l0003l4YceNN+KBWsVrbTlrVVk+DAJpEQgH3qdjzBTwkUxOSRQUutIOUzyWotOkxnKZS5subVOpBGQZjrTiE8aMhIZ3ABw1VVXy1E1jpZNNtnEho+K+LBhT8k3kyZ68anfoKEcd9zx3n93AkO45Y3Xub8Zx6233lr69B1gjPh50qlj+4x7l156uRx//AlSukwZe3327Nky/JlhMnbsV56/Sy69TI499njZfPPN5d9//5XffpsjTz75hO0t9zxlnUSFWaFCBWlwTSOpXv0A+1Sf3jfLDz9870koThq9h7NOtFzxmIZFlvjAvxdddInUObXuGvcWL14k17Vo5l3X+vMeiDjRMuvX/1bZbrvtAyUhX9u3axN4L+jihRdeLKfWPS3oljRtcq0sX75M2rbrIPvuu59MnPi13DZwgPVbt249ueDCi+Shhx6QT0Z/bK81b3G9HHroYYGyRo4cIUMfe9S7h3BPqnmylFmls7NmzTLl5MlIffQe9p20Mo1Q1U0jFNzKlSuNXv8mPxo9fPzxx+Svv/7y+RQ559zz5IwzzpJ//vlHWre6MdDgOO/8C+Tkk0+RzTbbzD6LhqnhzzwtX375RYasc889X06udYotT7jxxx+/ywsvPC+jP/4ow1/cH8R/v/2rS+NrG8qKFf/EeU98/4ILLpK6p9WT+++/Vz7776eq529s2VoOPPA/GX7btW2tbqTLeDDPfwbfeY9sueWWGbFwep1xMeJP2nmkLecRUVrjFioGV1/dQPbdb3/Zaqut7P1vv/1GBvTv6/nda69q0rFTF/v/3nvvli8+/8y7V5yTNOSlzTY7HcXR/2wZa/s/12lc2/hpn7/o4kulQoWt5P777tU+EugPPNw7Gx7wPka9ZtTIkfLmm68HPpP2xSi9SEOvXXy1zNIM04Udd9R8D+NkrM/38/Wd09YZ06rLJs0jrc4mlRvk39UZ06pfpMVMa3Mk/ZZXqrSrdO7SVRYtWixt27TMQJKkXh+XTq2OZUSgBPxJZHCfd94FUu/0M+zHY/z48bLzzjtLtWp7m4rqXOnWtbM1XpCmY449TvY2152ruN12ss8++wqMjk4d27nLGcezzjpHzjr7HHnrzTdk+PCnvXu1a9eRiy+5TObPny9jjFGwbcWKcoAxghcvXizduneRBcaIh5GBlyuMkfHjx5qP5ta2Qv3vvytNprcymb/Ik+c/CQsTxlf9BtdIxYrb2R71cuXK2YodKnjOFSeN7tnso5arhkW27LD/YAp5Y78aY1k6fzDinnhiqPtr2Wv8eQ9EnGiZ9es/UMD8yy8+96SVKlVKapjpBjNmzJAunTt41+NODj/8CDtqYuONN5ajjznW6sh3k7+VFcZ4feLxodYIbNe+o9VPpL1du9ZWp5zB/egjD3nTG9zLc7QxwP81z/vdd99/5xmjCKdhw2ut7owfN1a22XZbK/8PMyKkS5dOXjnxPx927ipvI0Z8YBu5dt99D9lll10yGgfcs23atpf9jEEC54+3uw9+iBcaVVB+wRj+lyxZIj1MWUIZg6thGtQaNmrsxX/zLbaw5WnFihXSq1ePyF5xF5Y7uvg3atigxBjc0Gd8GOD23Gsv2XHHnSStD6JL97o6XnrZ5bJZmaLGk2p77yPbb7+915CkjUPaeaQt59r4wV+tWrUFaZ069Vf5ZcoU++i0aVPlnXfetufuB41rpTctLa+//loq+ra28tJm69LpjlGGlfOT62Ou05jr+Dv53Xv0km3Nu/r661Y3OLt7SY6Ox4cfjjSN/2IbLTFyD50BQ4cOkZHmXZ5rF6cXa6vXLv5JmKUVpgs77hj3PYx7fn2/n6/vnKZuibjF1etzxT+Jzq5tHFydMY36RZrMtDZH0m95q9ZtbSflY0MekVGjRmbg09brNenU6FhG4CXkTyKDu9fNfayR3b1bF0FlBw49Cmi9HDRooEwwlfhst8sulQQvPvRQ3Dl4kEw2xk6Q63HTzdaQ6Nq1U0aF3hlD6HlEDyRcs+bXyWGHHS5DTKZ+aDIV8mEk9+vbW743hg9cI2MwwMB42PRQwkAKclFhIk2vv/aqVNi6guldP3ENg9svT5tG/zP+cy1XDQu/XJxvUbasLDGNE9kOlVdUYgcO7C+TJq4enVBcf+65sPDcfXeMYoaCCdfeGL/OnXba6XL+BRfKu+++LcOeetJdVh/LlSsvdwy+SyaZkRgDb+2f8ZzjiovPPTtc3njjNYkyuFu0aBrI1Alt0rS5HHHEkfK4qVzBUIbr0LGzbZy61YTtHw3ingk7usqbM1jRMtmnb3/ZZpttpFWrG2zjgHv2zrvuMUbzn7YcQeeh+37n4vWkaVB5//337K3rrr9RDjZrJ/jLCYblwuhGg8QHHxT5a9ykqRx5ZA3xP+tko4cVjRXZPe64nx1/VDqXmqHsYU6rPwgTDWlxFcuwcNz1JB/EpHFzYQQdtbKCng275no0wnq4oTtBowyy88ixDQsnyfWocp5Ejsunm3v1kJ9++inJo6F+43Qx9MGsG/i2rVixUsU2LkytXrg8itN/rbysJAX+DUtntv7EpRHCw3QxMOCULoLFP3//HfieQhBpVcSzeUD2MaYR9hrT2Pmz0V00WmY7l5/Z1/3/NXnp5MTphV9u1Dnkhb3b8VxazFwckuhFnJ7FfQ9dmDg6bv5rQedaf0HP+q+FlSW/H5zH8YefOL2GH/f+jDP8NLJcmEH1StzT1C1dnSuqXg9ZuXBJdFajj1F+tNw16UyTmdbm8Mcr7lvuOnRgg8EWy3baer0mnRodyw5f819bLjWygvwkMrjRerFs2TK55+47PVkXXmSG7J56Wkbl3N2EkdO+Q0fZYYcd5dFHH/aG5rr77gjjFgZJUEbBuAAEDJF17lgzXL2BGbYOg/j555+VTp272nkIbVq39IbRnnve+XL66WcGxgtyosKEcTFu3Dg7RPXq+g0iDW5tGl3cg45arhoWfvm1Tqkt559/oSxY8Kf06nmTxwZ+Lr/8Sql5cq3IhoQk/uA3Kjzcdy6OGSomcH6DES/JSpUqSbdunWWm6eVO6uIM7p133sUb+tf7ll5rZXBDl7GWAKZPuNEVGMpdr94ZiXs4gipvTicfeOA++e+nn1gU+1evLq1bt5MRH7wvh5hh7wi3a5eOGZhcvFq1vMHTBTQMoDx98sloT1bTZi0EIwP8xg3S85+DDrINFt9NnmzloiXylFPq2B78lab3e6pphHvh+ee8hjF4cvF/+eUXbTnCcOC5c4uGsX9lRlc4d+JJNU0D0Cn2XbF8+XKZMuVnM0R/yBrrNVx5ZdGUFszT/eWXKbbhDw1i/iHl+MhhJEBr0yDhHBpQMIUCDQZf+EZOaD6IcXEDh9NM3iIvqh9wgOy008521MiIEe/Li2YYfrbTlpPs5+L+hxncp5j4YRoBeu9QeQa3Z4c/Iz//XGS4Io/2N6OGnn/uWTsNAo05GC307LPP2FFFceGG3Y8r52HP+a+jMgPXtFlzOeSQQ+10Eqwd4hwaEM4862ypWbOWu2SP7dq2WsOwatykmextRgGMGjUiUhe18k4/40w5+KBDZNfKle00pl9//cXyeuutN7245EP/XeBp6VlcOrVpRLzidPFiM6z7sMMPF3zLdzIj6Nq372QaWP4ng++4XU444UQzku18wfs5ah0Xl353PMm8W2rXOdWOWEOX87Tp042uD7fvKTQ2XmWmKsCVNSN5Ni5Vyo7scc+igRf1jCTO8XCNpHgWejz4zrvN6Kbl0qrl9XZ0mfadEff+gXzNe1Gr15AX9W5PwkwbZpxeIE7a8gu/cd/Da02j8r777Sfvv/ee1SuMQsN6RM+aBnf/VBStP4SpcXFlycmI4u/8ROm18+OOcd+5JLLi3iuaumXSuqxLR3GPSXQWYWj0UeMniPtBBx1s3jn17WhN/5SouLSlyUxrc7g4xX3Ly5hRdj173WJGF1eQfv16y0//+5971Dtq6/WadGp0zAtYcaItlwpRkV4SGdxBklDJw3Apf6+389fiuhtsJWn8+HFy152DA3sA4Ld+/WvkODNHO6j3DK0iqCT6jYcDzPzLliZcN/zc9UaOM8N3MY92jz33sgblJpuUMh/stoG9kVFhuvjj6IwbFAz/kHLnR5tG5197DOKqYeGX73r5cS07/lcYwwUv2VdeedkYJ7ub4cXlZebMGfLSiy9kVGa0/hBGVHi471xSZnvvs48Z6t1RvvtusvTv18eJSXSMM7grV64iY8Z8aVfJ72IM1UMOPtTO4fYPzXYvz7gebjQAVd61sjRp0siLI6ZiYBiPv9fYuxlxElR5C5Ll5qo/+OD9Ng0Y8YHWbMwddC4oXu6e/+h6Y9AABqN3xozp/tv2HMPmrzFrHKABDqNWMCccjVgYnt6rZw9vMUUXfwxXhz8MY0fcMDT4ph7drKwjjzzKDmFftGihmeM+wYwq2doOwYdh7l/P4VRjMF9o1h6Av0mTJpl5/tvJroYzjG+/wY0WUsSlUcP6XrzPPvtca5j58xM3XZ6Gtfxr4oaXNea84z31ww/fWyb77be/ZYL8cI0iLjLacuL8a49BBrdrdUZFH3P/tzTlvEqVKsagnmP5Y7TB6jz6Q3788UebR+CHqQddzVQhTNspjktazrPDQLmHwRXmoE94H6DB6DDTyARXxSysudVWFQKH1bt0Yi0R5FPZsmWtAe7XRcjQyEP+otICWd9+M0k2MlNWqptGC/RIDTSjsdwoFhfmutR/pAEuDT3TpFOTRsRHo4v16p0u55lGYrwbdjZTZ5CGefPm2fmAmNeHvGnW9FqIUzmU32sbN7VG9CQzuql8+fL23eIaJNHQeppZAwJud9OoiPeYyztc+9J8Ez5OuGOK4+E3uKtW3U26dushs2djWl170b4zNO8f7XtRo9dIc9y7HQ13WmaaMDV6gXg5rnHlF37jvoc33thKDvzPQfZb8t1339l3Ad55v82ZI506tYcI67T+nP+oo6Ys4fk4/mgYiNNr19Dv4hP1nUsqK+69oqkzJq3LunQU94ipr1qd1eijxg/ims29vOlw6Nqlu+B4h2lE9L9r4tKWa2ZBNoeLU9y33A3xRocP1hfSuLB6vSadGh3TxAF+tOVSKy/K31oZ3FA6VLrRG3Vzr5vWCKdr1x5SdbfdZKONNjIV/9/lDTOvzg1RdZ7R8nvrwNvs/NQ2rVutMb/Vwb//vntMBaeNrRBiyzC/wQ1Z+ICdc855trKLhaoQ3n333R3Y0hIXposbjnEGtyaNfnma8zCuWhYujB132sm03p5kjZ/33n3HXbZHtLDhHhzm1qPnEUO0YGT17XOLvY4frT/4jQoP951LyswNcX7MNKaMMouTFcfFGdyoEGHKAxZQe+21V2TpkqWhBvcEs22dnZzni8jQoY95xm2QYRtkJPseDz11lQx/5S1IVvsOnWyv+o2mV72O6c3Bugb+Ie0IwB8vLBhYZtXCabi3yKz+7z7SKB833NjSGhCYt42eu1GjRtrpG/AL5yoiDz/8oDd3HRXbo46qYV+4ePHCufijR9UtGASDGD2NMMzx7nBD3Qcb/uPGFi2EeJ1prDv4kEMzGopg4MCo8RvX3Xv0tKNb/NfSNLg1cXOVZzTY3H3XYJtu9Kiht+6zzz5dYxEmbTmxghL8BBncN5iK5X9MxdI/ZaB1m3ayv1nI7m4zUmmMWRfDyyPTo/3mG0WLOjnWD5pRFJ+uGkWRICrWa9Jyni1/hx13lDq1T7WXMT8da4bA+PnHLEIFN2vWzDXmcAcxsJ7NT1A6s3XR+XXHMHmuQv/000/JO2+/Zb2jVw3vEUytghEP54W5DvXfBmx+0tAzTTo1aUScNLqI3p/rb2hp9RX5j21C0YDSonlTYzg3sWsUdDXrYGhd3br1ZK9q1QTfv29Mwwici8ddd94h/lE2SYaaRoXveNxnFu4zU7jNqJ0dzHvxaKu/mL89dOgQz+COe2do3j+urPrfgUHvRX+cw/QafrTvdvhNwiwsTJcfUe8ohOW4YuSNe0+Fld+476FLI0YgvfrqyxDv6YV/gVytPysg5kdTliDChRn1bU2i15CZbfjhmnNJZcW9VzR1xqR1WRfXNI5xOqvRR40fxDWbuzNcUcfEaMAkLpfMwmwOF7+obzlWOcfUYtQfMQIVUw2Q7p2M/dGlc+YoSycPx7B6vSadGh3zhxV1ri2XUTK094ptcGOIKZTOWB5mvH6f0G2D0JKDjyYMABjeHTq0zegxcb1pQRVTJMLBf+LxIcYY6miHQ7700osZBjfCgOGPnnYMP9tmm21lC2M8vvDCc2tUyCAzLkz4cS7O4Ia/uDQ6WZpjFFcNC00Y8AMlO8K0/n/yyce24GPuThtTEcdiUpg7/ccff1hRWn/acJ0/LTM0AgwYcFvRyttmmOEKM4S0OE5jcKPnpHeffqan8m87nQCrlPt7RN3LEz2sK1eiKlXksCo+hjmi1xDOb9gW+RC72GCuerjdcEUMs0TP0N57722mcnSW/5pVux8wq3c754+Xq/y4e6h0ZA9/xirr2G0AvchYdO5zs+ozGr7g8NFCRRIr2rs8gRGP4dQYKeH0x1WSMLzbXXPTPRzbbt172srosKeecNGxQ8Ix6gULKGIkS1GYPe2Qc38PF3q9MMTNX9lM0+DWxM0Z3H7jC/qGoVFowMJw2HXhXJ7653Cj4o0pPf58cushuEaQoDzCyu+YB+qv3BYnDdpyHifblb2wkQju+SAG7l5QOrN10fl1xzB56A3DFA007GJxRzRKocfd6bh7XhOmRscgz+VlnP67sNM4atKpSaM//lG6iHIz6I477TDu7c37Be8dGOGDBt1mvlkXWd7FKU97mlFvMBTg0GiHqTTu/WMvmp+4irjzF3d0PPz+8I3ACLyHzIgXjCrRvjM0ulEcvQjTa8RZ+253ftHjrVloLixMF/8ovUBYjmvUtwT+NN9DZ9RixxP33a5Tp65cdPEldpqim0ag9Ydw45ymLEFGEv4avYZMzftTKwvyopymzphmXTYqLkH34sq5Rh81fhC24461gTC6Bg3x2Z1aQXEMupYrZlE2hz8eYd9ytzihf6G0zl262SmgqIsEuah6vSadGh0LCjfomrZcBj2b9FqxDG4YZS1btbbDkNEKp9mOxykeeoDQqutc3D7YDj6GlGP4F7Yn2tNUdvw93GgFxnZNqPC+/9671gDGsBcMFcACWa5lWxum84ejxuB2/sPS6O7HHeO4aljEhRF1/2wzQuDMM88KHNrvf07rz/9M2HkcM6xsisKFFV+HPPpImJjY61qDG9vL1apVW95++027NoG/UubiGlfp9xu2LmJBvdLuXtTRVTKiergPMvMQrzeLn2EFd1T64TDfERUJ/5Bsf7zQook58dtvv4MtO0EGt4sXDO4G1zS0PckYwosw4j5a7tmg+GcP74YsDHNGpTTbPWfmWrrejKAwYRRmbwuWpsGtiZurPGePKMhOS67/B1Vog5hhu7fLLrvCWyAwKI+y/axt3F3ZyX7/a+W65+PKXhADF0ZQOrN10fl1xyh50D2s4oqKFBy2GBw9erSZNrJ6SJ0mTI2OQX5QXgbpP/ym6eLSqUkj4hMU/yA9u+32O8z0rW9lR9NQNOmbiXaxxvffe8c0Wp5p15p4xnznte4os/jjWWaOPxqd/O8XNP773+1h8dOG4/fneEA+3mh/LV8uv5gGmdlmJJlz2neGRjeCuMbpRZReB8lz8c4+JvEbFmaQjCC9cFz938Kg8qv5HjpD2j89DFPsMFQVHTWvvfqKTarWXzaXsP9xZQnPBfHIlpdEr/Fs1PszqazsuGj+Z9cZc12XjYpTHN+g+9n6qPGDODju/vg8Yt4LSaep4PlcMIuzOfzxducuTe5b/uBDj5oO1+mm43X1yFiMukH9MszgjqrXFzed2Trm4qs5asqlRk6cn8QGN/ZHbt2mrV2A5Cmzz3X2EHEECONiwYIF8tGHo7zw3aJRfmVDj1jY3tvuwb79brUfyo6mZ9w5rFCOlcpREcfewLcPusMYF7/ZIarOz+577GG2YOput3TCh885TZjOL45hBrc2jX5ZUecarnEs0Bu1Ns618Mb1amn9ZcelOMy6db/JGnq33HzTWq1OrDW4MSQUc+1++eUXqVq1akalzL1o4ir9GF4DOc2aNvZ6f7F4DCoHaczhxj6SGDaOhQhRxlwvLyr8rucd85pLmQWAOpg1DFwLPuK1226725eg65U+4cST5Kqr6tthda6HG3O6li5bmrHrgCtzaNB68snHbaUAW1A1b9bYy2YsbljWjJTAln2YzwynqSShtXgbs1DXDde38GQFneAjlx0mhm2j1djfw41pARiy3rxZE2+Kinv/ZFey4/JUEzdt5TkoTcW5hjUsjjQ9dNg7Hb1mzqGhYZ999pUmjRt6/BF/NKr488nN+XTl3OUReqnctAJXxt2q/S4MzbE45TxOblw+uefDKvW479IZV2F3snCMkof7WCymmhmyjHVDjjnmWKvH/neVJkyNjiEsrf7Db9ouKp2aNCI+Gl2EP/SOYCoLjGQ0oqPxcN7cuXZuK3Ym8dcr4D/KYTVevFvwnFsMK8hIg4ygSnSU7LB7QTyy/WrfGRrdKI5eROl1kLygdzvSlIRZWJhavQjiGpSXmu+hM6SxOJ9b5wQjpfAshvpiyC+c1p/1rPyJKksQoeGfRK8hM+r9mVQW5CV17nvivjm5rstGxS9OZzX6qPGDODju2MVpq/Jb2QUa5879zVs/JSqe2ffSZqaxOTTfchjcqGtmO9RHwwzuqHp9cdOZrWPZ8Yn7H1cu457X3E9kcGMFulZmJWTsA4wVbd9447XAMAAMc4JhmCxcuMD6Qe8ahqxgv263pVjYPth+oXgOQx4wr+bHH3+wt7CX8NGmcoMFiT7/7DO73dPKlSvsCrZuyyGs8oiJ/Fh9GcO4nNOE6fziGGZwa9PolxV2ruUax+JTk1a/g9waNY6xBhcq536Hnty99qwmGKEwffo0e8vNm/UbL1p/EBAVHu4nZYaFLjAXa8rPPwdupQKZWqc1uCEPL2T0uML5DTT38owzuJ0/6KfLEzfPDsMh/UaSDSTiJ6iSccstfe3wSAyHw8sbFVTMo8Hqt85gchWRp8wwbTd/38XLPzcMK7/CwMa8Qrc/7IBbb7e9dpgr6VYDdg0GbmcANzLlXjNP0VVkXVlxDQFIVlD8XdwcWxcv/5ZpGLGCco8Vxd1q2jCkseAa5tqPXTXXG2mHP7/OujS5bQMRD+gRjPDsxQOxCi1a+LFuAYZ6ZTtN3LSVZyc7rpw4f2FHvPvwDsRaAoNuL9pCD/o9YMBAWWZ60268YXXDhZdP99zlrc7u5p9hesBnn/3XyyM0oL5nehLhvO3izPth9McfhUUl8HrSch4oJOuiy4e4shdWqYc4jS5mBRtqcGPbPAxRHjVypFdhR+UE00awEOVLLxatTq8J06UtLf13aVhbPYMcTTo1aYQsjS7CH8ok5uyjcbxjh3Z2+DW+BWhs89cf4DfKYQjkoEF32mloboFG+Hc64t4/TgYaWrFOQIvmq6fJuHtJjkE8sp/XvjM0uqF9L/rj4Bj4p5+4+14+xbzb4T8Js7AwvfAi3lEIK4hr9rcE/jTfQ2dID39mmLy1alcBt92svxxq/SFcLD5b12xfigbu4c88jUsZTlOW8IDHI4Q/FiFOoteQGfadS1pGICvuvaKpMyaty2K0KnqZMUpliOlocPUcxCepi9NZj3+EPmr8IF6u/LrvFlbqRsMsdsp4bMijiaKelFmUPiIP07Ll0OmxySabZKQF6+9sscXmgQZ3XL1ek06NjmVEKOKPtlxGiFDfSmRwuwU8MG8te3U9rPqKxczg3IR2DDP41ixUUmnXXW1lF4YdPpjOhe2D7e7j6OYbooUbleytTWv1gaaHZ5npgevcqYMteM5QtENqv/3GDilHAcWKozAIsDCQc5ow69atZyf845nKxpCpbLZ9QdiLzaIAWDEVWxxp0+jCjTpquWpY+MOpb7ZOwxxcvKT8vS7wg4WUsDjNzJkz5euvJ5jehB3sQkpLzSrT3bp38ebZa/1BZlR4uJ+UmWtY8X8UISeJw/ZWmNuPuYAwVJB/0Em4xx4bYnug0TNY1CNdNN/knHPPs2sOwI+/Upb98sT9IHe86ZG5+uoGZgXj+cYommAbn7BIFVZXxdQI1ygU9Gz2NVfJwH7emxt93tv0YKIiOtHk2W233Wp72O4wcx5nzZ4tPUy+OYd5KejRhsF6r/lwwEEXkEeIB4x+rKgMNuiNRoUUq5/CuRX8YWxjj/ayq/z9u3KldDQr7KIR7WSzpdxlZms5rL48fvxYU9Y2N1skHSzzjewO7dtYOfhx8Y/qVUQP1pWmlx3hoWEIraXHHXeC0duV0rv3zTLL6CjcWWefY4aHnmMaGeaa+H9lVinf3uox7vkNbrxAG5opJUgnFkWqaOYYYtsr9GR06tjBG3WA5w41o2Wam9EyWDjQNuiZsrLMtMzC+ITTxE1bebYCzU9cOXH+wo4wrnvc1NM0imxlV+7HKvLQL8yf/2T0x/LQQw94j2Ie/hVXXGXzadLEr60uotFi4aKFZmeJrjYvXR6hbOBdULZsWTtvFouTYfeJuXN/8+RpTpKWc43MqLIHncA8UjgYajDMPkYjgcnLFUZnMbcMzqUzShfhTyPPpRGL/k00XDczPd3YegYr7GMBUWy9BqcJU6NjkKXVf/iFW1s9gwxNOjVphCyNLsKfSycq1Rh1ge09Mdce703/SA34jXNoPNzG1BnQmDjDrC2xx+572AY2POd/t+O/2+IUu2FgtWq4kSM/SDyyKoiHFeb70b4zNLrheMW9FzV6jShq3+3wG8dME6ZWL4K4Zhvc6KXSfA+dIY165cRJE+2CsQeZ7xe2UIVx5JzWH/y7RUNx3q9fb3HbZ+I/nKYswZ+GfxK9hsyo71xSWXHvFU2dMWld1m0Dhcb3Xj17IEnFdnE6q9FHjR9EMPu7hTpXd7NmDb4TWCT2ayzAq3RJmUXpo9bmcDobZ8tlJwGNXmFDyuPq9Zp0anQsO05h/10a477lYc8nuZ7I4HYtlEEBoILziOkNcQ4r0OEFhsnxqLghMQ8+cL83vNVNVEevUtAm6U4OjtjkHHvtYljTSlOBQuUY23+5Him8ZOs3uMYaDwgPBiYaBTAv9cNRIz1R2jDdIgDeg76TKVOmSM+butkrcWn0PRZ5moRrHAt/QPgQn3nm2Xbl9p49u2fMIYM/DLM99NDDrbGNOW0weJ55epjXe+hkaf3FhQd5SZgNvvMeayi3bdMykZHq4o0j5n9jvki2g440Ndt2wdhEfmOotavMYQjuLb37WsPPXylzL0//MLRsue4/wq1pjJ3SZcrYS1hRediwpxK9YPGgXzeg+5g6ge2dsPUC4u4+pBhmiZ5lvxt0x12Wm386xvlmy52Ta9Wyhjr8wphCa7x/BATK05VXXmX2wz3CbrkFfzCs0dDkXyUeaTypZk1PFgxayMLias65+GuMHOwLj23D8L7AKs9Y/Rk9sM5hMRzsxwzDBvqKytKP//vR9tBjRWB/uNim65Tatb24obHvySce9+a4O5k4Yhgh5v1VrFjRXl5oVmy/4frmnhdUGqPi5irP2lX0NeXECzzkBAs/XXzJpXZdC3jBEFw0LmAeeXbrP+YnYS9f927EonYo5zCu4VweYc/h448/wTLD9m6YP+9GPViPCX6SlHON2Kiyh4WlqprpH0EOunRto6J9ll0643RRIw+NHleYMoJvCkZz4X2CxssxY77IWHxQG2acjiFtSfQf/tPQM006tWlEnOJ0EX7QSNq0WQuvZ/oQ01uC1X2nTp1qGoBWN9jDb5zD+xFTKKqahnPssT3HGNJoWEMvk//dDjlowMOiWWiQQlmBy/ZjL8b8BPHIfiTJOyNON7R6odFrF0/Nux1+45hpw9ToRRDXbINb+z10hjQW5MS0KuQ3GnTwznM7bCB9Wn/wizw955zzzNaYi23HUvYCipqyBDlwcfyT6HWRxPDvXFJZmveKps6YpC6LXmnU0fyjsFy6kh7jdBbyNPqo8RP03cL7DQYv6oToNEzikjCL0kdXloLCTmrLBclALzXmh/sX+HT+NPV6TTo1OubCjDomKZdRcjT3EhncGoHZflBIZhtDDkvF+53rRQvae9vvz53jo4Ke5vnz/1hjJVjnB0fsp4w5pK63zn8vaZj+Z6POw9IY9cza3NOyQBjYWgUGRDZ/f/hYjA4VUzd82H/Pf67xpwkPMtc1M3861tW5y6clS5es0dixruIQFI6LF3pyZ5qF1sIcGrjQSrl8+V/etINsv04WjH8YtWvr8JJGz7SbihIkDz38Zctu6U1NCfKDa4hblapVzJZni2J1O0yG/7ombn7/UefachIlA/e23baibFVhK5k+bbo3Xz3smV12qWT31kbjSZhDY8sulXaRX6b8kjESIMx/3PUNoZxjdAzWPPAvihXHJey+Rse0+o8w0tIzyEoznRpdRJhpOTDbdNPSqbwH0opTUjlxupFELzRhp/1u14S5rvTCGdJYNO2fv/+29UbsNIDvmN9p/blntOVNU5Y0/NPU6ySytOmMqzO6NEbV69EYYjsPTCNwO7ODTnYeOfa5OGr0UeMnzbhpmLnwtPnk/Ecd1/W3XJvOOB2LSlP2PU25zH4myf+cG9xhkUELC3qz+vfrG1tRDJOR9Ho+wkwaR/onARIgARIgARIgARLIDQG/IR3VGaH1l5tYUioIYIoYRkx98MH7GTtAkA4JrG8E8mZwr2+gGF8SIAESIAESIAESIIH1mwAMuOrVq9tdPKLWVNH6W79plOzYw+DGIlwvmoUoo0bklexUMHYkIEKDm1pAAiRAAiRAAiRAAiRAAiRAAiRAAjkgQIM7B1ApkgRIgARIgARIgARIgARIgARIgARocFMHSIAESIAESIAESIAESIAESIAESCAHBGhw5wAqRZIACZAACZAACZAACZAACZAACZAADW7qAAmQAAmQAAmQAAmQAAmQAAmQAAnkgAAN7hxApUgSIAESIAESIAESIAESIAESIAESoMFNHSABEiABEiABEiABEiABEiABEiCBHBCgwZ0DqBRJAiRAAiRAAiRAAiRAAiRAAiRAAjS4qQMkQAIkQAIkQAIkQAIkQAIkQAIkkAMCNLhzAJUiSYAESIAESIAESIAESIAESIAESIAGN3WABEiABEiABEiABEiABEiABEiABHJAgAZ3DqBSJAmQAAmQAAmQAAmQAAmQAAmQAAnQ4KYOkAAJkAAJkAAJkAAJkAAJkAAJkEAOCJQog/uggw+Ro48+Rr6eMF4++ujDHCR3TZH5CHPNWPAKCZAACZAACZAACZAACZAACZBAoREolsFdunRpqVKlqvz+++8yb97c1Ji0bNVGDjjgQLn9tlvl668nZMgtVWoTqVq1qixcuFDmzJmdcc//Z4899pQ///xT5s79zX859DwqzNCHcnRDy1XLIkfRpFglgTTzCbKqVKksS5YulVkzZypjkHtvJTVeuU/5+hUC82n9yq+SFlt8mxpd20Q23XRTefihB813eEGJiKL2m6mNrKb+kHaY2rhp/Gnir5FDPyRAAiRAAukSSGRwo9J21VVXy1E1jpZNNtnExmT69GkybNhT8s2kiV7M6jdoKMcdd7z3353AEG5543Xub8Zx6623lj59Bxgjfp506tg+496ll14uxx9/gpQuU8Zenz17tgx/ZpiMHfuV5++SSy+TY489XjbffHP5999/5bff5siTTz5he8s9T1knUWFWqFBBGlzTSKpXP8A+1af3zfLDD997EoqTRu/hrBMtVzymYZElPvDvRRddInVOrbvGvcWLF8l1LZp517X+vAciTrTM+vW/VbbbbvtAScjX9u3aBN4LunjhhRfLqXVPC7olTZtcK8uXL5O27TrIvvvuJxMnfi23DRxg/datW08uuPAieeihB+ST0R/ba81bXC+HHnpYoKyRI0fI0Mce9e4h3JNqnixlVunsrFmzTDl5MlIfvYezTs47/wI5+eRTZLPNNrN30Jg0/Jmn5csvv8jymfzvBRdcJHVPqyf333+vfPbfTxMJyGW8EkVkHXi+6OJLpUKFreT+++5dB6GlG0Qu82lt9CfdVK7/0nKpY2ubT3vtVU06dupiId97793yxeef5RR43Pc3yTdTE1FN/UEbpvY75+JVqdKu0rlLV1m0aLG0bdPSXbZHrSxN/DME8w8JkAAJkMA6JZDI4D7vvAuk3ulnWKN4/PjxsvPOO0u1anub3uS50q1rZ2u8IPbHHHuc7G2uO1dxu+1kn332FRgdnTq2c5czjmeddY6cdfY58tabb8jw4U9792rXriMXX3KZzJ8/X8YYA2PbihXlAGMEL168WLp17yILjBF/xhlnyTnnnmeM7N9k/PixpmK8tRx44H+M4b3SfMBamQ/ZIk+e/yQsTBhf9RtcIxUrbmd71MuVKycD+veVb7/9xnu8OGn0Hs460XLVsMgSHfoXTCFv7FdjLEvn8a+//pInnhjq/lr2Gn/eAxEnWmb9+g8UMP/yi889aaVKlZIaZrrBjBkzpEvnDt71uJPDDz/CjprYeOON5ehjjrU68t3kb2XFypXyxONDZcWKf6Rd+45WP5H2du1aW51yBvejjzzkTW9wBvdoY4D/a573u+++/05Gf/yRvYRwGja81urO+HFjZZttt7Xy/zAjQrp06eSVE//zYedIM2ShIQRlDlz2229/WbJkifQw+o9ysTauuBXxXMdrbdKUi2e79+gl25p8vP661Y1RuQgnbZm5zqfi6k/a6SwEebnUsTTyCQ2XpTctLa+//pp9b+aKueb7q/1mauKorT9ow9R+51zcWrVuaxv2HxvyiIwaNdJdtkeNLG38MwTzDwmQAAmQwDolkMjg7nVzH2tkd+/WRaZNm2ojilZvtH4PGjRQJhiDINvtsksladO2vWAY1p2DB8lkY+wEuR433Sy77LKLdO3aKWPIrDOG0POIHki4Zs2vk8MOO1yGmA/Uh+YDBfn4SPfr21u+N4YPXKNGja2B9rDpoYSBFOSiwkSaXn/tVamwdQXTu37iGga3X542jf5n/OdarhoWfrk436JsWVliGiey3aWXXS61atWWgQP7y6SJq0cnFNefey4sPHffHaOYweCGa2+MX+dOO+10Of+CC+Xdd9+WYU896S6rj+XKlZc7Bt8lk8xIjIG39s94znHFxeeeHS5vvPGaRBncLVo0DWTqhDZp2lyOOOJIeXzoEBkx4gN7uUPHzrZx6lYTtn80iHsm7OhkPWkaQd5//z3r7brrb5SDzXoHQbqNXhg0IsS5Lbfc0jZExVXEw/IzabwQnzBZ2XHFKJWlZuh8lNPKggyX1jB5kPXP338LGlzCnNYY0vJHOHHxgp8k6YT/bJc0n7Txd3Evrv5kx1PzP229SFOe4xGVjjg90+oYwtDqhYtXXD5FxTvpPQ3XKJl4H8d9f7XfzKhw3D1t/aE4YUZ95xC+axBDvQX1lygXJksb/yjZQff8OhaVp6jbrVixUvXdCQqH10iABEhgQyCQyOBGS+yyZcvknrvv9NhceJEZsnvqaba38IMPigwCdxNGTvsOHWWHHXaURx992Bua6+67Iz6uMEiCPjp9+va3xnrrVjc673KsGa7ewAxbh0H8/PPPSqfOXe2c8jatW3pzy84973w5/fQzA+MFQVFhNm7SVMaNG2eH2F5dv0Gkwa1Noxf5gBMtVw0Lv/hap9SW88+/UBYs+FN69bzJYwM/l19+pdQ8uVZkQ0ISf/AbFR7uOxfH7BrTowsHg9I5VEYrVaok3bp1lpmmlzupizO4d955F/nnn3/s6I3et/RaK4Mbuoy5dJg+4UZXYFhvvXpnyFBjhI9cZYRr0uBktWp5g5d/MOZRBj75ZLT899NPrJhTzGgFDDtHLywMx19+mSLPDn9Gfv75p4xgrryyaEoI5mLCDxrO0KCUPaT8xJNqmgaZU2zZXb58uUyZ8rMZMj/EWz9BGy8EHiercZNmsvfe+5jenRE2LltttZVdgwHD5r8yIzD8Lk4W/GJExmmGNdhUP+AA2Wmnne0ojhEj3pcXX3jeE3eSSWPtOqfakSxmOIxMmz5dnn9uuNewh0aNq65uYP2X3WIL2diMssAaEs6h8QfvIDgNf228nHxteXL+g47afNLEH/LT0p+guIZdQ+PgMcccZ3pXN5WpU6danT4UDa7mmzLOjCCB0+hFmnqWJC+j9CyJjmnTCX/afILfKHfmWWdLzZq1Mry0a9sqo3EqCdcMQSF/NN9f7TczJIiMy9r6Q9Iw475zZcpsJj173WJG5FWQfv16y0//+19GvPx/omRp4++XF3aO7xYadKeY78Y+phPjjz9+N+/RT+20rN/nzZOhjw+R7yZPto+ffsaZcvBBh8iulSvbaXy//vqLHYX41ltvhonndRIgARLYYAkkMriDKN3YsrUdsuvv9Xb+Wlx3gxxyyKFmKOw4uevOwaEtoPXrXyPHmTna/l48JwO9nTAgunbp6C7JAWa4eEsTrht+7nojUfnCPNo99tzLGpSbbFJK2rdvG9gbGRWmF5A5iTO4tWn0y9ScB3HVsPDLdr38uJY9JP4KY3ihIvjKKy/L7rvvboYql5eZM2fISy++4BlVeE7rD36jwsN955Iy23uffcxQ747y3XeTpX+/Pk5MomOcwV25chUZM+ZLu0p+F6Nrhxx8qJ3DHTSkPK6HGxWgyrtWliZNGnlxxFQMDEnEMPbshinPU8BJkKxsb66XBIbxjz98L1uavKxSpYpdx+CmHt283uJTzZz9C83c/UWLFpqe/klmnvx2squJJ4xvv8F95JFHSUMzQgT+vp4wwYzy2NoOiZ9r5o679RU08UI8NbJamcUSq5vFErHGww8m/mVNjzMM8KlTfxXE3zmNLPhFRfDcc8+37w3IQyPhfvvtb+fAP/jg/dYQh6xrGze1BjRGPZQvX96mEQ0keNfgiOkyp5n57XC7m4oo5tD7Ryd8afTlY7Obgpa/Jl42sFU/2vLkfyb7XJNP2vinqT/Z8Qz7jzxAowGmVEw0I3GgsyirWEPk3nvuki/MtBOtXqSpZ9q8jNMzNPRpdAx8tOnU5lMYc/91NOwddmjRuhVVzKKlW21VwVv7wvnTcnX+kxzjvr9+WUHfTP/9sPPi1B+crKgw475zblrXiA/el8cff8yJDDxGyVqb+GcHhm9t+/ad7NStSZO+llNOqWOnDGJ9D6z1gUZMrGuC9ykaIPDO/vabSbKRmbKF9W4womKgGY3of09mh8H/JEACJLAhElgrgxsVtWvMwmLo/bq5101r8OvatYdU3W032WijjeyK5m+YuV/ZxgaGMN468DZbgWrTutUa81udkXn/ffeYF3wb+fHHH+2cWr/BjYBRATrnnPNs5bpMmTI2vPvuuzuw1TguTH9C4j74mjT65WnOw7hqWbgwdtxpJznhhJPsSvLvvfuOu2yPV11d397DH8ytR68iho1hlEHfPrd4frX+8EBUeJ5Ac5KUGVbHrVHjaHnMNKaMMouTFcfFGdxVq+5mpzxgAbXXXntFli5ZGmpwTzDb1qFH1O+GDn3M9o7jWpCRk0uD+4YbW8l//nNQxhDz1m3ayf77V5e7zWiUMasWV0MFCZUiv3HdvUdPOzrEf80NQx5spoCMW7Uw4XWm8ezgQw71Gm78acTig2VWLeiG9C8yvcCuZ18jy1XYn332GXnzjdchws6rh9Hdq2cP+37BNY0s+HPGEBpQ7r5rMC7ZnuyLzcJnn332qV34DJXUvapVE5SLb0yFEc5xvOvOO9boWY8a7uue8w/xD+KviZeNyKofbXnyP5N97s+n7Hvuvzb+aeqPCzvu6EbiYITURx+Ost6dzjqDW6sXaeqZNi+T6FmUjiHh6nQqy3kc++z7MC4PNI3dbrFJd1/L1flPcoz7/jpZYd9Mdz/umKT+4GTFhRn1ncMuL5iOh/ckRm1h2hfWCNnJfLO7dF7dueDCipIFP8WJv5PtPzqDG3W158xon8F33mPXeUH569tvgFk7ZKn0vKmbuMVIn376KXnn7besiP2rVzc7yexmpxaisZSOBEiABEhgNYFiG9wYeoSKmrE8zNyjPjJ9+rTVUn1n5Y0hh721sbAHDO8OHdraRamcl2PMAlMYQuwqwu66Ozoj8wkzlKmt6eXEMNiXXnoxo4cbYcDwx5ZiP/30P9lmm21lC2M8vvDCc/LOO287Ud4xLkzPoznRfPDj0uiXF3cexVXDIk6+u48P5hGml++TTz6WF55/zs4JbGOMNKyYirnTf/zxh/Wq9efkao9aZmgEGDDgNjvcu7WZMqCZnxwUB43B3azptdK7Tz/TM/q3nU6AVcqDerjR87ty5WqDG6viYxg6VlCHCzJycmlwwwDBtA2sLu/4uDnvGFb+5ptFRqzzh3Q6h1XvMXTZb3B3697TrtUw7KknnDczCmIPOwoFCxpiZIk/ja4i7jy/+urL3tBtjSxXYW/d6gZP79yUED9/jSzEwRlD/sog8h9TMtCgNPiO211UZU8zGgaGLRwaIzBc3x+m8xhlDDmucfyTxMuFu7ZHfz6FydLG3/lLQ3/C4pJ9HUbJbrvtbnUbOwrAOZ11BrdWL9LUs6R5qdGzKB1DurXp1OYTZCZxrpyHGdxx5TdJWM6v5vsb9c10cqKOSesPkKUNM+w7h3nX6CX2L5TWuUs3O20KfINcmKzixD9IPq45g9u9wwcNutM2Pg41U6Fu6d3Xfhtv6tHVm5KHrWGxuCmGk2N9HldvCJPP6yRAAiSwoRIolsENo6xlq9Z2GPLDDz+o2k7IrfCMHif0PDkXtw+2MzIxzBPD7zCnaE8z59vfw42Wf2zXhAr2+++9K/gAYTgmPmhYIMv1YGnDdP5w1Hzwnf+wNLr7ccc4rhoWcWFE3T/bjBA488yzAof2+5/T+vM/E3Yexwwr48Lo//DDkWbO5iNhYmKvaw1ubK+CxeTefvtNuzaB3/hycW3XtnXkPu9BRk5uDe41V9A+2cy/vuyyK7xF4AAoqEIftJgS/GFIOhoSsh16PdAL7U8jenowv3777Xew5dBV1lyYcbKcIdSoYQOvweDss88VzB/189fEC2E6Y8i/aF12Oo4yIybOMvLRUOFPJxoF/WG654LYRd0L4q+Jl5OZ1tGfT2Eyg9IWFP8gf8XVn7C4ZF+38TdDyJs0bujdcmE6g1urF2nqmTYvk+hZEF8v0eZEm84gOY6Zv2HNL1tzHmdwx5VfTRjZfuK+v3HfzGx5Qf+T1h+KE6b7drj6z4MPPWo6KaabzorVo8kwggTv0TCD28U9W1bS+Ds5QUetwY1noVNYRR3TceDQIDZ69GgzbSp6eLz1zB8SIAES2MAIJDa4sT9y6zZt7UJDT5l9rrOHiIMfjIsFCxZ4QwBxzS0a9cgjD9l5j7gWtQ827sP17XerrRB3ND3jzmGFcqxUjor/C2YRpNsH3WG3e8LwU+d232MPswVTdzv8HBVo5zRhOr84hn3wtWn0y4o613CNY4EhuWvj6tSpKxddfIn4h/YGydP6y362OMy6db/JDnm+5eabzOiFzAXAsuVH/dca3BgS17VbDzOS4hepWrVqhvHlKjpxBjd65SCnWdPGngEJ4xFGZNI53K6HD5Uw13sN3a6+/wG2IenHH38wFfGe1tht3qyxh8DN4/TnJSri22+/vfj9YZg1Fg7zV8Qhb5tttpEbrm/hycs+CYrXCSeeJFddVV8yDe54WXpDKF4W4qkxhrDiMNKInQ7cnsJBRr5Ld5ARs/qejr8mXk5mWsegfCoJ+qNNn5u7imkuGJ0Ad/0NLeWggw725nBr9BXPpaln2rxMomdROob4a9OpLeeQmcSVNINb882MSx+mlyWpP2jC1HznYHBjq8tsB6PVb3DHyfr0k08SxT87vOz/SQxuPIuF36qZqTlYN+cYM1oR79S1/VZnx4n/SYAESKAQCCQyuLGaZqvW7ez2Xc8/96zdPikIAgxDzAmGYbJw4QLrBT0VGFaH/brdlmJh+2D7ZeI5DN/q0/tmM3/7B3sL+xIfbV7uWADp888+s9s9rVy5wgyFbuMtEIVVZLEoCVZyfsj4c04TpvOLY5jBrU2jX1bYuZZrHItPTVr9DnJr1DjGDnX+ctU8XncfPbl77VlNMEJh+qrpAG6ert/40vqD3KjwcD8pMyyY1L5DJ7Ni6s/Sq1cPiCi20xrcCAAVVvTKwvl7O7UGt/MH/XR54ua/YjizW1nZBhDz42Qhn9w+31gVGAsoYZgfVjx3o0Rcjx9Eunm5WPvgs8/+a0PB/HRsn4ft+caumpuNYYwoX/48d2H6tzDDCBL4wyJVWPnc+YmKFwJ1/qJkaQ0hjSyEGWcMYQQMhkpieop/UTZnUPjzHPLg0Aiz8847S4vmq4ftF90RNf+4eDl57hhXnpy/qKNjFpVP+dCfqDj77x1nFu2qb3akwCglrAiPFZEvMDsvlPItmubSGKVjkJmmnmnyMqmeRekY4q9Np7acQ2YS58oHDEI3vB/Pa7kmCcv5Dfv+ar+ZTg4WBq1rtpbEtB/sfuAcDG5sF6mpP2jD1Hzn0NCJhf/8DmtkbLHF5hkGd5ysmTNnquPvDyvsXGtwY00VTMUZNXKkt3YJGgewMCgWYn3pxdW7QYSFxeskQAIksCERSGRwu0VbMG8nexVKrAb8kVmxF84ttIUhU9+ailKlXXe1qw7DsIPB7VzYPtjuPo5uLuq8uXOtkbC1aUHFwi3Lli2Vzp062EVHnKE4Y8YMmfztN3ZIOYaTY1Xhe++921s0CvI0YWKhGyxeAlfZLG5S2VTyYKAsNguczDNbY7z88ovqNFohMT9arhoW/qBQUUWFFUNms1udscgWeorwwf766wlmaO0OdpGtpUuWmLmCXbx59lp/CDcqPNzX6gX8wrmGleHPDJO3irnVyOGHH2Hn9m9sVlFFIw3yDzoJ99hjQ2yvMfZ9LeqRLpo7d86559k1B+DHb3y5Cm9cD/fxJ5woV5vtpP78c75MMKt8o/EJC5j9aVZ0xdSIuD2mEa5zzuBYYJ4dbxZrwyqwmGuMFclhLM6bN1dOqnmyXHHFVTJ//nyzp/rXNjwY1gvNXPPu3bp6jV5nnX2OGUZ9jl11dty4r8yKz9vbxdYQlt/gPsHE/0rTUz1nzmxBQw16Yo477gSjRyuld++bZZbRGRcvpAkNCIgX1lDAjgIuXpCrkaWtsGtkIUyNMTTg1tttbwwaLGaY1fn3MHPUMfwXzp/n9oL5cdsfYqX83+YUzdUfOfIDO+pCy1+AHVvkAABAAElEQVQTLxcejnHlye837NzlU0nTn7D4Zl/HHr/YOgnTFZybMmWKKa9VvR5urV6kqWfavEyiZ1E6hrRr06kt545n1BHvi2233dZ6qWYWMcQImY8//sguGrli5Uo7B1nLNSoc/z3N91f7zXRysSPBUUfVsH+xBZfb2goXtPUHbZhJv3MujkFzuDWytPF34UQdtQa3ixcWzJ1ovjmbmZ5ubHGHHS2wgC4aM+lIgARIgARWE0hkcLsW7tWPrz7DR/gR0wvnHFaWxrA/LHqF/Y3xYn7wgfu9haWi9sF2MtwR+7Bir2BUvlaajzxW1cb2X26IIYY11W9wja3wIzwYmGgUwNDWD0eNdGK8hT7wXL++vb3r2SduQZPs6/iPyh5W6YSLS6P1pPhJwjWOhT84VLzOPPNsu3J7z57dZbbh5ncY5n/ooYdbYxtzV2FgPfP0MK/30/nV+osLD/KSMMMKqTCU27ZpmchIdfHG0a2m6r+Gc+hIU7NtFwxE5DcWZnJDrVG5xwIxMDT9xpczuLHf+++/z8sWmfEf4dY0hnDpMmXs9VmzZsqwYU+ZbbbMCucJHfZSP7lWLTt8D4/Onfub7aXxj1rAfDrsRez0H1u8IS/RmOIcenOaNmtuK0bIbzRi/fi/H21v+X2mYerzzz9zXq1hjn3ay5UrZ8svVp3FarSutxweNfGCP1Tao2Q5/dfMAY2ThfCcMRS1qj32ccaw+6qmQQ37a88xRjRG0GBYpD/PIQ8OjROYboGGDDCG8/vT8NfEywpe9aMpT37/YeeafNLEP239CYtv9nWMTjmqRg0pt2U5u8UkphTVMXnnH9Gh0Ys09Uybl0n0LE7HwEWTziT5lM06+z8WakPjRpDDd/3aRg0kCdcgOdnXNN9fF2b2s/ifXRfBNeQXdjFZsmSxbfT3L+6lrT8kCTPJdw7xg8MINswP9y9KiOtxsrTxh6w45wzuV15+ySxO+4IdCfTVV2PsaCp8E5cv/8vWf1Amr7jyKlunQoMyvqdovB8z5gtvwcy4sHifBEiABDYkAokM7uKAgSEz2xhy2PbC77T7YLtnUIlAT/P8+X9EroSJPVoXm7DQ85ftkoaZ/XzY/7A0hvlf2+taFghnhx13tHsNZ/P3xwGL0aHyBIM7ymn8acJDGOuaWVS6cnXP5dOSpUvWaOxIGqaTtczM8ZtpRnKEuV12qWT3LEZvd5jDOgZly27pTe0I84frqACiF9tNDcn2q42XRla27Kj/cfGKetZ/Dyw23bR0rO77n4k61/CPej77nrY8ZT+X/V+bT5r4p6k/2fHU/G/arIVg5MqA/n3lWzOiye/S0gsnMy15aeuZJl5J8smlt5CPmrIUVX8oDps0v3MaWWnHX5NmjA5bakYcZjfoa56lHxIgARLYUAjk3OAOA4nWYvSe9e+HVtOi7V7C/KZ1PR9hphV3yiEBEiCBDZEARiLsZ6YIwW1RtqxdRBGjnDA9g44ESIAESIAESIAESjqBvBncJR0M40cCJEACJJB/ApdffqUcfsQRNiJ//fW3nUr00Yej7L6/+Y8dY0ACJEACJEACJEAC0QRocEfz4V0SIAESIAESIAESIAESIAESIAESKBYBGtzFwsaHSIAESIAESIAESIAESIAESIAESCCaAA3uaD68SwIkQAIkQAIkQAIkQAIkQAIkQALFIkCDu1jY+BAJkAAJkAAJkAAJkAAJkAAJkAAJRBOgwR3Nh3dJgARIgARIgARIgARIgARIgARIoFgEaHAXCxsfIgESIAESIAESIAESIAESIAESIIFoAjS4o/nwLgmQAAmQAAmQAAmQAAmQAAmQAAkUiwAN7mJh40MkQAIkQAIkQAIkQAIkQAIkQAIkEE2ABnc0H94lARIgARIgARIgARIgARIgARIggWIRoMFdLGx8iARIgARIgARIgARIgARIgARIgASiCdDgjubDuyRAAiRAAiRAAiRAAiRAAiRAAiRQLAI0uIuFjQ+RAAmQAAmQAAmQAAmQAAmQAAmQQDQBGtzRfHiXBEiABEiABEiABEiABEiABEiABIpFgAZ3sbDxIRIgARIgARIgARIgARIgARIgARKIJkCDO5oP75IACZAACZAACZAACZAACZAACZBAsQjQ4C4WNj5EAiRAAiRAAiRAAiRAAiRAAiRAAtEEaHBH8+FdEiABEiABEiABEiABEiABEiABEigWgWIb3PtXry4LFyyUX3/9pVgB8yESWJ8JUP9zk3vkmhuuWqnkn0mKPDJ58F9hEKBeF0Y+MhX5J8CylP88WF9iUGyD+5FHh8q4cWNl8B23ry9pZTxJIDUC1P/UUGYIItcMHOv8D/lnIiePTB78VxgEqNeFkY9MRf4JsCzlPw/WlxjQ4F5fcorxLFEE+JLNTXaQa264aqWSfyYp8sjkwX+FQYB6XRj5yFTknwDLUv7zYH2JQSKDu0KFCl66brt9sEyYMF6GPPqwvfbPP//IokWLvPvlypWXUqU29v7jZPny5bJ06VLvmsYPPGv8afxoZWn9pRlmmrIY/9U6liYL6n9uym/aXNPM83zIWtdhkn+mXmt5pPnOTlPWutYfbXhp+0uTWZqytOlMM0yNLK1el9T4a+Ol9adhlg9Z+QgzTRYbQvyTlCXwoCMBEFAb3BUrbif9BwwMpTZ58rfSv18f7/5tt98hFSps7f3HyfvvvytPPvG4d03jB541/jR+tLK0/tIMM01ZjP9qHUuLBfU/N+U3F1zTynPIgdOUTY0frSytvzTCJP9MvU7CIw3+yGu4NGVp5aUZZpqyGH9+v6AD2fVFrV5o/aWps2nKYvzT138whUsjn5J8I4pC5S8JFBFQG9xblC0r9eqd7nGrW7eeTJ8+zfZy4+KcOXNk1MgR3n34xTN+98P339t53+6axg/8avxp/Ghlaf2lGWaashj/sUDgOQ3bOD/Uf5FclN9ccEXGx+Wn1o/WnyY8rSytvzTCJP9MvU7CIw3+yGu4NGVp5aUZZpqyGH9+v6AD2d8brV5o/aWps2nKYvzT138whUsjn5J8I4pC5S8JFBFQG9zZwDhvIZsI/29IBKj/ucltcs0NV61U8s8kRR6ZPPivMAhQrwsjH5mK/BNgWcp/HqwvMaDBvb7kFONZogjwJZub7CDX3HDVSiX/TFLkkcmD/wqDAPW6MPKRqcg/AZal/OfB+hKDYhvcV155tUydNlVGfPD++pJWxpMEUiNA/U8NZYYgcs3Asc7/kH8mcvLI5MF/hUGAel0Y+chU5J8Ay1L+82B9iUGxDe71JYGMJwmQAAmQAAmQAAmQAAmQAAmQAAnkgwAN7nxQZ5gkQAIkQAIkQAIkQAIkQAIkQAIFT4AGd8FnMRNIAiRAAiRAAiRAAiRAAiRAAiSQDwI0uPNBnWGSAAmQAAmQAAmQAAmQAAmQAAkUPAEa3AWfxUwgCZAACZAACZAACZAACZAACZBAPgjQ4M4HdYZJAiRAAiRAAiRAAiRAAiRAAiRQ8ARocBd8FjOBJEACJEACJEACJEACJEACJEAC+SBAgzsf1BkmCZAACZAACZAACZAACZAACZBAwROgwV3wWcwEkgAJkAAJkAAJkAAJkAAJkAAJ5IMADe58UGeYJEACJEACJEACJEACJEACJEACBU+ABnfBZzETSAIkQAIkQAIkQAIkQAIkQAIkkA8CNLjzQZ1hkgAJkAAJkAAJkAAJkAAJkAAJFDwBGtwFn8VMIAmQAAmQAAmQAAmQAAmQAAmQQD4I0ODOB3WGSQIkQAIkQAIkQAIkQAIkQAIkUPAEaHAXfBYzgSRAAiRAAiRAAiRAAiRAAiRAAvkgQIM7H9QZJgmQAAmQAAmQAAmQAAmQAAmQQMEToMFd8FnMBJIACZAACZAACZAACZAACZAACeSDQLEM7lKlNpFG1zaWaVOnymuvvZKPeDNMEsgbAep/btCTa264aqWSfyYp8sjkwX+FQYB6XRj5yFTknwDLUv7zYH2KQbEM7jJlNpN773tAJkwYL4NuH7hW6S1durQx3pvIpptuKg8/9KAsXLhgreTxYRLINYE09T/NuK7vZamkctXmEflrSa0f/tZ3fVw/KDOW65oA9To3xNf393/aVNY1j3UdHnixLKWtNYUtL6cG90UXXyoVKmwl9993byjFvfaqJh07dbH37733bvni889C/a7rG5r4r+s4Mbz8E4h6yd7YsrUceOB/MiLZrm1rmTv3t4xrSf9odFFbljSyksYP/i+44CKpe1o9uf/+e+Wz/36aWEQ+uCaOZMQDhcwfyW7Vqo3st391aXxtQ1mx4p8IEoVxK0ofXQpRybv66gay7377y1ZbbWUvf/vtNzKgf1/nJfVjrspv6hGlwBJJQKPXURHP1TcuKkz/vZKq/9r3vz8ta/vN9MvKx3lU/IvDIywNmjxPM7yweGRfX9uylC2P/wubQE4N7u49esm2224r11/XLJLiqXVPk9KblpbXX3+tRFXktPGPTBxvFhyBqJds7dp1pFKlXW2a99xrL9lxx50kDYNbq4uasqSVlTTjoj6+Gln54KqJVxI/hcofDGBwVz/gQGnUsEGJek8nyZ8kfqP00cmpVau2XHrZ5TJ16q/yy5Qp9vK0aVPlnXfedl5SP+aq/KYeUQoskQQ0eh0V8Vx946LC9N8ryfqvef/707K230y/rHycx8U/KY+wNGjzPK3wwuKRfX1ty1K2PP4vbAIlwuDWIN6ibFlZsnix9br55pvL0qVLAx/z+wv0sOoieiZWrFgZWXHUFnKE+c/ff8tff/0VGqQ/XlHxh4Att9xSFi1aFCqLN/JLQPuSbd7iejn00MNiDW6N/mh1UUMmTVkIz+lr3MfXXwaC4pk2V4SBOVaa3ti4MglZGj/wF+fWV/7ZBrfL96j0anRb8y5GGHH6ExWP4tzT6KMr4zf36iE//fRTZDCa+Gt4pa0/iLQ2L903OCyh2rwMe57Xc09Ao9cuFtAL1GvC6jZO/9NoVEaYGv1Jov+aModwNfoPf2k5F17cN1MbnpMX5z/OX1JeacQfcYrSMaQpSZ7HMcB9bb0AfqO++0nKEmTRbdgEUje4Dz74ELnKDLGDK7vFFrJxqVJmXvZCj/K7774tr7/2qpx51tlSs2Yt7zpO2rVtlfFi32OPPeW662+UKT//JPvsu5/88cfv8t9PPxW0Yv0+b54MfXyIfDd5spVx4kk1pVatU2SHHXaU5cuXy5QpP8vQx4bInDmzM8I4/Ywz5eCDDpFdK1eWf//9V3799RcZ8+UX8tZbb1p/2vjD80kmzNp1TpWKFbcTI0ymTZ8uzz83XCZO/NrK0sb/WjOHfd/99pP333tPTjjhRNnGjAqYN2+uPPvs8BI1xN4mij/qeTtxlZE4/dHqoqYsaWUhexHv3XffQ1q3usHL7bp160mdU+vKk08MlS+++Nxev/LKq+WoGkfb9Rd++WWKoGfv+ONPXGNIubZsaj9ecVwRuVPMSIOTTz7FjrDBxxzxe3b4M/KzeZfANW7STPbeex8ZNWqEjTOGA2PY//Bnnpavvhpj/bgf9GAec8xxZhTOpqYnc6qVcehhh8uQRx+WcePGqt5lhcAfBvf+1Q8w77hn5aSaJ8s222wjv/32m3lPPWPfoY4XjnG6DT9x72L4gdPqT5Hv9H6j9BEVNrimzZrLIYccKu3btZHff//dC9zfyKOJfxyvtPUHvZSn1TvDfE8/MaMWDpCddtpZFpsG7REj3pcXX3jeSwdONPHX5mWGYP7JC4EovXYRgn6cckodWxdZuWKFTDXv9heef86r2zh/ce9i7bckTn+S6D/iFqezSfTfpTXsqPn+ume130znP+yorTNq0xnHy8VDE38tjzgd0+a5NjykIa5eAD9J6gaasgSZdCQAAqkb3NWq7S2nmXmccLsbg3mzzTaTbyZNtP/x8+WYL+Xjjz6UY487Xg4zvX9wVapWNfPfKkjTJtcaY3mZvYafvffZR9q37yQzZsyQSZO+th+AuXPn2vmhmCuKysJDDz0gRx55lDRs1Nj0Ci+UrydMkApbby377LOvrUB36tjek7fffvtLq9Zt5c8//5Rvv5kkG228sVQ3FUi0sA0cOMDGUxt/hHlt46a2MWGSSV/58uVtmOiZ7tqlo+2h1sb/xhtbyYH/OcjG/7vvvpOypscc81F+mzNHOnVaHX8vITzJKwHtSzaqMqLRH60uasqSVhbAtmvf0epfo4b1Pc5nn32uNSwffeQh+ciU31ON8X3hRZdYnZ00aZJst912suuula3x7Z/DrS2bCCgNrpBT4+hjpGFDvEuWy48/fC9blisvVapUMcbhHLmpRzc7Osb11uJd8IPxgzIHAxxDg+HHOXDr0LGzMUYWmcrmRJvOypWryCabbCL33nOXbXzYUPg7ZvPn/yE//vijlCtXzuoJ2HTt2lkWGJZwGt3WvIudLM273Qac8k+YPrr3elhwkyd/K/379bG3Nfqv4ZV2+YWBc+6559sGbuj/smXLBHmC7/WDD95vv61IgCb+2rwM48Xr65ZAmF67WBx9zLFyzTWNrE5Al6ETqI8sWbJEevXsYTsDnN+obxz8aL4lGv1Jov8andXqv0tn1FHz/sfz2m9mVFjunrbOqEmnhleS+Gt4aHRMm+ea8BB/Tb0A/tx3Lq5uAL9xZQl+6EjAEUjd4HaCcdQOA3GLcIQZ3G+Yud3PmZ7jwXfeI2NN79Ojpmepb78B5gOwVHre1E2aNG0uRxxxpAwePEjGjf3KRuG6626Qg03PAxavwSI2cBdeeLHtHX/66afknbffstf2r15dqlbdTSaMH28r2/biqp+o+NetW0/2qlZN3nv3HfnGGO9wNxjD+T/GcL7rzjtsL5mrmMXF37080bPw6qsvZ8jq0/tmaxDYi/wpEQS0L9moyohGf/yJjdJFv7+wsuT3EydLU0lCwxUaq/zGdfcePY1hWzXjmrZsIn5pcIUcVw4fNo1xo0d/jEvSuk072d8s+HX33Xfa3lj3UUXv7JtvvG79IN0wulGpxAgZuMsvv1JqnlzLvnM++nCUvebS6Qxue3HVTyHzD2Lm9ODBB+6TT00DKJxGt7Xv4iT6syoLUjuE6eMOO+4odWqfasOpZvRl5513to3I//xTtJDcrFkzvTncmvhrePkTlUb5dRXxMaYB/O67BlvxGK11sVno9LPPPvUWOtXEX5uX/jTwPH8EwvTaxcjVRx5++EEZ/fFH9jI6F446qoY8/vhjMuKD951XOxoqatqU5luSVH/i9F+js1r99xKqPIl6/7t3Zdw3UxOUy6O4OqMmnRpeiFNx4h/Gw8Vfo2MIOy7P4QcuLDzc09QL4C/oOxdUN4DfuLIEP3Qk4AisFwY3jFC8WAYNutMaskOHDpFbevc1rfN/m96ortKte09b6Rn21BMuXXZI7HHHnyDDhz8tb735hr2OVlr0VmHo35dmWCyGk6MF948//vCe859oCvmee5qFsXbayT4GAwSGv+sFdAZ3XPzdywfDEtELB1enTl256OJL5Pnnn7VD8O1F/pQIAtqXbJTB7RISpT/OD44aXYS/qA8O7sPFydJUkmB0YvpGs6bXFgk1v5deernUOqV2hsGtLZsQkhZXF7frWjTz5m+fdtrpcv4FF9ph5W+++br3UcWweVf+zz3vfDn99DO98os4YQeF3XbbXSDLjb5x6cynwe3SuC75u4qInxlGGmEen7/hAtzgonRb+y5Ooj9Foab3q9HHuDKeJP5RvPypSqP8uoq4v/G5nBkJ0qdvf/n+++9k8B232yA18dfmpT8NPM8fgTi9hn7tsMMO9p3npkZsbUYNYtrBzJkzvPclUhCn/5pvSVL9idN/jc5q9T9pLkV9f7XvbE2Y2jqjJp0aXohTceIfxiOJjhWFrVuAOSw8f/yj6gXwF/SdC6obwG9cWYIfOhJwBArC4EbhxZBRzMnOdugZdz1YuIfK4THHHmeHgOM/KtGjR4+WJ0zLbbaLerFj7upZZh46jA5/uBtttJFXYU9qcLdo0dRbGA5z+q4wc2RfeOE5ee3VV7Kjxv95JKB9yUZVRjT6409ilC76/UV9cJy/OFmaSlKQDJSt7G3B4E9bNtPgijQGxe1ks77DZZddIc+ZdRHeeOM176PqX3E7e9g8ZHXq3FUwhLxJ44b4a51LZ34N7jUrIC5emT0o6fF3FRE/s2yuAKTVbc27OIn+FOVOer8afYwq44iJJv5aXi5lQfrt7uGoKb+uIv64abweMeID/+MZ55r44wFNXmYI5p+8EYjT6zj98kc8Tv81ugh5SfQnLn4andXqvz+tmvOo729QvIPe2apwVk1DjKszatKp4YU4FSf+YTyCZEWlW+s/LLyw+Ad9v4K+c0F1A8iMK0tRaeK9DY9AgRjcPe0CPjdc30KVgygk1cxw8D1M7/QxZr4SFv+55eab1lhlNqqQ97q5j31uyJBHvIXNsgtlUoO7TeuWpvd9nk0DegrRk4aFSl57jQa3KmPXkSftSzaqMqLRH39yonTR7y/qg+P8xclq266DHVrdvFkTr1f3vPMvkHpmkSU3egMytt9+e2nerLETa4ejYlhqpsGnL5tpcEVk0BK//fY7ZMTNzZ9zPbHaj2oLMzUFi2L17XOL7fmD/OtvaCkHHXSwN4cb15wrZP6OGbZ5dLsouJE4riEDHJLodty7GHmJ97P23e7yIY2jRh+jyjjioIl/El5FMtdsbPGnV1N+NRVxbfxd2HF56fzxmF8CcXod9G7H6uFlzToXWFgPi1A6F6f/Gl10srT6E/f90pQ5rf67uGmPUe//IK6YwpH9zdSE5Xq44+qMmnRqeCFOxYl/GI8gWWE65sLedtv4LYbDwiuSEV8vgD/3nfM3LGfX7eEPLq4sFfniLwkUEcipwd21Ww871LtF89VDO4PAhxUSrcHqXvq33trfW6AN84qwSjhWVHYrE9cwvdIY/j1q5EjPsK13+hly3nkXyCuvvCwvvZi5OmtY/MubFY0xvB0rH/sXWHLpcEaJNv7u5Tn8mWHeaunNml8nh5mVkP1pCmLHa+uegPYli5VE0XvlN9YQW63++FMWpot+Pzh3Opi9HoLfX5wsrNKJhVTQmPThqJH20fYdOlkj3K2JgIrUvmbngDvNugljV62b0LlLN1vm/Aa3tmwikLXlaiNqflqa1bQPMPtF+3ug3fyt+++7x8xR/a/6o3qcWdyxfoOGdp0G7K6A3Q0uOP9CKeVbNM2Fi2Mh83cVkaeefELee+8dm2zsIoHVZN1cPK1ua9/FSfTHnw9pnGv00cUvbFskd9//Hvd/m+aZBlbNt8SfnjTKr6YijjDj4o9vqzYv/Wngef4IxOm19/68926vM+Hq+g3sbg5YP8etZYEUhH3jXOo035Kk+hOn/xqd1eq/S4f2GPX+134zNWFp64yadGp4IU7FiX8YjyQ6hrDj8hx+4MLCwz0vzFWLneJadr0A19x3jgY3aNClSSCnBveFF5lFyk49Tb77brJdcRsRHznyA9uTfNZZ59gte3ANC8+gt+xjLNBhhoWvWLlSHjOVfa3Biq20rryqvt0C7EuzxVcpsxXZccedYEStlN5m0bFZM2ciGLNdWX054YST7IJI2LprM9PTjcoiVjW/uddN1oC2Hlf9RMV/wK23256XkWY43gwzr2kPs40SjCu44hrc88wK7BPNiufY9w89aAsW/Gn3cF4VHR5KCIG4CouLJraOam4aTmbNmmVWdf7B6vYyM4UBBotGf5wcHKN0UVOWtLLgDxUgrAyNVTqxRVZF07KM7aAw+qJTxw52XvRZZ59jplScY3YCmGu2xvrKrN69vV0wEM/7DW5t2cRzaXCFHGxZdcUVV8n8+fNlkinn2PILjQMLFy2U7t26mp0FFqg/qmh179nrFttjDtlwU6ZMMQstVvUM+g2Fv6uIzDNbMn799QTb44X3FBYL696ti90VAnw0uq19FyfRH4SdptPoo6ushhncmvhrePnTFfUugD9N+dVUxCFLE39tXkIeXf4JxOn1yWaRyMvMYpF4f44fP9asUr652Ur1YJlvvgcd2rfJSEDUNw4eNbqYVH/i9F+js1r9z0hsyB/t+1/7zQwJJuOyM7jj6oyadGp4IXBt/DU8kugYwo7Kc014kKGpF8Cf+87R4AYNujQJ5NTgRiUcC3+hsgsjEs4Zo1ioAZXWIIcK3LWNGngG9ysvvyQvvfTCGoumLV/+l12lHDJQ6LCaMLaqwfPY3gcrkaM3yzksCnPFlVfZLS5QCcfc65nGGB8z5os19h7FM1Hxx4cGw1SrmlWZsdf4HLOFF4wqDFF3aXQNBnHxdy9PLO52woknWVZLly61K7P7VwR16eAxvwTiKiz+2GFawEGmUadixYr2Mvakv+H65qLRH7+cKF3UlCWtLOcPWwadUru2NYJxbfr0aWYP7sftIoP4j32IsQcxGqywbgE+/D/+70fbM36f6Rn5/PPP4M06TdmExzS4FoVYNCcQe4vivVNUzmfIM08Ps4Yi/LiWcM1HFe+No2rUkHJbljMV0HF25An2JHc96BsKf8fs3XffNr1dJ9j8wlZBWCcDDY/OaXQ7ybtYqz8u/LSOGn10Brd/aGd2+HHx1/Dyy4x6Fzh/ceXXVcQfe+xRM+JrhHss8BgX/yR5GRgAL65TAhq9xsrhJ9Ws6b3/0dg6/JmnM97rLtJh3zh3P04Xk+qPRv/jdDaJ/rt0hB217/8k38ywsNx1bZ1Rm844XghXG38tjyQ6FpXn2vCQBsyZj6oXwI/7zmnqBpqyBJl0JAACOTW484G4UqVdbc8cerGiHLYCW7psqcw2vY9r47B656ablra968WV416eWADjn7//tos0YQV1/1yp4srmc+kTSPMlm4b+pJ/CIon4wFapWkUWLVwUqt+If9myW8q0aVNjoxFXNtPk6iKzyy6V7B7a6K1JyzVt1kIOP/yIjC0H05Ltl1OS+SOvdqm0i/wy5RdvJXh/3HGu1W3tuzhOf7LDX9v/aetjXPy1vLTp0uiPVhb8xcUffrR5Cb90+SGg1WvoT2UzhQb1EDS4ro3T6mLa+qPR2bB07bprZWlqtpyVjYJ9zJgxw24BG3w3/GrUN1MbZq7qjBpeUfEPT3XwnTR1LDiE4Ktp1Qu0ZSk4Fry6oREolsGNYZaYU/H9998LVjmlWzsC/pfnErMoCV3JJkD9z03+lFSuGMmy337720RvYRYOwl7jmCbQtUvH3IDIk9SSyj9POIQ88kWe4eaSAPVaRxdGGbaSDHOzZ8+Wp4c9GXa7WNe1YbLOWCy8qT/EspQ60oIWWCyDu6CJ5CFxjcziWtWrVzfzo9oKhpLTkQAJlBwCl5v5jIcfcYSN0F9//W1XK8fCQZMnf1tyIsmYkAAJkAAJbBAEWGfcILKZiSwwAjS4CyxDmRwSIAESIAESIAESIAESIAESIIGSQYAGd8nIB8aCBEiABEiABEiABEiABEiABEigwAjQ4C6wDGVySIAESIAESIAESIAESIAESIAESgYBGtwlIx8YCxIgARIgARIgARIgARIgARIggQIjQIO7wDKUySEBEiABEiABEiABEiABEiABEigZBGhwl4x8YCxIgARIgARIgARIgARIgARIgAQKjAAN7gLLUCaHBEiABEiABEiABEiABEiABEigZBCgwV0y8oGxIAESIAESIAESIAESIAESIAESKDACNLgLLEOZHBIgARIgARIgARIgARIgARIggZJBgAZ3ycgHxoIESIAESIAESIAESIAESIAESKDACNDgLrAMZXJIgARIgARIgARIgARIgARIgARKBgEa3CUjHxgLEiABEiABEiABEiABEiABEiCBAiNAg7vAMpTJIQESIAESIAESIAESIAESIAESKBkEaHCXjHxgLEiABEiABEiABEiABEiABEiABAqMAA3uAstQJocESIAESIAESIAESIAESIAESKBkEKDBXTLygbEgARIgARIgARIgARIgARIgARIoMAI0uAssQ5kcEiABEiABEiABEiABEiABEiCBkkGg2Ab3/tWry8IFC+XXX38pGSlhLEhgHRKg/ucGNrnmhqtWKvlnkiKPTB78VxgEqNeFkY9MRf4JsCzlPw/WlxgU2+B+5NGhMm7cWBl8x+3rS1oZTxJIjQD1PzWUGYLINQPHOv9D/pnIySOTB/8VBgHqdWHkI1ORfwIsS/nPg/UlBjS415ecYjxLFAG+ZHOTHeSaG65aqeSfSYo8MnnwX2EQoF4XRj4yFfknwLKU/zxYX2KQyOCuUKGCl67bbh8sEyaMlyGPPmyv/fPPP7Jo0SLvfrly5aVUqY29/zhZvny5LF261Lum8QPPGn8aP1pZWn9phpmmLMZ/tY6lyYL6n5vymzbXNPM8H7LWdZjkn6nXWh5pvrPTlLWu9UcbXtr+0mSWpixtOtMMUyNLq9clNf7aeGn9aZjlQ1Y+wkyTxYYQ/yRlCTzoSAAE1AZ3xYrbSf8BA0OpTZ78rfTv18e7f9vtd0iFClt7/3Hy/vvvypNPPO5d0/iBZ40/jR+tLK2/NMNMUxbjv1rH0mJB/c9N+c0F17TyHHLgNGVT40crS+svjTDJP1Ovk/BIgz/yGi5NWVp5aYaZpizGn98v6EB2fVGrF1p/aepsmrIY//T1H0zh0sinJN+IolD5SwJFBNQG9xZly0q9eqd73OrWrSfTp0+zvdy4OGfOHBk1coR3H37xjN/98P33dt63u6bxA78afxo/Wllaf2mGmaYsxn8sEHhOwzbOD/VfJBflNxdckfFx+an1o/WnCU8rS+svjTDJP1Ovk/BIgz/yGi5NWVp5aYaZpizGn98v6ED290arF1p/aepsmrIY//T1H0zh0sinJN+IolD5SwJFBNQGdzYwzlvIJsL/GxIB6n9ucptcc8NVK5X8M0mRRyYP/isMAtTrwshHpiL/BFiW8p8H60sMaHCvLznFeJYoAnzJ5iY7yDU3XLVSyT+TFHlk8uC/wiBAvS6MfGQq8k+AZSn/ebC+xKDYBveVV14tU6dNlREfvL++pJXxJIHUCFD/U0OZIYhcM3Cs8z/kn4mcPDJ58F9hEKBeF0Y+MhX5J8CylP88WF9iUGyDe31JIONJAiRAAiRAAiRAAiRAAiRAAiRAAvkgQIM7H9QZJgmQAAmQAAmQAAmQAAmQAAmQQMEToMFd8FnMBJIACZAACZAACZAACZAACZAACeSDAA3ufFBnmCRAAiRAAiRAAiRAAiRAAiRAAgVPgAZ3wWcxE0gCJEACJEACJEACJEACJEACJJAPAjS480GdYZIACZAACZAACZAACZAACZAACRQ8ARrcBZ/FTCAJkAAJkAAJkAAJkAAJkAAJkEA+CNDgzgd1hkkCJEACJEACJEACJEACJEACJFDwBGhwF3wWM4EkQAIkQAIkQAIkQAIkQAIkQAL5IECDOx/UGSYJkAAJkAAJkAAJkAAJkAAJkEDBE6DBXfBZzASSAAmQAAmQAAmQAAmQAAmQAAnkgwAN7nxQZ5gkQAIkQAIkQAIkQAIkQAIkQAIFT4AGd8FnMRNIAiRAAiRAAiRAAiRAAiRAAiSQDwI0uPNBnWGSAAmQAAmQAAmQAAmQAAmQAAkUPAEa3AWfxUwgCZAACZAACZAACZAACZAACZBAPgjQ4M4HdYZJAiRAAiRAAiRAAiRAAiRAAiRQ8ARocBd8FjOBJEACJEACJEACJEACJEACJEAC+SBQLIO7VKlNpNG1jWXa1Kny2muv5CPeDJME8kaA+p8b9OSaG65aqeSfSUrD49LLLpcKFbb2Hvzoow/l6wnjvf88IYG1JXDeeRfIDjvu6IkZO/Yr+fST0d7/pCcavU4qk/5JYEMkwLK0IeZ68dNcLIO7TJnN5N77HpAJpmIx6PaBoaGXLl1aqlSpKr///rvMmzc30B8UtmrVqrJw4UKZM2d2oJ98XdTGbY899pQ///xT5s79ba2iqg1vrQLJejhJmMjLP+b/IQtMWtfGacPU+tPERSNL4wdhafU/rXhp5CTxoymXTl5aee7kRR3T5BoVTi7vpclLk08aP9r0ps1fU57SjD/SqeWveWdrePTrP1C22WYbWbxokcX8/AvPyUcfjtIiz/Cn4ZXxQAp/kvDXsk0hWnkTkWYaNWw1fq6/oaXsvtvussmmm8oWW2whb735hgwf/nSxGWn0utjC+SAJbEAEWJY2oMxOIak5MbhRcbjqqqvlqBpHyyabbGKjOX36NBk27Cn5ZtJEL9qXXnq5HH/8CVK6TBl7bfbs2TL8mWGCFly/q1ChgjS4ppFUr36Avdyn983yww/f+71455Uq7Sqdu3SVRYsWS9s2Lb3rSU80cbvk0svk2GOPl80331z+/fdf+e23OfLkk08Uq4dDEx7SkIRFXJq1YSKdRx5ZQ8qXLy8rVqyQ2bNnydMmLydO/DouiDXua8PU+lsjgIALGlkaP050kpdslD4mCdOFHXTs1/9W2W677YNuWZ1s366Nvactl/CcZp4HRizgYhKuAY97lzQ86jdoKMcdd7z3jDtBw1nLG69zf9XHpLyi9EKTTxo/6siv8hjH/8YbW8mB/znIE7tkyRLBe/0FY2R+N3mydx0ncbqtjf9FF10idU6tmyEbfxYvXiTXtWjmXdfyhz/tOzuOBwKHwQ3Xvl1re4z6icrzOF5RcrPvafRfyx+ytWyz41Hc/5r4b4jl94gjjpQmTZuvU4P72sZN5aijasiTTwyV999/r7hZyudIoCAJaL4RBZlwJqpYBHJicGMIVL3TzzA92/Nk/PjxsvPOO0u1anubHuC50q1rZ1m+fJnUrl1HLr7kMpk/f76M+fIL2bZiRTnAGNSLFy+Wbt27eL2o++67n9RvcI1UrLid7QUvV66cDOjfV7799pvABLdq3dYa5o8NeURGjRoZ6CfuoiZuZ5xxlpxz7nnGoPnNpHGsHVZ44IH/MYb3SmPotzIGf1GPR1xYuK8JD/6SssAzYU4b5gUXXiR169azow8+//wz2ar8VlLj6GPkr7/+kttuGyA//e9/YUGscV0bptbfGgEEXNDI0vjxi07ykg3Tx6Rh+sPPPkelH+Xiyy8+926VKlXK5tOMGTOkS+cO9rqmXMJjmnnuRUhxkoRrlDgNj2OOPU72Nu8k5yput53ss8++MmvWLOnUsZ27rDoWh1eYXiBATT5p/Kgi7/MUxx8G9wHmHfeh6cEttfHGsudee8mOO+5kRi/Nk+7mnb3EvLvhNLqtjT++EZA39qsx9tvgoov3zxPGCIDT8k/6zo7jgbCTGNxhea7hhbC0TqP/Wv5attq4afxp4r8hlt91bXDvvsce0qFDZ5k5c6Z079ZZk3X0QwIbFAHNN2KDAsLERhLIicHd6+Y+1sju3q2LTJs21UagY6custde1WTQoIEywRjh7dp3tBXc2wYO8HpKmzW/Tg477HAZYozlD1cZy/CH515/7VWpsHUF0yN+YqjBDUOwYcNr5fvvv5N+fXtHJjzqpiZubdq2twYwwkF4cI0aNbZGzsMPPSCjR38cFUTGPU14eCAJi4wAAv5ow7yld1/ZYYcdbUPJjBnTraTLr7hKatY82c7ff+H55zKkb1G2rFfxzrhh/mjD1Ppz8tc2zKThaV+yUfqYNEyX1qBjUKX/tNNOl/MvuFDeffdtGfbUk/YxTbmEx6R5HhSn4lzTco2TreXh5OyySyVBecbwzjsHD5LJk791t1THpLyi9AIBavJJ40cVeZ+nOP7O4L6mwVXeU+69PthwG7dqZJJGt7XxxxzpWrVqy8CB/WXSxNWjo7wImBMt/6Tv7DgeiEOQrvnj5s6j8lzDy8nRHIPilP0+0PLXstXES+tHE3+/rA2l/K5rg7tVqzayv+kEuefuO2XMmC/9yHlOAiRgCGi+EQRFAo5ATgxutOQvW7bMvqhdQBdedLGceupp8sTjQ+WDD96TPn372wpu61Y3Oi9yrBni2cAM9YRx/fzzz9rrjZs0lXHjxsln//1Urq7fINTghuL37HWLHXLdr1/vRD2vXgRWnWji1qlzVztfsE3rlqbnfYF98tzzzpfTTz/TS2O23LD/mvDwrJZFWDj+65owYcjeMehOmTZ9utzUo6v3+N577y3tTcv3+PHjzP3bvOu1Tqkt559/oSxY8Kf06nmTx8V50IQJv1p/8JtGmEnCQ5ial2ycPiYNE+GGuWtMIxMcGnqc696jl1SqVEm6mZ6JmaaXG05TLpPmuQsvjaOGqyYcLQ/IKleuvNHljrZR6dFHH5ZPEjSU4fmkvOL0AjI1+aTxA1lJXBz/IIPbGcSPPvKQYMEwOI1ua+N/+eVXSs2Ta4U2sibhn/SdHccDaQ0yDnHd7+LyXMPLLy/uXKP/Gv5J2MbFKcl9TfydvA2p/P6fvTOP32ra/vhS3Ur3JQ26RRpJmUK5lCHXcFXKdKOJe6kUmatv8zzQpDQioVJUaJSkiULkikxpoOKqfNMkDfhRv/3Z2ud7nvOcc/Y6z/c8X/Gs/cdzhmedvdZ+n733OevsKS8d7nPU0BGMHf9MDRsbPvwRg1u2QkAIuAhwnhEucdnNcAJpcbj9mD7YrgOdfXZ11TXpt1ZvvKigW2DPHl0dcXRXbKfkgiYFCXO4TdfD15cuocmTJzlxprLDsQ3drNHdbvXqD+nZSRPolFOrEF4OCxTIT507dwxs5fWzh6PPe10YC6+s3zFHJyqTUaPH6knvunbp6ERTU/VCuEf1RsBX77FjRjnnTQs/Tvh1++foxLVcOcjGoTOKPujkVLK2/BhVJ/RyQ9Vq1ahTp660bt1aGjJ4YOhl3nIZ9Z6HRh7xTw7XiFFq8TAe9973ANWoUVN/PBozepSao+CXSCqi8rLliyDl3vvkJ8eR8bvOnLPx9zrc5ctXUGNK79bDfbLUfBlmMsVU87af/f/+z+10+eVX0Ny5c6hy5cr6A8m2bVtp9qyZephLFP5R62wbD3BDWhHCxnDb7nmqvLRixk9Y/ndf7uUfha07nrj3w+zPpPKblw53j569qVy58vSM+pCG4UmYewfD/yQIASGQQ4DzjMiRlr1MJ5AnDje607VSk55t3ryJBvTvq5mbl4xxTzymWnSy6IsvvtAtJKk43JhZFF0bMW4aLXoYS3jPvffTiSeeqMav5jj0UIwv4vnz50u47z/99BMdPHjQOce1reG119GNNzbSrfmFChXSjukTT4xNal236eTqcwxUO3E53Db+ffoOoPLly+tZURctXEil/lZKTYjXgqpWraZfeufOne2YVUbxvuyyy/WM9IsXLXTOmx1uOrlyiDcOnVH0QaetkuXkx6g6oZcbWre5i2qrCQsnqQ9By954PfAyv3IJ4Sj3PDDyFP6wcUWUtrLkpzaMR8+efahipUp0zDHH6PI7/5V5ugeOXzxB57i8OPnCT0fQfXLLcmTc8n77Nv5wuDFp2vbt2/UY7hIlS+pJFOfOmZ2wPGQqeTvI/ttub6HrFNiL8fXHH3+8nqQSw3gGDXxIJ4PLH8LcOhuyNh6QQVoRghxuzj1PhZdWyvwJy/8miiD+UdiauMK2Un5/e//xMgri75bLK4f7wgtrqd50ORMSwgZMlvrG60vVpLCT3SbJvhDIaAKcZ0RGA5LEJxBIu8ON5VceUC9qRIfVuOqBelZbWGBeMqZMnkgdVWvcV19tptmzZ6XUwo2xeWeccSa5J0rr3qOX7lLb9q7futuaVA9/dGTCuqk4v2TJIjULZ86DhGNbUfXih48IaLXfuPFLtTRMSSqiZivHjL0LF75m1OmtTSdHX0KE6iAuh9vGH70O2qqZUQsXLqxnBi6sWr3zq5nnMbldt66dk7qNe+10H3PTyZVzxx20z4mLI+OO31bJcvJjVJ1u/WH7mDF/6NDh9Msvv1AHNdwhqMU2qFwi7jjveZit3v9sXCFvK0veODk8UJYvUh8FMakWHO8uqjeHaa31xud3zOXFyRfe+MPuk5HlyBjZsK2Nv2nh1utMK05wJuEAf6ZavzDO03y0jJq3w+xv3LgpXaAcgBUr3iLMF4FuzllZnVTdXk47ubt372bn1yh1NjjZeEAGaUUIcrg59zwqL62Q+cPJ/2H8uXmbaY6UXzWrvzeE8XfL5pXD3aVrdz3JLVaLgZONj9qYR6GUmlgSLd5vHRk64rZN9oVAJhLgPCMykYuk2Z9AWh1uvBS1a99Bt0o9/fR4PQ7bmGFeMtCl/KSTytLu3bvUrLenpeRwj39qgnLktyiH/rcWD+jAGDWMYfU63A0aNNQvbcYObDesX6+7hptzHNuwPEfNmufTtGnP05LFiwgvc+jeDMd/2CNDaM2az0x0ZNPJ0edEdmQnLoebw79ixUp0Xo0aVLx4CSqqZsNGK9fC1xbotHvtCjvmppMrF6bL/MeJiyNj4sPWVsly8mNUnW79Yfv16l9DcFKWL3+DJk54xlc0rFyaC+K65yY+ztbGFXHYypJXD4eHuQa9YlCmMUwi6iRBHF6cfGFswZZznzgy7jjD9m38jcNtJk3D0lKt29xJcATcY7ij5O1U7L9B9Sq67rrrE5Yq4vCPUmeDk40HZJBWhCCHm3PPo/DSyiL82PI/hz+HLdckKb+JpDj8zRV55XA/9viT6oPt/xHmp8GwPwTMlYKl6zDHxVOuuUKMbbIVAplIgPOMyEQukmZ/AmlzuLEucIesjnp83/NqbWpMlOYOgwY/oteudo8NxgzlmKn81fmv0IsvTneL6/0gJxMvNRhn5A1YfszrcHtl/I5tts2cOYMeHTFSLwnWv18fJwoso9GjR2/dNR4voNxg0xeFRTp1lix5gupu3E8/hNFV37Roxa0zFR5BNnDi4si447dVspz8GFWnW3/Yfq/efXXL40MD+qqeFxuTRG3l0ntBbu+5N76wYxvXsGuD/gvigWUL9+7dS2+qJa5MaHSTWs6wwbW5asUJ48XJF8YWzn3iyJj4OFsbf6/DjTjPPa8G3X//g/TOirdp/PhxWg03b6dqf9269alJ02b6GYFnhTsE8cfHgah1to0H9HIcbtuzicvLnU7uflD+x/VR+Qex5dqSilyQ/ZlYfvPC4UbDwaOPjtK99h4a0M+5ZZivoU/f/vTpJx/LJGoOFdnJdAKcZ0SmM5L05xBIi8NdrFgx1cLcicqWLUszXnqR5s+fl6PxyB5mjEVXqoEPD1Djtzfos1jS66KLL9EvbniB84Ygh7tp0+ZqsrICCeLnqYmQihQ5NiWH22bbeytX0shRY+jQoV9Vy0aW43ia9VRXKNufOvLymWBUwIFNXxQWASqSTqeis82dbalWrdo0depztMjTbR4KcN9r175YfYjYTu+rtdW9gauTKxeXzij6oNNWyXLyY1SdmDCqvlrqC2xfmD7Ni1YfY637zl260eZNm6h//z5JMpxy6b3Ids+98rk5tnGNGncYDzg56A7dqWMHZ1gE7smpavLDXj27O8sZGp0c/pAN48XJF4iDc584MogrSrDx93O4m6i6t27derR0yWJnXWxO3uba36z5LVTl1NMIPaS2HOmOe5+a6A71+7hxjyf0mkJag/jD4Y5aZ9t4QJ/N4ebccw4v6DKBmxfD8j+Xv9GJbRBbI4PeXVde9U/9IX2imvF/n5pTJTchzP5MLL954XDjfiFPFy9eXA8Z27HjO30LzSozQY0hubnPcq0Q+KMS4Dwj/qhpE7vjJ5AWhxtd9/Bw2LVrl57d0m32hg3rdQuwWRd0544dhLFCxUuUoOrVz1ETkB2k7t26OA/r+vUb6MnPEEd5NWYQE3hBfr96mO/cuZPmzJnljt7ZDxrD7QiE7HBsMy99W9WSS2s/X6O7lOOFA2OdH398LK3ycTiDVHL04dpUWfjp5eo01yJt7dS6nHjp7dM7Z4kw8z+2LdSSbpeqpd0OHz5Mfi2sXJ1cubh0RtEHnalUst78GFWnedmFfix7t27tWuwmBPPB6oXpU2nBglcT/sMBp1y6L+Lcc7d8bvdT4RqmM4yHmYwLQ1E+V8M/Ti5XTk8EiPwNh9sbOPxT4eXNF9DLuU8cGW8abMc2/nC4MZxk2bI3KJ8aw41ZjMtXqKAnVBqu1slet26dVsHJ21z7zfJE27Zto09U61rp0qXpzDPPooMHDlCv3j0Sxtrb+Eets208kFibw+3H3HvPObzc8XDyIuTD8j+Xv9FrYws5s4Tbpk0b1bKQfcylKW/D7M/E8ptXDneTJs2obr36elZyzNeAd7Nq1U6nn9XkssOHD/XtOZXyTZYLhcAfmADnGfEHTp6YHjOBtDjcWF4EzrNfeOutN+kZ1VqBgDVc69T5h16P+9ChQ3oWWiyxhRloTTCTzphj93bz5s3Ur28v9ylnH60GGB91d9vESdMcAcuOzTYUtBYtW+lJ0zAxDZxMfGB4+eU5tFy9kEYNNn2IL1UWQbZwdJprTSvMmNEj9QcPc969vf6GG9XYyhv0rO39+vWmbDWrsDdwdXLl4tLJ1Yf0pFLJ+uXHKDrN7MoHDuzXDiEmi/KGUaMfo3z58lFHtUSTX3d/brk08XLuuZGNY5sK1zC9Nh6Yvfncc8/Ts15jkjmsojD+yXG6F4E3Xg7/VHj55QvOfeLIeNNgO7bxx7q84GUCxndmZ2fT/FdeppUr3zWn9daWt6PYj67+NWv+XTvbxyhHf/v2bJo+bWpSPWTjH7XOtvFAQlNxuP3uuY2XGy4nL0I+LP9H4Y+4bGwh07NXH6pUqTJhCNnixcmrVEAmSgizH/FkWvnNK4cbbNGz5MILaumGBLyb4VmO+Wrw0UuCEBACvxHgPCOElRAwBNLicJvIOVt09UOr9Z49u9XEaclOBCeOdMlwbcP4JszavXPnjlyZwtWXKyWei+PWWbpMGdVF94fQdci5Orlycenk6ouzkuXqxG3jpNNze/9Qh3FyjZJwOAnZyonDcoJhQfiH0Un+L0reTr46+Qwm18SHETjcuQ2cOpuTH03326+//kqbhGXlPvhgVUrmReF1tOVFfHQeMXKM7nnQqVMHZ7KtlEBEvOjPXn5btGhFZdUEsOg9hzKw4NX5epnOiJgccU6+NsLoxbJv3w9H3buZsU+2QuD3JBClLP2edoruo4NASg53wYIF9dfs9Wp278nPTjw6UiJWCIE8IiD5Pz2ghWt6uHJjFf6JpDg82qthNuhya8K8eaq1/913zGHGbGvXvki3OC9duoSmTJ6UMenOi4TeoVY/qaCGbpiAiR69S4+a/zhbTr7mxCMyQiDTCUhZyvQcEC39KTnc0VSItBAQAkJACAgBIfBnJQCHGxPZzZo1g7apeU0kCAEhIASEgBAQAjkExOHOYSF7QkAICAEhIASEgBAQAkJACAgBISAEYiMgDndsKCUiISAEhIAQEAJCQAgIASEgBISAEBACOQTE4c5hIXtCQAgIASEgBISAEBACQkAICAEhIARiIyAOd2woJSIhIASEgBAQAkJACAgBISAEhIAQEAI5BMThzmEhe0JACAgBISAEhIAQEAJCQAgIASEgBGIjIA53bCglIiEgBISAEBACQkAICAEhIASEgBAQAjkExOHOYSF7QkAICAEhIASEgBAQAkJACAgBISAEYiMgDndsKCUiISAEhIAQEAJCQAgIASEgBISAEBACOQTE4c5hIXtCQAgIASEgBISAEBACQkAICAEhIARiIyAOd2woJSIhIASEgBAQAkJACAgBISAEhIAQEAI5BMThzmEhe0JACAgBISAEhIAQEAJCQAgIASEgBGIjIA53bCglIiEgBISAEBACQkAICAEhIASEgBAQAjkExOHOYSF7QkAICAEhIASEgBAQAkJACAgBISAEYiOQksOdP38Bat3mTvrmf/+jefPmxmaMRCQE/ggEJP+n5y4J1/Rw5cYq/BNJcXg0v+VWKlasuHPhm28up08+/sg5lh0hkBcEGjW6mUqXKeOo+vDDD+idFW87x+4dtrW8vgAALSpJREFUTr52y8u+EBAC/gSkLPlzkbP+BFJyuAsVKkyPP/EkfaxeLEY8Osw/ZnW2YMGCVKFCRdq1axft3LnDVw4ZtmLFivTDDz/Q9u3ZvjK/10mubaeccip9//33tGPHd7kylasvV0o8F0fRiXu5e89u2qvSmpvA1cmV49jCiYsjA13c/B+XXZx4/gwycXL9vXhwy0hcdUac6YybP6c8cZ4RUdIYJ38Oj8FDhlGJEiVo/7592swZM1+iN5cvi2KyI8vh5QjLzu9KIM58FkdC7n+gHVWuVJkK/OUvVKRIEVrw6nx64YVpvlFz8rW5kJtOIy9bIZBJBKKUpUziImn1J5AWhxsvDrfddjvVqn0RFShQQGvesuUbmjr1eVrz2aeOJc2b30p16lxGBQsV0ueys7PphelTCV9n3aFYsWLUslVrOuuss/XpgQ8PoA0b1rtFnP2TTy5H3Xv0pH379lPHrHbO+ag7HNuaNb+FLrmkDh177LF0+PBh+u677fTcc1NSauHg6EMaorCwpZmrE+m88MLaVLRoUfr1118pO/tbmqbu5aeffmJTkfQ/VydXLkmBzwlOXBwZE3WUSjYsP0bRaXT7bQcPeYRKlfqb3186T3bulJX0X5hdUeNrc2dbqlWrNj035VlasmRxki7uiShcw+Lk2N+i5R106aV1kqLBh7N2D96XdN52gltGOHUGx37YE2ddgPhs/B98sD1VP+dciOpw4MABQr0+UzmZ69auNaf11pa3uc+IJk2aUd169RPixsH+/fvovnvvds7Hyd9EauMBOTjcCJ07ddDbsJ+wMmfjFRav9z9u/jHXhdkVNa646gJjW9CWa9fRWs659iP9Ucr5BRdcSHe1vSfXDje3PAXdHzkvBDKBAOcZkQkcJI08AmlxuNG9qUHDa1XL9k766KOP6KSTTqLTTquqWoB3UK+e3emnn36kq6+uS02b3UJ79uyhVe//l0qecAKdrRzq/fv3U6/ePZxW1NNPP4NatGxFJ5xQSreCH3fccTR0yCD6/PM1vils36GjdswnTXyGli17w1fGdpJj27XXXk83/quRcmi+U2n8UHcrrF79HOV4H1KOfnvl8P/W4mHThf85+iAXlQWuCQpcnTc3bkL16zfQvQ/ee28lHV/0eKp90cX0888/0/DhQ2njl18GqUg6z9XJlUtS4HOCExdHxh11lEo2KD9G1enW793HSz/Kxfv/fc/5K3/+/Po+bd26lXp07+KcNztBduH/KPFVPuUU6tKlO23bto169+puok9pG4VrmAKO/RdfcilVVXWSCSeUKkXVqp1O3377LXXr2smcZm25ZYRbZ3Dsj7MuMIm08YfDfbaq45arFtz8+fLRqVWqUJkyJ6reSzupt6qzD6i6G4GTtznPCMSFZwTi+/CDVfrZgHMIqH+mqA88CHHz15GqHxsPyOFeIXAc7qAyx+GllTB/OPnHHVWQXZCJElecdYHbPr99rl1Haznn2h+1nMfhcHPLk999kXNCIJMIcJ4RmcRD0hpOIC0Od/8BA7WT3btXD/rmm/9pC7p260FVqpxGI0YMo4+VE96pc1f9gjt82FCnpfTue+6j88//O01UzvLyI84y5HDdK/NepmLFi6kW8X8EOtxwBO+4ow2tX7+OBg96ODzlIf9ybMvq2Fk7wNADfQitW9+pnZynn3qS3n77rRANiX9x9OGKKCwSNSQfcXU+9PAgKl26jP5QsnXrFh3Rrf++ja644ko9fn/mjJcSIi/y1786L94Jf6gDrk6unIk/tzqj6uNWsmH5MapOk1a/LV7eENwv/ddc05BuurkxLVr0Gk19/rmEy8LsgmCU+Nq3z6Iz1Yeyx8aOplWr3k/QE/WAy9UWbxT7EVfZsicTyjO6N48eNYLWrv3cpiLhf24Z4dYZHPuRf7j1YoKxIQc2/sbhbtXyNicWU6+PUtxWH+mZxMnbnGcElGCM9FVXXU3Dhg2hzz7N6R3lGKB24uZv4rbxgJzfvTLXu7dhZY7Dyx2Xbd/PpqD6IMwu6IkSV5x1QZxpNHEdTeWcyzVqOY/D4eaWJ8NVtkIgUwlwnhGZykbSnUwgLQ43vpj/+OOP+iXcqGzcpCnVq3cNTZn8LC1dupgGDhqiX3A7tH/QiNAlqotnS9XVE871jBkv6vN33tWWVq9eTSvffYdub9Ey0OFGxu/X/yHd/Wrw4Icjtbw6BhzZ4djWrXtPPT49q0M71fK+V1/5r0Y3UcOG1zlp9MYbdMzRh2u5LIL0uM9zdMKRHTliNH2zZQv17dPTubxq1arUWbVqfvTRavX/cOf8Vf+8mm66qTHt3fs99e/X1+FiBDg6IcuVg2wcOqPog05OJWvLj1F1Qm9QaKU+MiHgQ48Jvfv0p5NPPpl6qVbnbaqV2wSbXZDjxneO6l6MsYOfqaEFw4c/YlSkvOVw5UTOtR9xHXdcUZWXu+qPShMmPE0rInwow/VRygi3zuDYH2ddgHQg2Pj7OdzGIZ7wzFOECcMQOHmb84xAXLfe+h+64sqrAj+ypoM/9CLYeEDGz3HCeXewlTkOL3d8tn1O/kEcNrsgw40r7roAusMC1y4Tx9FWzrn2Ry3nuXW4o5Qnw1a2QiBTCXCeEZnKRtKdTCAtDneyGqIH23Wgs8+urrqd/tbqjRcVdAvs2aOrI47uiu2UXNCEH2EOt+l6+PrSJTR58iQnzlR2OLahmzW6Xq1e/SE9O2kCnXJqFf1yWKBAfurcuWNgK6+fPRx93uvCWHhl/Y45OlGZjBo9Vk9617VLRyeamqoXwj2qNwJaNMeOGeWcNy38OOHX7Z+jE9dy5SAbh84o+qCTU8na8mNUndDLDVWrVaNOnbrSunVracjggQmX2exKED5yEBRfj569qVy58vSMcrbQhR3zM2CISKqBwzWVuIPsR1z33vcA1ahRU388GjN6lJqj4JdIKqKUkVTrjDD7YWxu6wKTYBt/r8NdvnwFNV70bj3cJ0vNl2EmU0w1b3ufEbDr3/+5nS6//AqaO3cOVa5cWX8g2bZtK82eNVMPc0knfxsP2Ie0Irh7l+gTrh9bmUuVl0tF6G5Q/rHZ5RdpUFxx1wV+usPOBdllrjnay7nNfqSDU85z63BHKU+GrWyFQKYS4DwjMpWNpDuZQJ443Oi21kpNerZ58yYa0L+vtsK8ZIx74jFq3yGLvvjiC91CkorDjZk00bUR46bRooexhPfcez+deOKJavxqjkMPxfjSnT9/vgQSP/30Ex08eNA5x7Wt4bXX0Y03NtKt+YUKFdKO6RNPjE1qXbfp5OpzDFQ7nIevW967z9XZp+8AKl++vJ7xdNHChVTqb6XUhHgtqGrVavqld+7c2U7UZRTvyy67XM9Iv3jRQue82eHq5Moh3jh0RtEHnbZKlpMfo+qEXm5o3eYuqq0mLJykPgQte+N15zKOXY6wa8cvvgsvrKV6XORMWgVxTKj3xutL1cSBk11X83dtXBGTrSz5afOz38j17NmHKlaqRMccc4wuv/Nfmad74Jj/OdsoZYRbZ7j1htkPudzWBUaXjT8cbkyatn37dj2Gu0TJkvqez50zO2F5yFTytt8zAnbddnsLXadgH+Prjz/+eD1JJYbxDBr4EE5TuvjbeEA30ooQ5HBzylwqvLRS5o9f/uHY5Re9X1zpqAuilnM/u9z2H+3l3GY/0sIp57l1uKEnSnmCvAQhkKkEOM+ITGUj6U4mkHaHG8vfPKBe1IgOq3HVA/WstjDDvGRMmTyROqrWuK++2kyzZ89KqYUbYyPPOONMck+U1r1HL92ltu1dv3W3NUkf/uhIPcGZOcZ2yZJFaoblHCeBY1tR9eKHjwhotd+48Uu1NExJKqJmK8eMvQsXvuaOnmw6OfoSIlQHnIev9xr3MVcneh20VbOeFi5cWM8MXFi1eudXM89jcrtuXTsndRt36/Duc3Vy5bzx+x1z4uLIuOO2VbKc/BhVp1t/2D5mzB86dDj98ssv1EENd3C32HLs8sYdFF+Xrt31RIhYUQBONj58YKxtKTX5GFq83zrSvdgbX9ixjSuutZUlb/xB9rvlUJYvUh8FMakZHO8uqjeHaa11ywXtc8tIlDrD6OLYn9u6wOiy8Tct3HqdacUJThsc4M9UzwaM4TcfLaPm7aBnBOxq3LgpXaA+7qxY8RZhvgh0ec3K6qTq9nLayd29e7eeyI1TR0Xlb+MB+5BWhCCHm1PmovLSCpk/QfmHY5dXRVBc6agLopTzILu89h+t5ZxrP6ecx+Fwc+szL185FgKZRoDzjMg0JpLeYAJpdbjxUtSufQfdKvX00+P1OGxjinnJQJfyk04qS7t371Kz3p6WksM9/qkJypHfohz631o8oANjBDGG1etwN2jQUL+0GTuw3bB+ve4abs5xbMPSGzVrnk/Tpj1PSxYvIjzM0b0Zjv+wR4bQmjWfmejIppOjz4nsyA7n4eu9xn0cRWfFipXovBo1qHjxElRUzYaNVq6Fry3QaXfHadvn6uTK2fThf05cHBm3Llsly8mPUXW69Yft16t/jXZSli9/gyZOeCZBlGNXwgXqICi+xx5/Ujn1/0eYwwBDQxAwnh7LG2Ec9FOu8eT6T8aPjSuisJUlr5og+71yOEavGJRpDJOIOgEcp4xEqTOMfRz7c1sXGF02/sbhNpOmYWmv1m3uJLzku8dwR8nbYc8IY5d3e4PqVXTdddcnLEOXDv42HrALaUUIcrg5ZS4KL60swk9Q/uHY5VUTFFc66oIo5TzILq/95vhoK+dc+znlPA6HG5w45cnwlK0QyFQCnGdEprKRdCcTSJvDjXWBO2R11OP7nldrU2OiNHcYNPgRvXa1e2wwZijHTOWvzn+FXnxxultc7wc9cPDygDGk3oDlx7wOt1fG79hm28yZM+jRESP1kmD9+/VxosCyKD169NZd4/ECyg02fVFYpFNnyZInqO5m/bSDha76pkUrbp2p8AiygRMXR8Ydv62S5eTHqDrd+sP2e/Xuq1seHxrQV/W82JggyrEr4QJ14BcfPi49+ugo3bPjoQH9nEswprdP3/706ScfpzSJmo2royjCjp/9uBzLFu7du5feVEtcmdDoJrWcYYNrU26hRzxBZQTOaSp1RpD9xmZsg+pFtwxn38bf63AjznPPq0H33/8gvbPibRo/fpxWw83btmdEkM1169anJk2b6WcEnhXuECd/Gw/o5TjctmcTl5c7ndz9oPxztNcF3PRBLiiN+O+PUM7D7EcaTOCU87gcbqMzqDyZ/2UrBDKZAOcZkcl8JO2JBNLicBcrVky1MHdSy+2UpRkvvUjz589L1KqOMGMvuhIOfHiAGr+9Qf+PJb0uuvgS/eKGFzhvCHrgNG3anAqobs7ucJ6aCKlIkWNTcrhttr23ciWNHDWGDh36VbVsZDmOp1lPdYWy/akjL59um4L2bfqisAjS4T2fis42d7alWrVq09Spz9EiT7d5xI/7Xrv2xepDxHZ6X62t7g1cnVy5uHRG0QedtkqWkx+j6sSEUfXVUl9g+8L0aV60+hhr3Xfu0o02b9pE/fv3SZLh2OW+KCw+OBrFixfXwwp27PhOX2ZWIgj6YOaO22/fxtXvmrBzYfbDyUF36E4dOzjDInBPTlWTH/bq2d1ZztDEz+EP2aAyAoc7ap0RZr+xC9ugetEtw9m38fdzuJuourdu3Xq0dMliZ11sTt7mPCNgc7Pmt1CVU08j9JDasuUbnYz71ER3qN/HjXs8odcU/oyTv40H9Nkcbk6Z4/CCLhO4eTEs/3DsMvqwDYsral2AXmBXXvVP/cF9oloZYJ+aeyXVEGYX4oxSzrlcEW9c+cxmP3SZwCnncTvcQek0NslWCGQyAc4zIpP5SNoTCaTF4UbXSVT8u3bt0jMXu1Vu2LBetwCbdUF37thBGAdavEQJql79HDUB2UHq3q2L8xCuX7+BnvwMcZRXYwYxgRfk96uH9M6dO2nOnFnu6J39oDHcjkDIDsc289K3VS25tPbzNbpLOV4kMNb58cfH0iofhzNIJUcfrk2VhZ9erk5zLdLWTq25jJfePr1zlggz/2PbQi3pdqla2u3w4cPk18LK1cmVi0tnFH3QmUol682PUXWaFx/ox7J369auxW5CMB+sXpg+lRYseDXhv6ADr11uubD4mjRpRnXr1dezkmNML8pvtWqn089qAsLhw4cmta674w3aT4VrUFw4H2a/mYwLQ1E+V8M/Ti5XTk8EiPwNh9sbOPxtZSRqnRFmf5x1gUmrjT8cbgwnWbbsDcqnxnBjhvryFSroidOGq3Wy161bp6Pi5G3OMwKRmeWmtm3bRp+onhOlS5emM888iw4eOKBaNnskjLWPm7+NB+yzOdyQ8QZvmePwcsfByYuQD8s/7vjMvtcucx7bsLii1gVmqbdNmzaq5SP7uNVE3g+zC5FFKedcrnHmM5v9Uct5nA63LZ2Rb5ZcIAT+ZAQ4z4g/WZIlObkgkBaHG8u7wHn2C2+99SY9o1orELCGa506/9DrcR86dEjPQosltjADrQlmchdz7N5u3ryZ+vXt5T7l7KPVAOMD726bOGmaI2DZsdmGgtaiZSs9aRomPYGTiQ8ML788h5arF9KowaYP8aXKIsgWjk5zrWmFGTN6pP7gYc67t9ffcKMaW3mDnrW9X7/elK1mFfYGrk6uXFw6ufqQnlQqWb/8GEWnmd36wIH92iHEZFHeMGr0Y5QvXz7qqJZo4nb397PLxGuLD62PF15QS39sQvnF/cacBnCMUgmpcA3TY7MfMwOfe+55etZrTDKHVRTGPzlO9yLwxsvhbysjUeuMMPvjrguQXht/rLkOXiZg7H52djbNf+VlWrnyXXNab215m/uMQGTo6l+z5t+1s32McvS3b8+m6dOmJtVDcfO38YBtqTjcfmXOxgu6TODkRciG5R8Tl3vrZ5f53xZXlLqgZ68+VKlSZcJQs8WLk1ezMDo5W5tdiINbzrlc48xnNvujlvM4HW5bOjn3R2SEwJ+ZAOcZ8WdOv6QtGoG0ONxRTEBXS7Ra79mzW02cluxERIkrblmubRi7ilm7d+7ckSsTuPpypcRzcdw6S5cpo7ro/hC6DjlXJ1cuLp1cfXFWslyduG2cdHpub54coqVz374fcl1+4+QaJeF4+c9WThyWEwwLcfKPq84Iszfqf3Hzj5K3ObZick18GIHDndvA4c/hYbpTf/31V9okLCv3wQerUjIvCq8482JKxgZcZKsL8HF6xMgxuodCp04dnAkXA6KL9TSnnMfNlZPP4khkixatqKyaJBY97FBOFrw6Xy/l6Rc3J1/7XSfnhIAQSCQgZSmRhxyFE0jJ4S5YsCDhK/V6Nbv35GcnhmuQf4XAn4yA5P/03FDhmh6u3FiFfyIpDo/2apgNhlOYMG+eau1/9x1zKFsPgdq1L9ItzkuXLqEpkyd5/pXDVAncoVZIqaCGd5iAySC9y5Oa/zj52sjKVggIgWACUpaC2cg/yQRScriTo5EzQkAICAEhIASEgBAIJgCHGxPezZo1g7ap+U8kCAEhIASEgBDIBALicGfCXZY0CgEhIASEgBAQAkJACAgBISAEhECeExCHO8+Ri0IhIASEgBAQAkJACAgBISAEhIAQyAQC4nBnwl2WNAoBISAEhIAQEAJCQAgIASEgBIRAnhMQhzvPkYtCISAEhIAQEAJCQAgIASEgBISAEMgEAuJwZ8JdljQKASEgBISAEBACQkAICAEhIASEQJ4TEIc7z5GLQiEgBISAEBACQkAICAEhIASEgBDIBALicGfCXZY0CgEhIASEgBAQAkJACAgBISAEhECeExCHO8+Ri0IhIASEgBAQAkJACAgBISAEhIAQyAQC4nBnwl2WNAoBISAEhIAQEAJCQAgIASEgBIRAnhMQhzvPkYtCISAEhIAQEAJCQAgIASEgBISAEMgEAuJwZ8JdljQKASEgBISAEBACQkAICAEhIASEQJ4TEIc7z5GLQiEgBISAEBACQkAICAEhIASEgBDIBALicGfCXZY0CgEhIASEgBAQAkJACAgBISAEhECeE0jJ4c6fvwC1bnMnffO//9G8eXPz3GhRKAR+TwKS/9NDX7imhys3VuGfSIrDo/ktt1KxYsWdC998czl98vFHzrHsCIG8INCo0c1UukwZR9WHH35A76x42zl273DytVte9oWAEPAnIGXJn4uc9SeQksNdqFBhevyJJ+lj9WIx4tFh/jGrswULFqQKFSrSrl27aOfOHb5yyLAVK1akH374gbZvz/aV+b1Ocm075ZRT6fvvv6cdO77LlalcfblS4rk4ik7cy917dtNeldbcBK5OrhzHFk5cHBno4ub/uOzixJMOGU75jVNvnFzjtIsbFzf/cOW4euOSi5s/J51x5zFuHcWpszk8Bg8ZRiVKlKD9+/bp2zBj5kv05vJlKd0SDq+UIo7horjvUwwm/W5RcO8TVy6OhNz/QDuqXKkyFfjLX6hIkSK04NX59MIL03yj5uRrcyG3PBl52QqBTCIQpSxlEhdJqz+BtDjceNDcdtvtVKv2RVSgQAGtecuWb2jq1OdpzWefOpY0b34r1alzGRUsVEify87OphemTyV8nXWHYsWKUctWremss87Wpwc+PIA2bFjvFnH2Tz65HHXv0ZP27dtPHbPaOeej7nBsa9b8Frrkkjp07LHH0uHDh+m777bTc89NSamFg6MPaYjCwpZmrk6k88ILa1PRokXp119/pezsb2maupeffvqJTUXS/1ydXLkkBT4nOHFxZEzUUSrZsPwYRafR7bcdPOQRKlXqb35/6TzZuVNW0n9hdnHLr4k0LC4jw9lG4RoWX1QecdjPvZdcOZM+jm0cGRNf2NbG/8EH21P1c851ojhw4AChXp+pnMx1a9c657FjSyc3jzVp0ozq1qufEDcO9u/fR/fde7dznltHRamzbTygHA43QudOHfQ27CfsPtl4hcXr/S/O/M+9T8aGsDQamTi2UdMInXHYxr1PXLkodnHsv+CCC+mutvfk2uHmlqc47qXEIQT+qAQ4z4g/atrE7vgJpMXhRvemBg2vVS3bO+mjjz6ik046iU47rapqAd5BvXp2p59++pGuvrouNW12C+3Zs4dWvf9fKnnCCXS2cqj3799PvXr3cFpRTz/9DGrRshWdcEIp3Qp+3HHH0dAhg+jzz9f40mjfoaN2zCdNfIaWLXvDV8Z2kmPbtddeTzf+q5FyaL5TafxQdyusXv0c5XgfUo5+e+Xw/9biYdOF/zn6IBeVBa4JClydNzduQvXrN9C9D957byUdX/R4qn3RxfTzzz/T8OFDaeOXXwapSDrP1cmVS1Lgc4ITF0fGHXWUSjYoP0bV6dbv3cdLP8rF+/99z/krf/78+j5t3bqVenTv4pw3O0F24X9O+TXxYBsWl1vOth+Fa1hcUXnk1n7uveTKudPGsY0j444zaN/GHw732aqOW65acPPny0enVqlCZcqcqHov7aTeqs4+oOpuBE46uXkMzwjE9+EHq/SzwdiO+mfKlGf1IbeOilpn23hAeRSHO+g+cXiZdHO2ceZ/7n0ydgWl0fwf1zZqGqE3t7Zx7xNXzrDg2sWRi8Ph5pYnY79shUCmEuA8IzKVjaQ7mUBaHO7+AwZqJ7t3rx70zTf/01q7dutBVaqcRiNGDKOPlRPeqXNXqlbtdBo+bKjTUnr3PffR+ef/nSYqZ3n5EWcZcrjulXkvU7HixVSL+D8CHW44gnfc0YbWr19Hgwc9nJxa5hmObVkdO2sHGHqgD6F16zu1k/P0U0/S22+/xdRGaWFhU85JI+J46OFBVLp0Gf2hZOvWLTraW/99G11xxZV6/P7MGS8lqCry1786L94Jf6gDrk6unIk/tzqj6uNWsmH5MapOk1a/rd9L/zXXNKSbbm5Mixa9RlOffy7hsjC7IMgpvyZCW1xGjrPlcrXFFYVHHPZz7yVXzqSPYxtHxsRn29r4G4e7VcvbnKhMvT5q1AhafaRnEied3DyGMdJXXXU1DRs2hD77NKd3lGOA2uHWUVHrbBsP2OCX19y2mf2w+8ThZeLhbP1sCqoPwuyCLu59gqwtLsjEFaKkETrjsI17n7hyUezi2h+Hw80tT3HdS4lHCPxRCXCeEX/UtInd8RNIi8ONL7E//vgjPTZ2tGNx4yZNqV69a2jK5Gdp6dLFNHDQED3Gu0P7Bx2ZSy6tQy1b3qGd6xkzXtTn77yrLa1evZpWvvsO3d6iZaDDjYzfr/9Dusv14MEPR2p5dQw4ssOxrVv3nnp8elaHdqrlfa++8l+NbqKGDa9z0uiNN+iYow/XclkE6XGf5+iEIztyxGj6ZssW6tunp3N51apVqXOX7qplf7X6f7hz/qp/Xk033dSY9u79nvr36+twMQIcnZDlykE2Dp1R9EEnp5K15ceoOqE3KLRSH5kQ8KHHhN59+qsulCdTr17daZtq5TbBZhfkOOUXcpy4IMcNHK6cuLg84rKfey+5ckgjxzaODIeXkbHx93O4jUM84ZmnCBOGIXDSyc1jt976H7riyqsCP7JGqaOi1tk2Hkirn+OH8+5gu08cXu74bPtx5n/ufbKl0WZz1P+5aUS8cdnGvU9cOa5dXDmkNbcOd5TyBH0ShEAmE0DZ5MxnlcmMJO05BNLicOdEn7P3YLsOdPbZ1cm0euNFBd0Ce/bo6gihu2I7JRc04UeYw226Hr6+dAlNnjzJiTOVHY5t6GaNrlerV39Iz06aQKecWoXwcligQH7q3LljYCuvnz0cfd7rwlh4Zf2OOTpRmYwaPVZPete1S0cnmpqqF8I9qjfCqlXv09gxo5zzpoUfJ/y6/XN04lquHGTj0BlFH3RyKllbfoyqE3q5oWq1atSpU1dat24tDRk8MOEym10Jwq4Db/nFX6nG5Yo2YZfDNeEC5kEQj7js595LrhySxbGNI8NEpMVs/L0Od/nyFdR40bv1cJ8sNV+GmUwxSjrd9vnlsX//53a6/PIraO7cOVS5cmU1dKIobdu2lWbPmqmHuUSpo6LW2TYesB1pRQgbw227T6ny0ooZP3Hnf7/7ZEsjw8xciQSlEZHGZRv3PnHluHZx5ZDW3DrcUcoT9EkQAplMgPOMyGQ+kvZEAnnicKM7VCs16dnmzZtoQP++2gLzUBr3xGOqRS2LvvjiC91CkorDjZk00bUR46bRooexhPfcez+deOKJavxqjkMPxXhhy58/XwKFn376iQ4ePOic49rW8Nrr6MYbG+nW/EJq4jfMxv7EE2OTWtdtOrn6HAPVTlwOt41/n74DqHz58nrG00ULF1Kpv5VSE+K1oKpVq+mX3rlzZztmlVG8L7vscj0j/eJFC53zZoebTq4c4o1DZxR90GmrZDn5MapO6OWG1m3uotpqwsJJ6kPQsjdedy7j2OUIu3b8ym+qcbmiTdq1ccUFtrKUFKk64ccjTvu595Irx7GNI+PHIuycjT8cbkyatn37dj2Gu0TJknoSxblzZicsD8lNp9sWvzyG/2+7vYWuU7D/7bff0vHHH68nqcQwnkEDH8JpilJHcetsxGvjARmkFSHI4ebcp1R4aaXMnzjzv9994qSRaaojFrWc+6URkcVpG/c+ceS4dnHlDLjcOtyIJ0p5MnplKwQykQDnGZGJXCTN/gTS7nBj+ZUH1Isa0WE1rnqgntUWppiH0pTJE6mjao376qvNNHv2rJRauDE274wzziT3RGnde/TSXWrb3vVbd1uT/OGPjkxYNxXnlyxZRM9NmWxEWLYVVS9++IiAVvuNG79US8OUpCJqtnLM2Ltw4WtOXNix6YyTRYLikAOuTvQ6aKtmPS1cuLCeGbiwavXOr2aex+R23bp2Tuo2HqKSxRXXc20L02X+48TFkTHxYWurZDn5MapOt/6wfcyYP3TocPrll1+ogxru8OuvvzjiHLsc4SM7QeU3lbi8cXuPbVwhbytL3jiDeMRpP/decuU4tnFkvCxsxzb+poVbrzN9zDHamYED/JlaeQLDh8xHS246jT1BeQz/N27clC64sBatWPEWYb4IdHnNyuqkZ5yGk7t79249kRunjopSZ0O3jQdkkFaEIIebc5+i8tIKmT9x5v+g+8RJI9NcRyxKOQ9KIyKL0zbufeLIce3iyhlwcTjccT7zjV2yFQJ/RgKcZ8SfMd2SptQIpNXhxjIW7dp30K1STz89Xo/DNmaahxK6lJ90Uln14rRLzXp7WkoO9/inJihHfoty6H9r8YAOjD3DGFavw92gQUP90mbswHbD+vW6a7g5x7ENS2/UrHk+TZv2PC1ZvIjwMofuzXD8hz0yhNas+cxERzadHH1OZEd24mrh5vCvWLESnVejBhUvXoKKqtmw0cq18LUFOu1eu8KOuenkyoXpMv9x4uLImPiwtVWynPwYVadbf9h+vfrXaCdl+fI3aOKEZxJEOXa5Lwgrv1HjcscbtG/jiutsZckbdxCPOO3n3kuuHMc2joyXhe3Yxt843GbSNCwZ1brNnbobq3sMNzedsCcsjwXZe4PqVXTddderj6TPqo+li7UYp46KUmcjUhsPyCCtCEEON+c+ReGllUX4iSv/h90nThojmKxFo5TzoDQiojht494njhzXLq6c4RuHw424OOXJ6JStEMhUApxnRKaykXQnE0ibw411gTtkddTj+55Xa1NjojR3GDT4Eb12tXtsMGYox0zlr85/hV58cbpbXO8HOZl4KGEZJG/A8mNeh9sr43dss23mzBn06IiRekmw/v36OFFUPuUU6tGjt+4ajxdQbrDpi8IinTpLljxBdTfrp8feo6u+adGKW2cqPIJs4MTFkXHHb6tkOfkxqk63/rD9Xr376pbHhwb0VT0vNiaIcuwyF9jKb5S4TJy2rY2r7Xq//4N4xGk/915y5Ti2cWT8eISds/H3OtyI69zzatD99z9I76x4m8aPH6ej56bTlseCbK1btz41adpMPyPwrHCHoDoKHwei1tk2HtDLcbhtzyYuL3c6uftx5H/bfUpHXuSmD3JBacR/cdrGvU8cOa5dXDmkFSEuh/u32IiCypP5X7ZCIJMJcJ4RmcxH0p5IIC0Od7FixVQLcycqW7YszXjpRZo/f16iVnWEGWPRRW3gwwPU+O0N+n8s6XXRxZfoFze8wHlDkMPdtGlzNVlZgQTx82rUpCJFjk3J4bbZ9t7KlTRy1Bg6dOhX1bKR5TieZv3NFcr2p468fCYYFXBg0xeFRYCKpNOp6GxzZ1uqVas2TZ36HC3ydJuHAtz32rUvVh8ittP7am11b+Dq5MrFpTOKPui0VbKc/BhVJyaMqq+W+gLbF6ZP86LVx1jrvnOXbrR50ybq379PkgzHLlzEKb/cuJKMCDlh4xpyqe9fYTyi2h/Gn3svuXIc2zgyvlBCTtr4+zncTVTdW7duPVqqWprNuticdHLyGExt1vwWqnLqaYQeUlu2fKOtv+++B1SPm5o0btzjCb2m8GdQHQWHO2qdbeMBfTaHm3OfOLygy4SwvGhksI0j/3PuEyeNbrvQC+zKq/6pP7hPnPC0nnvF/X+U/bA0Ip4ottm4cu8TR45rF1fOMIvb4Q4qT0afbIVAJhPgPCMymY+kPZFAWhxudN1DxY9JxNao8X3usGHDet0CbNYF3bljB32o1m8tXqIEVVfjhX/88SB179bFeQhjZllMfoZQXk2Ohgm8IL9/3z41OddOmjNnljt6Zz9oDLcjELLDsc289G1VSy6t/XyN7lKOFwmMdX788bG0ysfhDFLJ0YdrU2Xhp5er01yLtLVrn6Vfevv0zlkizPyPbQu1pNulamm3w4cPk18LK1cnVy4unVH0QWcqlaw3P0bVaV58oB/L3q1buxa7CcF8sHph+lRasODVhP+CDrx2QY5Tfv3i84vLTy7oXCpcg+LC+ag8wuwP48+9l1w5vzSF2WbkOTJG1m9r4w+HG8NJli17g/KpMdzlypVXdXIFPXHacLVO9rp163S0nHRy89g5St/9D7RTM5Nvo08++ZhKly5NZ555Fh08cEC1bPZwZkaHYlsdFbXOtvGATpvDDRlv8N4nDi93HGF50S0XR/7n3ie3Xux70+j+3yz1tmnTRrV8ZB/3X5H3o6YRCoJss3Hl3ieunDexQXZFkYvT4baVJ69dciwEMo0A5xmRaUwkvcEE0uJwY9kQOM9+4a233qRnVGsFAtZwrVPnH3o97kOHDulZaLHEFmagNcFMGmKO3dvNmzdTv7693KecfXxlxrizu9smTprmCFh2bLahoLVo2UpPmoZJW+Bk4gPDyy/PoeXqhTRqsOlDfKmyCLKFo9Nca77ajxk9Un/wMOfd2+tvuFGNrbxBz9rer19vylazCnsDVydXLi6dXH1ITyqVrF9+jKLTzK584MB+6tWzu54syst21OjHKF++fNRRLdHE7e7vZxe3/Hr1+8XllQk7ToVrWHxReYTZb+PPvZdcOW+6wmwzshwZI+u3tfGH43vuuec5l2JZx+zsbJr/ysu0cuW7znns2NIZJY81uulmNV/G37WzfYxy9Ldvz6bp06Ym1UNIP3pNBdVRUetsGw+kMxWH2+8+2XhBlwm2vGjk4sj/Ue6T0YutXxrN/z179aFKlSoThpotXpy8moWR42yjphFxBtnG4cq9T1w5dxqD7HLLhNmP/+J0uGFPWHny2iXHQiDTCHCeEZnGRNIbTCAtDnewuuR/0NUPrdZ79uz2dSKSr8i7M1zbsB4tZu3euXNHrozj6suVEs/FcessXaaMmrn8h9B1yLk6uXJx6eTqi7OS5erEbeOk03N7/1CHcXJNR8Jt/Ln3kiuXjjSExRk3/7jTick1Mfs+HO7cBk6dzeEBh7t48eL09ddfaZPmvzKPPvhgVUrmReFly4spGZAHF+Hj9IiRY3QPhU5qlnl8tDmaAocr9z5x5eJIf4sWraismiQWPexQTha8Ol8v5ekXNydf+10n54SAEEgkIGUpkYcchRNIyeEuWLAg4Sv1ejW79+RnJ4ZrkH+FwJ+MgOT/9NxQ4ZoertxYhX8iKQ6P9mqYDYZDmTBvnmrtf/cdcyhbD4HatS9SM9vfpSZRXUJTJk/y/CuHqRK4Q62QUkEN7zDhzeXLkpYnNf9x8rWRla0QEALBBKQsBbORf5IJpORwJ0cjZ4SAEBACQkAICAEhEEwADjcmvJs1awZtU/OfSBACQkAICAEhkAkExOHOhLssaRQCQkAICAEhIASEgBAQAkJACAiBPCcgDneeIxeFQkAICAEhIASEgBAQAkJACAgBIZAJBMThzoS7LGkUAkJACAgBISAEhIAQEAJCQAgIgTwnIA53niMXhUJACAgBISAEhIAQEAJCQAgIASGQCQTE4c6EuyxpFAJCQAgIASEgBISAEBACQkAICIE8JyAOd54jF4VCQAgIASEgBISAEBACQkAICAEhkAkExOHOhLssaRQCQkAICAEhIASEgBAQAkJACAiBPCfw/wAAAP//9ulguwAAQABJREFU7J13nBRF+vAfWQ6Q+wBLOpAcJBjAgCesIp7KCQgYDiTJHQICYgR2WcJGgkRZCWKWICCIgoiISpKgKJ4ImEiKeJKWLFF8Fd56Sqrp6enuemq2Z+DHPPXHdKp+nqe+XVU9T1e6pFLlameAAxNgAkyACTABJsAEmAATYAJMgAkwASYQKIFL2OEOlCcLYwJMgAkwASbABJgAE2ACTIAJMAEmIAmww80ZgQkwASbABJgAE2ACTIAJMAEmwASYQBQIsMMdBagskgkwASbABJgAE2ACTIAJMAEmwASYADvcnAeYABNgAkyACTABJsAEmAATYAJMgAlEgQA73FGAyiKZABNgAkyACTABJsAEmAATYAJMgAlE5HAnJOSHbt17wI6ff4YFC+YzRSYQVwQ4/0fncTPX6HClSmX+oaQoPDo80BESE4tbN65atRK+/mqDdcw7TCCvBFq1uh/KlC1riVm37kv4dPUn1rHpDiVfm8rk+EwgHglwWYrHpx55miNyuAsWLATPv/ASfCX+WIx9Zoyn9gIFCkDlylXg4MGDcODAftd4mGGrVKkCR48ehb17c13jnK+TVNuqV78cfvnlF9i/f1+eTKXqy5MSx80mOvFZHjp8CI6ItOYlUHVS41FsociixEFd1PwflF0UORdDnCC5ni8e1DISVJ2B6aTq1DEJmj+lPFHeETq77depLCj8KTxGjhoDJUqUgOPHjkkz5sx9C1atXGE3ibxP4UUWxhEjIhBk/qEaoNP5xJO9oVrVapD/L3+BwoULwwfvL4TZs2dRxYfFo+TrsJv4BBNgAmEEuCyFIeETPgSi4nDjH4dOnR6EBkk3Qf78+aX6nTt3wMyZr8N3335jmdOhQ0do1OhWKFCwoDyXm5sLs9+YCfgF1x4SExOhS9ducPXVdeTp4cOGwtatW+xRrP0KFSpCWnoGHDt2HPqm9LbOm+5QbGvf4QFo2LARXHrppXDmzBnYt28vzJgxPaIWDoo+TIMJC12aqToxnfXrJ0HRokXhjz/+gNzcPTBLPMtvvvlapyLsOlUnNV6YApcTFFmUOEq0SSXrlx9NdCrdbtuRo56G0qX/5nZJ5sl+qSnyWtu27aFJ02Zh8Y4fPwaPP/ZIyPkg81mIYJ8DE64+YoDCo3OXh+CWWxqFicEPZ717PR52XneCWkZM64zuPXpCgwZJMGP6a7B06ZIQM6g6Q27yOdDx79WrD9S95lpLwokTJwDr9bnCydy8aZN1Hnd0eZv6jqDmWSoLE/46HphOdLgx9EtNllu/n1jUBaifkv+pXFFerOsCiv3xWH5vvLE+PNzz0ag73EGzxTzEgQlcjAQo74iLMd2cpsgIRMXhxi5QzVu0FC3bB2DDhg1Qrlw5qFmzlmgB3g+ZGWlw6tSvcOedTaBd+wfg8OHDsPaL/0LJUqWgjnCojx8/DplZ6VYr6hVXXAmdu3SFUqVKy1bwIkWKwOhRI2Djxu9cU9wnua90zKdOmQQrVix3jaM7SbGtZct74L5/tRIOzT6RxnWyW2HdutcIx/u0cPT7CIf/zxYPnS68TtGH8UxZ4D1egarz/jZtoVmz5rL3weefr4FiRYtB0k03w2+//QY5OaNh2w8/eKkIO0/VSY0XpsDlBEUWJY5dtEkl65UfTXXa9Tv38U8/losv/vu5dSkhIUE+p127dkF6Wn95Hssb6l335VpZzlRkfJbThUOnQpD5TMmkbE24+smj8Li54S1QS9RJKpQqXRpq174C9uzZAwMHpKrTpC21jJjWGdWqV4f+/dNg9+7dkJWZFmILVWfITZoDHX90uOuIOm6laMFNyJcPLq9RA8qWvUz0XjoAWaLOPiHqbgyUvE15R6AsSp6lsjDlr+OB9pk43LGoC5RNuvqAwhVlnY+6gMuv+3s1Vg53kHUj5iEOTOBiJUB5R1ysaed0mROIisM9ZOhw6WRnZabDjh0/S6sGDEyHGjVqwtixY+Ar4YSn9hsg/+DmjBlttZQ+8ujjcMMNf4cpwlleedZZxnh433sL3oXE4omiRfwfng43OoIPPdQdtmzZDCNHDDOncfYOim0pffvJPyOoB/Vh6Nath3RyXn3lJfjkk4/PStNvKPpQigkLnVaqzqeGjYAyZcrKDyW7du2UYjv+uxPcfvsdcvz+3Dlvhagq/Ne/Wn+8Qy6IA6pOajwlP686TfVRK1m//GiqU6XVbev2p/+uu1pA6/vbwOLFH8LM12fI23C8aePGd8KYMaPg22/O9TRxykTbqGXOeW9ejqlcdTqoPJSc8uUrAJZn7N48YfxY2LRpo7pE2lLLiGmd0adPClwlPkI+N3ECrF37RYgtVJ0hN2kOdPyVw921SydLkqrXxwtu68/2TKLkbco7ApVQ8iyVhSl/HQ+0zy2v4XlniFVdgHrdbHLWBxSuKOt81AUU+9E2FeKl/MbK4VZccZtXtnZZvM8ELjYClHfExZZmTk/kBKLicOOX/F9//VX+UVSmtWnbDpo2vQumT3sNli1bAsNHjJJ/cJP79FJRoKHo4tlFdPVE53rOnDfl+R4P94T169fDms8+hQc7d/F0uDHjDx7ylOz+NnLkMKOWV8uAszsU2wamZcixkynJvUXL+xF5579atYYWLe620uiU63VM0Yf3Ull46bGfp+hER3bc2AmwY+dOGJSdYd1eq1Yt6Cda3jZsWC+u51jnG//zTmjdug0cOfILDBk8yOKiIlB0YlxqPIwbhE4TfaiTUsnq8qOpTtTrFbqKj0wY8EOPClnZQ6BChQqQKVpGd4tWbgwdO/4Hbr+jsecHK3VvkPlMyaRsKVwpcqg8UFaRIkVFXh4gPypNnvwqrDb4UIb3m5QRkzrjGtF1G8dufiuGbeTkPI2qrGCi07qJsKPj7+ZwK8dt8qRXACcMw0DJ25R3BMrS5VkTFib8UbeOB8Zxcw7xvD3Esi5AvZT8r+Oq7D8fdQHFfmVfPJXfWDvceWWrnhFvmcDFSoDyjrhY087pMicQFYfbzYxevZOhTp26omvkn63e+EcFu7JmpA+womN3xd4intekIH4Ot+oi99GypTBt2lRLZiQ7FNuwmzV2ZVy/fh28NnUyVL+8hvxzmD9/AvTr19ezldfNHoo+531+LJxx3Y4pOrEyGT9hopz0bkD/vpaYeqIXwqOiNwK2uk18drx1XrXw4wm3bv8UnXgvNR7GDUKniT7USalkdfnRVCfqpYZatWtDauoA2Lx5E4waOdy67d//eRBuu+12mD//HahWrZp0Nnfv3gXz3p7rOWFhXvOZpZywQ+FKEBMWxYsHRnzs8Sfh+uvryY9Hz04YL+Yo+D3sfr8TJmXEpM5Iz8iCihUrwSThyOLwAJz7AoffYDDR6We785qOv9PhrlSpshhT+ogc7pMi5stQkylGmred7wi0T5dnTViY8EfdOh4YB9OKwW8M9/msC9A2t/yv44r3OUMs6wK7bjf71fV4Kr+xdrjzylY9I94ygYuVAOUdcbGmndNlTiAmDjd2p+sqJj3bvv1HGDpkkLRS/Sl78YXnoE9yCnz//feyhSQShxtn+cSujThuGlv0cCzho489AZdddpkYv3rOoUfF+NU2ISFfCKlTp07ByZMnrXNU21q0vBvuu6+VbM0vWLCgdExfeGFiWOu6TidVn2Wg2Mnrnx+qzuxBQ6FSpUpyVtTFixZB6b+VFhPidYZatWpLR23+/HmWWWUF71tvvU3OSL9k8SLrvNqh6qTGQ7lB6DTRhzp1lSwlP5rqRL3U0K37w5AkJiycKj4ErVj+kXVbpwc7y+eDJ3CscrFixeSEfzgkYsTwp6x49p285jO7LN2+jiverytLbjq8eGDcjIxsqFK1KlxyySWy/C58b4HsgeMmx+ucSRmh1Bn16zcQvVlCJ7HDyQqXf7RMTMo4TZphotPLbud5HX90uHHStL1798ox3CVKlpSTKM5/Z17I8pCR5G23dwTaR8mzJiwo/BUXHQ+Mh2nF4OVwn++6AG1zy/8UrnivPQRRF3D5jbz8xtrhDqJutOcf3mcCFxsByjviYkszpydyAlF3uHH5lSfFHzWAM2Jc9XA5qy2aq/6UTZ82BfqK1rifftoO8+a9HVELN47Nu/LKq8A+UVpaeqbsUtvz4T+72ypEOc+MkxOcqWPcLl26WMwC/OeLEI8pthUVzgp+RMBW+23bfhBLw5SEwmK2cpyxd9GiD1GMFXQ6KfosYWd38vrnh6oTex30FDOjFipUSEy0dQwKiVbvBDHzPE5uN3BAv7Bu40477cdUndR4dtle+xRZlDh2+bpKlpIfTXXa9fvt44z5o0fnwO+//w7JYriDvcW2TZt2cKNw5lav/hhw7D12x01JSRXlpKJ0GA4dOhQmOq/5LEygzwkdV7xVV5ac4v14qLhYlm8SHwVxUi10vPuL3hyqtVbF8dtSywi1zug/IE1OMomrNaCTjR+VcOx9aTGxG7Z4fyy6blN1+tntvKbjr1q45TrTghM6k/jR5lvR+o7jzNVHS9O87fWOQPsoeZbKgspfcdHxwHiYVgxeDvf5rAvQLq/8T+GK99tDEHUBl9/Iy2+sHW589nmtG+35h/eZwMVGgPKOuNjSzOmJnEBUHW78I9+7T7JslXr11ZflOGxlqvpThl3Ky5UrD4cOHRSz3taMyOF++ZXJwpHfKRz6c610OEYQx7A6He7mzVtIR0PZgdutW7bIruHqHMU2XJ6jXr0bYNas12HpksXyxYTdm9HxH/P0KPjuu2+VONDppOizhJ3dyeufHxOdVapUheuuvx6KFy8BRcVs2NjKtejDD2TanXb5HVN1UuP56VLXKLIocZQ83OoqWUp+NNVp1++337TZXdJJWblyOUyZPMkvqrx2r+ihcffd97guO4UR8prPtAbYIui4YlRdWbKJk7smPLBXDJZpHCbhnKTMKdd5TCkj1DrjuedfEh9M/h/g/BA47AYDzlWAS23hGPNXzo7Vp+h02ul3rOOvHG41aRou7dWtew9AR8A+htskb/u9I7xsdcuzFBZU/kqvjgfGw7Ri8HK4z2ddgHaZ5H83rihDhSDqAi6/kZff8+Fwq2efl7pRyeAtE7jYCFDeERdbmjk9kROImsON6wInp/SV4/teF2tT40Rp9jBi5NNy7Wr72GCcoRxnKn9/4Xvw5ptv2KPLfa8XPv6pwXGOzoDLjzkdbmcct2OdbXPnzoFnxo6TS4INGZxticBlfNLTs2TXePwDSg06fSYsoqmzZMlSkD1osHQCsKu+atEKWmckPLxsoMiixLHL11WylPxoqtOu328/M2uQbHl8augg0fNim19Uea1Jk2bQtl17Wd6w3DmDV5lzxgviWMc1Eh1ePHDZwiNHjsAqscSVCq1ai+UMm7e0WpHVeZOtVxlB55RSZ2CL0jPPjJe9Zp4aOthSjeOlswcNgW++/ipsEjUvndbNxB0df6fDjWKvve56eOKJXvDp6k/g5ZdflJqoeVv3jvAy2y/PerGg8rfr1PHAuBSHW/duovKy20bd98r/bvf7ccX4sawLlH1e9sdj+Y2Vwx0ttuqZ8pYJXCwEKO+IiyWtnI68E4iKw52YmCjGZaeKJSXKw5y33oSFCxeEWYozxmJXwuHDhorx21vldVzS66abG8o/bvgHzhm8Xvjt2nWA/KKbsz1cJyZCKlz40ogcbp1tn69ZA+PGPwunT/8hWjZSLMdTrT+7Wtj+ytk/n3abvPZ1+kxYeOlwno9EZ/cePaFBgySYOXMGLHZ0m0f5+NyTkm4WHyL2whdibXVnoOqkxgtKp4k+1KmrZCn50VQnTnLWTCz1hWxnvzHLiVYe41r3/foPhO0//ghDhmSHxWnf4QGocXlNwN4mO3fukNcfF5OGYVl58cXnQ3qgqJu9ypy6HuRWx9VUlx8PdHKwO3Rq32RrWAQ+k8vF5IeZGWnWcoZKJ4U/xvUqI+jwUesMdOKKFy8uh2zs379PmqBWeXD7GOmlU9lO3er4uzncbUXd26RJU1i2dIm1ljslb1PeEWi3aZ71YmHCX/HS8cB4Oof7fNUFaJtf/jflivJ0dQH27rqj8T/lh/QpYsb/Y2JOlbwEP/vjsfzGyuE2ZZuXZ8z3MoH/ywQo74j/y+lj24MlEBWHG7vu4cvh4MGDcnZdu8lbt26RLcBqXdAD+/cDjlUsXqIE1K17jZiA7CSkDexvvaybNWsuJz9DGZXEmEGcwAvjHxcv8wMHDsA777xtF2/te43htiL47FBsU47KLrHk0qaN38ku5fiHA8c6P//8RFjr4nB6qaTow3sjZeGml6pT3Ytp6y3WBUZHLTvr3BJh6jpuO4sl3W4RS7udOXMG3FpYqTqp8YLSaaIPdUZSyTrzo6lO5Uigflz2bvOmTbgbEtQHq9lvzIQPPng/5BoeqKWmdu/eDV+LltIyZcrAVVddDSdPnIDMrHRr3HKQ+SzMCJ8TkXD1EQd+PNSkUTgUZaMY/lGhYkU5ESDmb3S4nYHCX1dGqHVG27btoUnTZnJWchwvjXVj7dpXwG9icsecnNEhPRd0Op3p8DvW8UeHG4eTrFixHPKJMdw4i3qlypXlxGk5Ym33zZs3S/GUvE15R6Awap7FuDoWVP4oC4OOB8bROdwYxxliURegTr/8T+VqUheopcZ+/HGbWBYy25ls42M/++Ox/MbK4TZla/xg+QYmcJEQoLwjLpKkcjICIBAVhxuXd0Hn2S18/PEqmCRa2DDgGq6NGv1Drsd9+vRpOXMyLrGFsyaroCadUcf27fbt22HwoEz7KWsfW1lwfOAjPUMnTbMiaHZ0tmFB69ylq5w0DSemQScTPzC8++47sFL8ITUNOn0oL1IWXrZQdKp7VavVsxPGyQ8e6rx9e8+994nxwPfKWdsHD86CXDETtjNQdVLjBaWTqg/TE0kl65YfTXSq2ZVPnDguHUK3Cc7GT3gO8uXLB33FEk1e3f2x23S9en+XzvYlwmnauzcX3pg1M+SZBp3PnHnA6zgSrl6y8LyOB87efO2118mJpXCSOVxF4eWXXpS9CJxyKfx1ZcSkzsAWyPo3NpAf8rBuxLKE80XghxJ70Om0x9Xt6/jjuuDISwUcX56bmwsL33sX1qz5TJ2WW13epr4jUBglz2I8HQsT/ihPxwPjROJwx6IuQNt0+Z/C1aQuyMjMhqpVqwEOIVuyJHyVCrTJJOjsj7fyGyuHG5+RCVuTZ8pxmcDFRIDyjriY0stpyRuBqDjcJiZhVz9stT58+JCYOC18lmQTWUHHpdqG4ytx1u4DB/bnyQSqvjwpcdwctM4yZcuKLrpHfdchp+qkxgtKJ1VfkJUsVSc+Nko6HY/X8xAnKkQnEx3uCyUEydUkTegk5AoOuJygXwiSP7XOwFbkY8eOxqRuDJq/Sd72466uBZlnKfwpPFT3///97ydpJi4r9+WXa5XJRlsTXkHmxSC44kfnseOelb1lUlOTrcn+jABEGPliL7+dO3eF8mICWOw9h8/qg/cXymU6I8RF+pCkZFPZqvi8ZQLxRIDyjognHpxWfwIROdwFChQA/Jq9RczuPe21Kf4a+CoTuMgIcP6PzgNlrtHhSpXK/ENJUXj0EcNssMu/CgsWiNb+zz5Vh3GzTUq6SbaKLlu2FKZPmxo36Y5FQh8Sq59UFkM3VMCJHp1Lj6prlC0lX1PkcBwmEO8EuCzFew4wS39EDreZCo7NBJgAE2ACTIAJXKwE0OHGyRfffnsO7BbzmnBgAkyACTABJsAEzhFgh/scC95jAkyACTABJsAEmAATYAJMgAkwASYQGAF2uANDyYKYABNgAkyACTABJsAEmAATYAJMgAmcI8AO9zkWvMcEmAATYAJMgAkwASbABJgAE2ACTCAwAuxwB4aSBTEBJsAEmAATYAJMgAkwASbABJgAEzhHgB3ucyx4jwkwASbABJgAE2ACTIAJMAEmwASYQGAE2OEODCULYgJMgAkwASbABJgAE2ACTIAJMAEmcI4AO9znWPAeE2ACTIAJMAEmwASYABNgAkyACTCBwAiwwx0YShbEBJgAE2ACTIAJMAEmwASYABNgAkzgHAF2uM+x4D0mwASYABNgAkyACTABJsAEmAATYAKBEWCHOzCULIgJMAEmwASYABNgAkyACTABJsAEmMA5Auxwn2PBe0yACTABJsAEmAATYAJMgAkwASbABAIjwA53YChZEBNgAkyACTABJsAEmAATYAJMgAkwgXME2OE+x4L3mAATYAJMgAkwASbABJgAE2ACTIAJBEYgIoc7ISE/dOveA3b8/DMsWDA/MGNYEBP4v0CA8390nhJzjQ5XqlTmH0qKwqPDAx0hMbG4deOqVSvh6682WMe8wwRiQaBVq/uhTNmylqp1676ET1d/Yh3bdyj52h6f95kAE3AnwGXJnQufdScQkcNdsGAheP6Fl+Ar8cdi7DNj3CWLswUKFIDKlavAwYMH4cCB/a7xMMNWqVIFjh49Cnv35rrGOV8nqbZVr345/PLLL7B//748mUrVlycljptNdOKzPHT4EBwRac1LoOqkxqPYQpFFiYO6qPk/KLsocqIRh8ojKN1Bcg3KJlM51DJCiUfhT6ljqWkImn+s7cd0UrhiPEqdTeExctQYKFGiBBw/dgzFwpy5b8GqlSvkvukPhZepzKDiX8i2BZVGEznUfKaLR+WqK+dPPNkbqlWtBvn/8hcoXLgwfPD+Qpg9e5Zrkij5Wt2os1/F4y0TiEcCJmUpHvlwmkMJRMXhxpdIp04PQoOkmyB//vxS486dO2DmzNfhu2+/sSzo0KEjNGp0KxQoWFCey83NhdlvzAT8OmsPiYmJ0KVrN7j66jry9PBhQ2Hr1i32KNZ+hQoVIS09A44dOw59U3pb5013KLa17/AANGzYCC699FI4c+YM7Nu3F2bMmB5RCwdFH6bBhIUuzVSdmM769ZOgaNGi8Mcff0Bu7h6YJZ7lN998rVMRdp2qkxovTIHLCYosShwl2qSS9cuPJjqVbrftyFFPQ+nSf3O7JPNkv9SUsGt+dmFkE9u69+gJDRokwYzpr8HSpUvCdFFPmHD1k0nh0bnLQ3DLLY3CxOCHs969Hg87rztBLSPUeDr+1DpWZ7f9uo5/r159oO4111q3nDhxArBenyuczM2bNlnncSco+9u2bQ9NmjYLkY0Hx48fg8cfe8Q6T+WK8ah1to4HKkeHG0O/1GS59fvxK3M6Xn5yndco+d9+j59dGM/EtqDqArt9bvvUNF7I5ZzC1bSc33hjfXi456N5drip5cnt2fA5JhAvBCjviHhhwenUE4iKw43dm5q3aClatg/Ahg0boFy5clCzZi3RArwfMjPS4NSpX+HOO5tAu/YPwOHDh2HtF/+FkqVKQR3hUB8/fhwys9KtVtQrrrgSOnfpCqVKlZat4EWKFIHRo0bAxo3fuaauT3Jf6ZhPnTIJVqxY7hpHd5JiW8uW98B9/2olHJp9Io3rZLfCunWvEY73aeHo9xEO/58tHjpdeJ2iD+OZssB7vAJV5/1t2kKzZs1l74PPP18DxYoWg6SbbobffvsNcnJGw7YffvBSEXaeqpMaL0yBywmKLEocu2iTStYrP5rqtOt37uOffiwXX/z3c+tSQkKCfE67du2C9LT+1nm142UXXjexrVr16tC/fxrs3r0bsjLTlPiItiZc/RRQeNzc8BaoJeokFUqVLg21a18Be/bsgYEDUtVp0pZaRqjxKPwpdSzJeFskHX90uOuIOm6laMFNyJcPLq9RA8qWvUz0XjoAWaLOPiHqbgxB2o/vCJS37su18t2gzMX6Z7r4wIOBytW0ztbxQN0mDrdXmaPwQl3UQMn/dlledmEcE9uCrAvs9rntU9N4oZZzKlfTch6Ew00tT27Phc8xgXgiQHlHxBMPTqs/gag43EOGDpdOdlZmOuzY8bO0YMDAdKhRoyaMHTsGvhJOeGq/AfIPbs6Y0VZL6SOPPg433PB3mCKc5ZVnnWWMh/e9t+BdSCyeKFrE/+HpcKMj+NBD3WHLls0wcsQw/5T7XKXYltK3n3SAUQ/qw9CtWw/p5Lz6ykvwyScf+2gIvUTRh3eYsAjVEH5E1fnUsBFQpkxZ+aFk166dUlDHf3eC22+/Q47fnzvnrRDhhf/6V+uPd8gFcUDVSY2n5OdVp6k+aiXrlx9Ndaq0um3d/vTfdVcLaH1/G1i8+EOY+fqMkNv87MKIJrb16ZMCV4kPZc9NnABr134Rosf0gMpVJ9eUR/nyFQDLM3bbnDB+LGzatFGnIuQ6tYxQ41H4U+rYECMJBzr+yuHu2qWTJU3V6+MFt/VneyYFaT+OkW7c+E4YM2YUfPvNud5RlgFih8rVtM7W8UAb3PKa3Ta171fmKLyUHMrWzSav+sDPLtRlYluQdYEunSZpVLIupHJO5WpazoNwuKnlSXHlLROIVwKUd0S8suF0hxOIisONX8x//fVX+SdcqWzTth00bXoXTJ/2GixbtgSGjxgl/+Am9+mlokBD0cWzi+jqic71nDlvyvM9Hu4J69evhzWffQoPdu7i6XBjxh885CnZ5XrkyGFGLa+WAWd3KLYNTMuQ4wVTknuLlvcj8s5/tWoNLVrcbaXRKdfrmKIP76Wy8NJjP0/RiY7suLETYMfOnTAoO8O6vVatWtBPtGpu2LBeXM+xzjf+553QunUbOHLkFxgyeJDFRUWg6MS41HgYNwidJvpQJ6WS1eVHU52o1yt0FR+ZMOCHHhWysodAhQoVIFO0Ou8Wrdwq6OzCeFTbrhHdi3Hs4LdiaEFOztNKRcRbCleKcBMeRYoUFXl5gPyoNHnyq7Da4EMZ2kItI9R4KJPCn1LHoiyToOPv5nArh3jypFcAJwzDEKT9HTv+B26/o7HnR1YTrqZ1to4HptXN8cPz9qArcxRednm6fWr+19mFeqi2BV0XBJVGJedCK+dUrqblPK8Ot0l5Umx5ywTilQDlHRGvbDjd4QSi4nCHqwHo1TsZ6tSpK7qd/tnqjX9UsFtgRvoAKzp2V+wt4nlN+OHncKuuhx8tWwrTpk21ZEayQ7ENu1lj16v169fBa1MnQ/XLawD+OcyfPwH69evr2crrZg9Fn/M+PxbOuG7HFJ1YmYyfMFFOejegf19LTD3RC+FR0RsBWzQnPjveOq9a+PGEW7d/ik68lxoP4wah00Qf6qRUsrr8aKoT9VJDrdq1ITV1AGzevAlGjRwecpvOLoxMtS09IwsqVqwEk4SzhV3YcX4GHCISaaBwjUS2H4/HHn8Srr++nvx49OyE8WKOgt+NVFDLCDUeKqfydxrqrGOd13XHOv5Oh7tSpcpivOgjcrhPipgvQ02mGKT9//7Pg3DbbbfD/PnvQLVq1cTQiaJi+MIumPf2XDnMxYSraZ2t44E8Ma0Y/MZw68pcpLykYsKPV/7X2YWiqbYFXRcQkhUSxSuNKtKFVs6pXJX99q1fOc+rw21Snuw28T4TiEcClHdEPHLhNLsTiInDjd3WuopJz7Zv/xGGDhkkLVEvnBdfeA76JKfA999/L1tIInG4cSZN7NqI46axRQ/HEj762BNw2WWXifGr5xx6VIx/2BIS8oXQOHXqFJw8edI6R7WtRcu74b77WsnW/IIFC0rH9IUXJoa1rut0UvVZBoqdoBxuHf/sQUOhUqVKcsbTxYsWQem/lRYT4nWGWrVqyz+98+fPs8wqK3jfeuttckb6JYsXWefVDjWd1HgoNwidJvpQp66SpeRHU52olxq6dX8YksSEhVPFh6AVyz+ybqPYhZEpttWv30D0uDg3aRXehxPqLf9omZg4cBoeGgcdVxSoK0tuSr14YNyMjGyoUrUqXHLJJbL8LnxvgeyB4ybH6xy1jFDjUfg7bXGrY51xdMc6/uhw46Rpe/fulWO4S5QsKZ/5/HfmhSwPGaT9nR7sLOsUtB3H1xcrVkxOUonDeEYMf0omicoVI1PrbIyr44FxMK0YvBxuSpmLhJdUSvxxy/8Uu1A8xbZo1AWm5dwtjXY8F1o5p3C126/2deU8rw436jEpT8ou3jKBeCRAeUfEIxdOszuBqDvcuPzKk+KPGsAZMa56uJzVFk1RL5zp06ZAX9Ea99NP22HevLcjauHGsXlXXnkV2CdKS0vPlF1qez78Z3dblfycZ8aFrJuK55cuXSxmWD7nJFBsKyr++OFHBGy137btB7E0TEkoLGYrxxl7Fy36UKmTW51Oir4QgeIgKIdbxx97HfQUs54WKlRIzgxcSLR6J4iZ53Fyu4ED+oV1G3faaT+mppMazy7ba58iixLHLl9XyVLyo6lOu36/fZwxf/ToHPj9998hWQx3sLfYUuxC2RTb+g9IkxMh4ooC6GTjhw8ca1taTD6GLd4fn+1e7Ger85qOK8bXlSWnTD8eKi6W5ZvER0GcVAsd7/6iN4dqrVVx/LbUMkKNR+Fvt8erjrXHoezr+KsWbrnOtOCEThs6wN+Kng04hl99tAzS/jZt2sGN4uPO6tUfA84XgV1eU1JSRd1eUTq5hw4dkhO5Ueookzobeel4YBxMKwYvh5tS5kx5SYXEH6/8T7ELVVBsi0ZdYFLOvdLoRHQhlXMKV6f9lHIehMNNraec9vExE4g3ApR3RLwx4fR6E4iqw41/inr3SZatUq+++rIch61MUS8c7FJerlx5OHTooJj1tmZEDvfLr0wWjvxO4dD/2eKBOnDsE45hdTrczZu3kH/alB243bpli+wars5RbMOlN+rVuwFmzXodli5ZDPgyx+7N6PiPeXoUfPfdt0oc6HRS9FnCzu4E5XBT+FepUhWuu/56KF68BBQVs2FjK9eiDz+QaXfa5XdMTSc1np8udY0iixJHycOtrpKl5EdTnXb9fvtNm90F6KSsXLkcpkyeFBKVYhfeQLHtuedfEk79/wOcwwCHhmDA8fS41A2Og37FNp5cXiT86LiiCF1Zcqrx4+GMi71isEzjMAnTCeCoZYQSj8Jf2e5Xx6o41K2Ov3K41aRpuGRRt+49AP/k28dwR9v+e0WvorvvvidkGToKV5M6G5npeGAcTCsGL4ebUuZMeEllBj9e+Z9iF6qh2BaNusCknHul0QvThVDOKVzt9lPLeRAON+qllCe7fbzPBOKRAOUdEY9cOM3uBKLmcOO6wMkpfeX4vtfF2tQ4UZo9jBj5tFy72j42GGcox5nK31/4Hrz55hv26HLfy8nEPw84htQZcPkxp8PtjON2rLNt7tw58MzYcXJJsCGDsy0RuCxKenqW7BqPf0CpQafPhEU0dZYsWUp0NxssHSzsqq9atILWGQkPLxsosihx7PJ1lSwlP5rqtOv328/MGiRbHp8aOkj0vNgWEpViF96gs+3DRR/AM8+Mlz07nho62NKBY3qzBw2Bb77+KqJJ1HRcLUUGO148cNnCI0eOwCqxxJUKrVqL5Qybt4y4hR7lUMuIXzwdf1Uf6OpYlS7qVsff6XCj3Guvux6eeKIXfLr6E3j55Relqmjb36RJM2jbrr18R+C7wh68uOLHAdM6W8cD9VIcbt27icrLnk7qvlf+v9DrAmr6MJ5XGvHahVrOTZ65STkPyuFGdhi8ytOfV/mXCcQ3Aco7Ir4JcertBKLicCcmJooW5lQoX748zHnrTVi4cIFdp9zHGWOxi9TwYUPF+O2t8hwu6XXTzQ3lHzf8A+cMXg53u3YdxGRl+UOiXycmQipc+NKIHG6dbZ+vWQPjxj8Lp0//IVo2UizHU62tuVrY/srZP58hRnkc6PSZsPBQEXY6Ep3de/SEBg2SYObMGbDY0W0eFeBzT0q6WXyI2AtfiLXVnYGqkxovKJ0m+lCnrpKl5EdTnThhVDOx1Beynf3GLCdaeYxr3ffrPxC2//gjDBmSHRaHYhfeRLENHY3ixYvLYQX79++TutRKBF4fzMIMcpzQcXVE1x768cA/vNgdOrVvsjUsAtN9uZj8MDMjzVrOUCmh8Me4ujKi5PnFo/Cn1LFKF3Wr4+/mcLcVdW+TJk1h2dIl1rrYQdrfvsMDUOPymoA9pHbu3CGT8riY6A7r9xdffD6k1xRe9OKKDrdpna3jgfp0DjelzFF4oS4VqHnRL/9T7EJ9FNtM6wLsBXZH43/KD+5TxMoAx8TcK5EGvzSiTJNyTuWKcr3yGV6zB694FK4ox7ScB+1we9lvTyPvM4F4JUB5R8QrG053OIGoONzYdQ8r/oMHD8qZi+1qt27dIluA1bqgB/bvBxwHWrxECahb9xoxAdlJSBvY33oJN2vWXE5+hjIqiTGDOIEXxj8uXtIHDhyAd9552y7e2vcaw21F8Nmh2Kb+9O0SSy5t2vid7FKOfyRwrPPzz0+EtS4Op5dKij68N1IWbnqpOtW9mLbeYs1l/NObnXVuiTB1HbedxZJut4il3c6cOQNuLaxUndR4Qek00Yc6I6lknfnRVKf644P6cdm7zZs24W5IUB+sZr8xEz744P2Qa14HTrswHsW2tm3bQ5OmzeSs5DimF8tv7dpXwG9iAsKcnNFhrete+u3nI+Fqv9+578dDTcaFQ1E2iuEfFSpWlBMBYv5Gh9sZKPwpZQTl6uJR+FPqWGcadMc6/uhw43CSFSuWQz4xhhtnqK9UubKcOC1HrJO9efNmqSJI+9VyU7t374avRc+JMmXKwFVXXQ0nT5wQLZvpIWPtdVxN62wdD0yszuF2Y+4scxRedjmUvIjx/fK/XZ7ad9qF5ym2mdYFaqm3H3/cJpaPzFbqI9rq0mhSzqlcdflMJcQvHoUryjEt50E63H72qzTylgnEMwHKOyKe+XDaQwlExeHGZSvQeXYLH3+8CiaJ1goMuIZro0b/kOtxnz59Ws5Ci0ts4Qy0KqjJXdSxfbt9+3YYPCjTfsraxy/IOO7pkZ6hk6ZZETQ7OtuwoHXu0lVOmoaTtqCTiR8Y3n33HVgp/pCaBp0+lBcpCy9bKDrVveqL/LMTxskPHuq8fXvPvfeJsZX3ylnbBw/Oglwxq7AzUHVS4wWlk6oP0xNJJeuWH010qtmVT5w4Lh1CnCzKGcZPeA7y5csHfcUSTdTu/m52oVyKbdj6WP/GBvJjE5ZffN44pwE6RpGESLj66dHxwJmNr732OjnrNU4yh6sovPzSi7IXgVMuhT+ljKBcSjwdf2od60yH37GOP665jrxUwLH7ubm5sPC9d2HNms/UabkN0n7s6l+v3t+ls32JcPT37s2FN2bNDKuHdFxN62wdD0xoJA63W5nT8bLDpeRFjK/L/3aZuO9mF56n2GZSF2RkZkPVqtUAh5otWRK+mgXqpAZKGqnlnMpVl8+U7bp4FK6m5TxIh1tnv0onb5lAvBKgvCPilQ2nO5xAVBzucDXeZ7CrH7ZaHz58SEycFu5EeN8Z/StU23DsKs7afeDA/jwZRdWXJyWOm4PWWaZsWdFF96jvOuRUndR4Qemk6guykqXqxMdGSafj8ebpkGobtnQeO3Y0z+U3SK4mCcc//7nCicPlBP3Chcrfz2aTa0Hzp+Yfqo04uSZ+GEGHO6+BUmdTeKju1P/730/SJFxW7ssv10ZkngmvCzUv6uoC/Dg9dtyzsodCamqyNeFiRMAMb6KU8wuVqy6pnTt3hfJikljsYYfl5IP3F8qlPN3uo+Rrt/v4HBNgAqEEuCyF8uAjfwIROdwFChQA/Eq9RczuPe21Kf4a+CoTuMgIcP6PzgNlrtHhSpXK/ENJUXj0EcNscDiFCgsWiNb+zz5Vh7x1EEhKuknMbP+wmER1KUyfNtVxlQ8jJfCQWCGlshjeoQJOBulcnlRdo+RrFZe3TIAJeBPgsuTNhq+EE4jI4Q4Xw2eYABNgAkyACTABJuBNAB1unPDu7bfnwG4x/wkHJsAEmAATYALxQIAd7nh4ypxGJsAEmAATYAJMgAkwASbABJgAE4g5AXa4Y46cFTIBJsAEmAATYAJMgAkwASbABJhAPBBghzsenjKnkQkwASbABJgAE2ACTIAJMAEmwARiToAd7pgjZ4VMgAkwASbABJgAE2ACTIAJMAEmEA8E2OGOh6fMaWQCTIAJMAEmwASYABNgAkyACTCBmBNghzvmyFkhE2ACTIAJMAEmwASYABNgAkyACcQDAXa44+EpcxqZABNgAkyACTABJsAEmAATYAJMIOYE2OGOOXJWyASYABNgAkyACTABJsAEmAATYALxQIAd7nh4ypxGJsAEmAATYAJMgAkwASbABJgAE4g5AXa4Y46cFTIBJsAEmAATYAJMgAkwASbABJhAPBBghzsenjKnkQkwASbABJgAE2ACTIAJMAEmwARiToAd7pgjZ4VMgAkwASbABJgAE2ACTIAJMAEmEA8E2OGOh6fMaWQCTIAJMAEmwASYABNgAkyACTCBmBOIyOFOSMgP3br3gB0//wwLFsyPudGskAmcTwKc/6NDn7lGhytVKvMPJUXh0eGBjpCYWNy6cdWqlfD1VxusY95hArEg0KrV/VCmbFlL1bp1X8Knqz+xju07lHxtj8/7TIAJuBPgsuTOhc+6E4jI4S5YsBA8/8JL8JX4YzH2mTHuksXZAgUKQOXKVeDgwYNw4MB+13iYYatUqQJHjx6FvXtzXeOcr5NU26pXvxx++eUX2L9/X55MperLkxLHzSY68VkeOnwIjoi05iVQdVLjUWyhyKLEQV3U/B+UXRQ5pnGoz5Iaz1S/W/wgubrJj8W5oHkFLc+PQdD8KeWJ8o7wszma1yg8Ro4aAyVKlIDjx45JU+bMfQtWrVwRkVkUXhEJ1txEzWPUeBp1F8XlIFkEIeuJJ3tDtarVIP9f/gKFCxeGD95fCLNnz3JlTcnXrjfySSbABEIIcFkKwcEHGgJRcbjxj0OnTg9Cg6SbIH/+/NKEnTt3wMyZr8N3335jmdShQ0do1OhWKFCwoDyXm5sLs9+YCfh11h4SExOhS9ducPXVdeTp4cOGwtatW+xRrP0KFSpCWnoGHDt2HPqm9LbOm+5QbGvf4QFo2LARXHrppXDmzBnYt28vzJgxPaIWDoo+TIMJC12aqToxnfXrJ0HRokXhjz/+gNzcPTBLPMtvvvlapyLsOlUnNV6YApcTFFmUOEq0SSXrlx9NdCrdum33Hj2hQYMkmDH9NVi6dElYdOqzpMZDBX5pDDPA54QJVx8xMHLU01C69N9co2AZ7ZeaAp27PAS33NIoLA5+OOvd6/Gw87oTFF5t27aHJk2bhYk6fvwYPP7YIyHnKfKCrAtQuY5/r159oO4111p2njhxArBenyuczM2bNlnncUeXt6nvCLtQv7xNYUHJF3Z9Oh4YFx1uDP1Sk+XW78evnOh4+cn1u+bHjJLHUDY1Hsb1SyNeDypQn+WFXM6pXCl5W3G98cb68HDPRwNzuP3yj9LJWyYQrwQo74h4ZcPpDicQFYcbuzc1b9FStGwfgA0bNkC5cuWgZs1aogV4P2RmpMGpU7/CnXc2gXbtH4DDhw/D2i/+CyVLlYI6wqE+fvw4ZGalW62oV1xxpfhz3BVKlSotW8GLFCkCo0eNgI0bvwtPjTjTJ7mvdMynTpkEK1Ysd42jO0mxrWXLe+C+f7USTvY+kcZ1slth3brXCMf7tHD0+wiH/88WD50uvE7Rh/FMWeA9XoGq8/42baFZs+ay98Hnn6+BYkWLQdJNN8Nvv/0GOTmjYdsPP3ipCDtP1UmNF6bA5QRFFiWOXbRJJeuVH0112vV77VerXh3690+D3bt3Q1ZmWlg06rOkxlMKvNKorlO3Jlz9ZKIThPXEF//93IqWkJAg8+2uXbsgPa0/3NzwFqgl6iQVSpUuDbVrXwF79uyBgQNS1WnSlsoL6zt87uu+XCvrOSUcy9J08YFEBYq8IOsCpVfHHx3uOqKOWylacBPy5YPLa9SAsmUvE72XDkCWqLNPiLobAyVvU94Ryi7c+uVtKgtKvrDr1PHAuCYOt1c5ofCy20Xd92NGyWOohxpP2eSVRnU9qC31WV6o5ZzKlZq3FdcgHW6//KP08ZYJxDMByjsinvlw2kMJRMXhHjJ0uHSyszLTYceOn6XGAQPToUaNmjB27Bj4Sjjhqf0GyD+4OWNGWy2ljzz6ONxww99hinCWV551ljEe3vfegnchsXiiaBH/h6fDjY7gQw91hy1bNsPIEcNCU2pwRLEtpW8/6QCjHtSHoVu3HvJP/auvvASffPIxWSNFHwozYaFTTtX51LARUKZMWfmhZNeunVJsx393gttvv0OO3587560QVYX/+lfrj3fIBXFA1UmNp+TnVaepPmol65cfTXWqtPpt+/RJgavER6vnJk6AtWu/CItKfZbUeKjAL41hBmhOULlqxLg6QXfd1QJa398GFi/+EGa+PiNERPnyFQDLM3ZvnjB+LGzatDHkuu6AygvH+zZufCeMGTMKvv3mXE8fp3yKPMw/1HrRKd/rWMdfOdxdu3SyRKh6fbzgtv5szyRK3qa8IywlYscvb1NZuDnHfvlCxwPtc5Npt1vt+5UTCi8lx2Trx4ySx1AXNR7G9UsjXg8yuHH3e5ao+0Iq51Su1Lyt2AbpcPvlH6WPt0wgnglQ3hHxzIfTHkogKg43fuX+9ddf5R9/pa5N23bQtOldMH3aa7Bs2RIYPmKU/IOb3KeXigINRRfPLqKrJzrXc+a8Kc/3eLgnrF+/HtZ89ik82LmLp8ONGX/wkKdkl+uRI4cZtbxaBpzdodg2MC1Djk9PSe4tWt6PyDv/1ao1tGhxt5VGp1yvY4o+vJfKwkuP/TxFJzqy48ZOgB07d8Kg7Azr9lq1akE/0ZK6YcN6cT3HOt/4n3dC69Zt4MiRX2DI4EEWFxWBohPjUuNh3CB0muhDnZRKVpcfTXWiXr9wjejqi+P4vhXd/HNyng6LSn2W1HioQJfGMCM0JyhcNSLk5a7ioxsG/PClQlb2ENHdtQJkipb/3aKVW4UiRYqKvDxAflSaPPlVWG3woQxlmPDq2PE/cPsdjT0/GJrIC7IuUCx0/N0cbvURYfKkVwAnDMNAyduUd4SyS5e3qSxM8gXq1vHAOG6OH563B105ofCyy6Ps+zGj5llqPLRHl0aKzSZxTJ/lhVTOTbhS87ZiF5TD7Zd/lC7eMoF4J0B5R8Q7I07/OQJRcbjPiT+316t3MtSpU1d0df2z1Rv/qGBXyoz0AVYk7K7YW8TzmvDDz+FW3TU/WrYUpk2basmMZIdiG3azxm5h69evg9emTobql9cA/EOdP38C9OvX17OV180eij7nfX4snHHdjik6sTIZP2GinPRuQP++lph6ohfCo6I3AraiTnx2vHVetfDjCbdu/xSdeC81HsYNQqeJPtRJqWR1+dFUJ+r1C+kZWVCxYiWYJBwf7D6NcyXgcA0VqM+SGg/l6tKodFO3FK5UWfZ4tWrXhtTUAbB58yYYNXK4/RI89viTcP319eTHo2cnjBdzFPwecl13YMLr3/95EG677XaYP/8dqFatmuj2XlR0/98F896ea00YaSJP2ZbXukDJ0fF3OtyVKlUW40UfkcN9UsR8GWoyxUjztvMdoezS5W0VD7cmLPzyBcrS8cA4mFYMfmO4deUkUl5SscePHzNqHqPGQxN0afQwM7DTumd5IZVzE652QJS8HZTD7Zd/7DbxPhOIZwKUd0Q88+G0hxKIicONXc26iknPtm//EYYOGSQtUH8yXnzhOTHuOgW+//572UISicONs3xi10YcN40tWDiW8NHHnoDLLrtMjNc859CjYvyTm5CQL4TCqVOn4OTJk9Y5qm0tWt4N993XSrbmFyxYUDqmL7wwMax1XaeTqs8yUOxQXr72+M59qs7sQUOhUqVKcsbTxYsWQem/lRYT4nWGWrVqS0dh/vx5luiygvett94mZ6RfsniRdV7tUHVS46HcIHSa6EOdukqWkh9NdaJer1C/fgPR+yF00i2c3G75R8vEJH7TrNuoz5ISj5JGSzFxR8cVxejKkpuqbt0fhiQxgeNU8WFsxfKPQqJkZGRDlapV4ZJLLpHld+F7C2QPnJBImgMKLxTR6cHOsnzgPo4VL1asmJxwEYekjBj+FJ6WgSpPxc9rXaDk6Pijw42Tpu3du1eO4S5RsqScRHH+O/NCloeMJG+7vSPQLmreVmkwYeGXL1CejgfGwbRi8HK4KeUkEl5SqccPhRk1j1HiUdLoYarnadNyrnuWF1o5p3B1wqHk7SAcbkr+cdrGx0wgHglQ3hHxyIXT7E4g6g43Lpn1pPijBnBGjKseLme1RVPUn4zp06ZAX9H69NNP22HevLcjauHG8ZdXXnkV2CdKS0vPlF1Iez78Z/dSlfycZ8aFrJuK55cuXSxmdT7nmFBsKyr+LONHBGy137btB7E0TEkoLGYrxxl7Fy36UKmTW51Oir4QgeKA8vJ13mM/purEXgc9xaynhQoVEhM9HYNCotU7Qcw8j5PbDRzQL6zbuF2Hc5+qkxrPKd/tmCKLEscuW1fJUvKjqU67fud+/wFpclJCnN0fnWz8CIFjhUuLicCwxfvjs119qc+SEo+SRqedumMdV7xfV5acOnAFgdGjc+D333+HZDH8w60FG8vyTeKjIE6EiI53f9GbQ7XWOuW5HVN44X1t2rSDG8XHkdWrPwac+wC7lqakpMqZndFhO3TokBRPladsyWtdoOTo+KsWbrnOtOCEjhZ+NPhW9KbAeQPUR0vTvO31jkC7qHlbpYHKgpIvdDxQJ6YVg5fDTSknprykQp8fCjNqHqPEo6TRx1zXSyblnPIsUcmFVM4pXJ1gKHk7CIebkn+ctvExE4hHApR3RDxy4TS7E4iqw41LhPTukyxbpV599WU5DluZof5kYJfycuXKiz+bB8WstzUjcrhffmWycOR3Cof+XCsRjhHEMZtOh7t58xbyj66yA7dbt2yRXcPVOYptuPRGvXo3wKxZr8PSJYvlyxy7N6PjP+bpUfDdd98qcaDTSdFnCTu7Q3n5Ou+xH5vorFKlKlx3/fVQvHgJKCpmf8ZWrkUffiDTbpep26fqpMbT6cPrFFmUOHZdukqWkh9Nddr1O/efe/4l4VD+P8D5BHCYBgYc245LDeGY5FdsY5mpz1IXj5JGp526Yx1XvF9Xlpw6mja7Szq6K1cuhymTJzkvhxxjrxgs0zhMwm3SuZDIjgMdL0d06/Be0UPm7rvvCVvGzUReXusCZYyOv3K41aRpuLRXt+49AP/k28dwm+Rtv3cE2mWStzE+lQUlX+h4oD5MKwYvh5tSTkx4SWWaHyozah7TxaOkUWNy2GWTck55lnYFF0o513G124z7lLwdhMNNzT9O+/iYCcQbAco7It6YcHq9CUTN4cZ1cJNT+srxfa+LtalxojR7GDHyabl2tX1sMM5QjjOVv7/wPXjzzTfs0eW+1wsHX/g4btUZcPkxp8PtjON2rLNt7tw58MzYcXJJsCGDsy0RuIxGenqW7BqPf0CpQafPhEU0dZYsWQqyBw2WTh121VctWkHrjISHlw0UWZQ4dvm6SpaSH0112vXb97HV5plnxsteFk8NHWxdwvG12YOGwDdff+U6iRr1WXrFo6TRMoa4o+NKFBMSLTNrkGyJfWroIMFom3UNly08cuQIrBJLXKnQqrVYzrB5y5BeAeoadevFy+v+Jk2aQdt27WV9h/WeM1DkedWLTlm6Yx1/p8ON8q697np44ole8OnqT+Dll1+UKqh5W/eOiCRvU1l45Qs7Ix0PjEtxuHXvJiovu21e+5Ewo+Qx1OcVLxp1gVf63M77Pcv/C+Xci6szrZS8nVeHO5L847STj5lAvBCgvCPihQWnU08gKg53YmKiGJedKpbhKA9z3noTFi5cEGYJzvKNXQmHDxsqxm9vlddxSa+bbm4o/7jhHzhn8HrhtGvXQUxWlj8k+nViIqTChS+NyOHW2fb5mjUwbvyzcPr0H6JlI8VyPNV6qquF7a+c/fMZYpTHgU6fCQsPFWGnI9HZvQtz2icAAEAASURBVEdPaNAgCWbOnAGLHd3mUQE+96Skm8WHiL3whVhb3RmoOqnxgtJpog916ipZSn401YmTbDUTS1sh29lvzApBi3/6ixcvLrv479+/T15TqwJ4fbzSPUulwCseJY1KBnWr40qVo+LVFOts9+s/ELb/+CMMGZKtTsstOjnYHTq1b7I1LAKfyeVi8sPMjDRrOUN1kx9/FQe3XrzwWvsOD0CNy2sC9vbZuXMHnoLHxaRtWFe9+OLzIT2A5EXx4ydPxfGqF9V16lbH383hbivq3iZNmsKypUustcQpeZvyjkC7TfM2hYVfvrCz0vFQ9uHWq4WbUk4ovOx26fKiKTNKHkP9XvEoabTbj73A7mj8T/nBfYpYGeCYmHsl0qB7liblXMfVbqMXC4xjWs79ZNl1UvJ2Xh1u1Geaf+w28j4TiCcClHdEPPHgtPoTiIrDjd2tseI/ePCgnC3ZbsLWrVtkC7BaM/PA/v2AY0+LlygBdeteIyYgOwlpA/tbL+FmzZrLyc9QRiUxZhAn8ML4x8VL+sCBA/DOO2/bxVv7XmO4rQg+OxTb1B/lXWKJoU0bv5NdyvGPBI51fv75ibDWxeH0UknRh/dGysJNL1WnuhfT1lus84yOQnbWuSXC1HXcdhZLut0ilnY7c+YMOFsU8TpVJzVeUDpN9KHOSCpZZ3401an+lKF+XPZu86ZNuCtD27btoUnTZnJWchxfi2Wpdu0r4DcxGWBOzuiQll28gfIsTeJJI8SPM43qPHUbCVc/2eoD3uw3ZsIHH7wfElVNYIZDUTaK4R8VKlaUEwFi/kaH2xn8+Ku4Oq5qqZ3du3fD16LnQZkyZeCqq66GkydOQGZWeti4cT95zSKsF5Wtblsdf3S4cTjJihXLIZ8Yw42z4leqXFlOnJYj1hbfvHmzFEvJ25R3BAqj5G1TFn75ws5FxwPjonOCwcvhlhcdP85yQuFlF6HLixRmSp5fHlNxcEuNp+5xplGdx61aHu/HH7eJ5SOz7ZeM93XP0qSc67gq43QsTMq5TlYzw3IehMNtkn8UE94ygXgkQHlHxCMXTrM7gag43Li8CzrPbuHjj1fBJNHCgwHXcG3U6B9yPe7Tp0/LmXtxiS2ctVcFNSGLOrZvt2/fDoMHZdpPWfvYaoDjAx/pGTppmhVBs6OzDQta5y5d5aRpOGkLOpn4geHdd9+BleIPqWnQ6UN5kbLwsoWiU92rWmGenTBOfvBQ5+3be+69T4xHvVfO2j54cBbkipmYnYGqkxovKJ1UfZieSCpZt/xoolPNiH/ixHHpEKoJthRfbFWpf2MD+eEHyxKyx/kF0LFzBsqzxHuo8ZR8tzSqa5RtJFz95I6f8Bzky5cP+oolq9yGP+DMxtdee52cKRwnVcNVFF5+6UXZi8ApV8cf41N4Ybf1evX+Lp3tS4TTundvLrwxa6ZrmfKTF3RdgPbr+OM678hLBZwvIDc3Fxa+9y6sWfOZOi23urxNfUegMF3eNmWhyxcqIToeGC8Sh9utnOh4KZtwS8mLOmZKnl8eU3FwS42n7nFLo7qWkZkNVatWAxxqtmRJ+GoWKh5lS3mW1HJO4Yo2UVhQy7lOlmneDsLhxjRS8w/G5cAE4pUA5R0Rr2w43eEEouJwh6vxPoMT72Cr9eHDh6xZer1jx/YK1TYcL4uzdh84sD9PBlL15UmJ4+agdZYpW1Z00T3quw45VSc1XlA6qfqCrGSpOvGxUdKJrY7Hjh294MqSI9u5HgbJ1VWBx0n8858rHF9cTtAvUPj73W+/hhNFopOPDveFEoLmb5K3KQxinbcpPFT32//97yeZBFxW7ssv11KSExbHhBc1L8aaWViiHCfw4/TYcc/KXh2pYmZ+NcmjI1pUDinlnMqVamCsynnnzl2hvJgkFnvYoc4P3l8ol/J0s5OSr9V9F1r+UXbxlglcCARMytKFYC/bcH4JRORwFyhQAPAr9RYxu/e016ac3xSwdiYQYwKc/6MDnLlGhytVKvMPJUXh0UcMs8EhHCosWCBa+z/7VB3y1kEgKekmMbP9w2IS1aUwfdpUx1U+jJTAQ2KFlMpieIcKOBmkc3lSdY2Sr1Vc3jIBJuBNgMuSNxu+Ek4gIoc7XAyfYQJMgAkwASbABJiANwF0uHGSwLffngO7xfwnHJgAE2ACTIAJxAMBdrjj4SlzGpkAE2ACTIAJMAEmwASYABNgAkwg5gTY4Y45clbIBJgAE2ACTIAJMAEmwASYABNgAvFAgB3ueHjKnEYmwASYABNgAkyACTABJsAEmAATiDkBdrhjjpwVMgEmwASYABNgAkyACTABJsAEmEA8EGCHOx6eMqeRCTABJsAEmAATYAJMgAkwASbABGJOgB3umCNnhUyACTABJsAEmAATYAJMgAkwASYQDwTY4Y6Hp8xpZAJMgAkwASbABJgAE2ACTIAJMIGYE2CHO+bIWSETYAJMgAkwASbABJgAE2ACTIAJxAMBdrjj4SlzGpkAE2ACTIAJMAEmwASYABNgAkwg5gTY4Y45clbIBJgAE2ACTIAJMAEmwASYABNgAvFAgB3ueHjKnEYmwASYABNgAkyACTABJsAEmAATiDkBdrhjjpwVMgEmwASYABNgAkyACTABJsAEmEA8EGCHOx6eMqeRCTABJsAEmAATYAJMgAkwASbABGJOICKHOyEhP3Tr3gN2/PwzLFgwP+ZGs0ImcD4JcP6PDn3mGh2uVKnMP5QUhUeHBzpCYmJx68ZVq1bC119tsI55hwnEgkCrVvdDmbJlLVXr1n0Jn67+xDq271DytT0+7zMBJuBOgMuSOxc+604gIoe7YMFC8PwLL8FX4o/F2GfGuEsWZwsUKACVK1eBgwcPwoED+13jYYatUqUKHD16FPbuzXWNc75OUm2rXv1y+OWXX2D//n15MpWqL09KHDeb6MRneejwITgi0pqXQNVJjUexhSKLEgd1UfN/UHZR5JjGCepZmur1ix8kVz890bwWNFeKvKDqn6D5U8oT5R0RzeflJ5vCY+SoMVCiRAk4fuyYFDVn7luwauUKP7Ge1yi8PG/OwwVKHsuD+Ivy1iCZUWX5lfMnnuwN1apWg/x/+QsULlwYPnh/IcyePcuVPSVfu97IJ5kAEwghwGUpBAcfaAhExeHGPw6dOj0IDZJugvz580sTdu7cATNnvg7fffuNZVKHDh2hUaNboUDBgvJcbm4uzH5jJuDXWXtITEyELl27wdVX15Gnhw8bClu3brFHsfYrVKgIaekZcOzYceib0ts6b7pDsa19hwegYcNGcOmll8KZM2dg3769MGPG9IhaOCj6MA0mLHRppurEdNavnwRFixaFP/74A3Jz98As8Sy/+eZrnYqw61Sd1HhhClxOUGRR4ijRJpWsX3400al067bde/SEBg2SYMb012Dp0iVh0anPUpfPRo56GkqX/luYfDyB5aBfaorrNb+TJlz95FBs69zlIbjllkZhYvDDWe9ej4ed152gcDXRSZGHcYKqfzB9Ov69evWButdca6E4ceIEYL0+VziZmzdtss7jji5vU98RdqF+eVuXX1EOJV/Y9el4/Cnzzw/O/VKT7be67se6LkAj/JhR8hjK0LE15Yoy8xqoOk3KHMUmCjOqToostMmknN94Y314uOejgTncfvmHwovjMIGLmQDlHXExp5/TZkYgKg43dm9q3qKlaNk+ABs2bIBy5cpBzZq1RAvwfsjMSINTp36FO+9sAu3aPwCHDx+GtV/8F0qWKgV1hEN9/PhxyMxKt1pRr7jiSujcpSuUKlVatoIXKVIERo8aARs3fuea0j7JfaVjPnXKJFixYrlrHN1Jim0tW94D9/2rlXAu9ok0rpPdCuvWvUY43qeFo99HOPx/tnjodOF1ij6MZ8oC7/EKVJ33t2kLzZo1l70PPv98DRQrWgySbroZfvvtN8jJGQ3bfvjBS0XYeapOarwwBS4nKLIoceyiTSpZr/xoqtOu32u/WvXq0L9/GuzevRuyMtPColGfJSWfYcselsUv/vu5pSchIUHmjV27dkF6Wn/rPHXHhKufTIptNze8BWqJOkmFUqVLQ+3aV8CePXtg4IBUdZq0pXKl6qTIC7L+UYnU8UeHu46o41aKFtyEfPng8ho1oGzZy0TvpQOQJersE6LuxkDJ25R3hLILt355m5JfUQYlX2A8FXQ8MB7KxEBxuGNZF6BNfswoeQxlUNiackW5eQ1UndQyR7GHyoyikyrLtJwH6XD75R8KL47DBC52ApR3xMXOgNNHJxAVh3vI0OHSyc7KTIcdO36W1gwYmA41atSEsWPHwFfCCU/tN0D+wc0ZM9pqKX3k0cfhhhv+DlOEs7zyrLOM8fC+9xa8C4nFE0WL+D88HW50BB96qDts2bIZRo4YRqfgiEmxLaVvP/lnBPWgPgzduvWQDserr7wEn3zysUOq9yFFH95twsJb259XqDqfGjYCypQpKz+U7Nq1U97c8d+d4Pbb75Dj9+fOeStEVeG//tX64x1yQRxQdVLjKfl51Wmqj1rJ+uVHU50qrX7bPn1S4Crx0eq5iRNg7dovwqJSnyXapitzbo7GXXe1gNb3t4HFiz+Ema/PCNOvO0HlqpNjalv58hUAyzN2b54wfixs2rRRpyLkOpWr/SY/nRR5QdY/yi4df+Vwd+3SSd0Cql4fL7itP9sziZK3Ke8IS4nY8cvblPyKskzzhY6Hl0w87wyxrgtQvx8zSh5DGRS2plxRbl5DJDr9yhzFHiozuywvnVRZpuU8SIfbL//Y08j7TCBeCVDeEfHKhtMdTiAqDjd+yf/111/lH3+lsk3bdtC06V0wfdprsGzZEhg+YpT8g5vcp5eKAg1FF88uoqsnOtdz5rwpz/d4uCesX78e1nz2KTzYuYunw40Zf/CQp2T3t5Ejhxm1vFoGnN2h2DYwLUOOT09J7i1a3o/IO//VqjW0aHG3lUanXK9jij68l8rCS4/9PEUnOrLjxk6AHTt3wqDsDOv2WrVqQT/Rkrphw3pxPcc63/ifd0Lr1m3gyJFfYMjgQRYXFYGiE+NS42HcIHSa6EOdlEpWlx9NdaJev3CN6OqL4/i+Fd38c3KeDotq8iwp+ayr+LCFAT8uqZCVPQQqVKgAmaJ1fbdo5TYNFK4UmSa2FSlSVOTlAfKj0uTJr8Jqgw9laIsJV2W7n06qvCDrH2WXjr+bw42ThjVufCdMnvQK4IRhGCh5m/KOUHbp8jYlv6Isk3yB8XU8MI6b44fn7SHWdQHq9mNGzWMoh8LWlCvKzWsw1elX5ii2mDBT8rx0msgyLedBOdx++Uelj7dMIN4JUN4R8c6I03+OQFQc7nPiz+316p0MderUFV1d/2z1xj8q2C05I32AFQm7K/YW8bwm/PBzuLF7OnZl/GjZUpg2baolM5Idim3YzRq7ha1fvw5emzoZql9eAzp2/I8Ys54A/fr19WzldbOHos95nx8LZ1y3Y4pOrEzGT5goJ70b0L+vJaae6IXwqOiNgK2oE58db51XLfx4wq3bP0Un3kuNh3GD0GmiD3VSKlldfjTViXr9QnpGFlSsWAkmCccHu3bjXAk4XEMF02ep7qPms1q1a0Nq6gDYvHkTjBo5XN1utKVwNRJ4NrKfbY89/iRcf309+fHo2QnjxRwFvxupiISrn06qvCDrH5VgHX+nw12pUmUxXvQROdwnRcyXoSZTjDRvO98Ryi5d3lbxcEvNrxjXL1/gdR0PjINpxeDXpTzWdQHa48eMmsdQjj1Q2eq42mUGta/T6VfmKDZEwsxLp4ks03IelMPtl38ovDgOE4gHApR3RDxw4DTSCMTE4cbudF3FpGfbt/8IQ4cMkpapP2UvvvAc9ElOge+//162kETicOMsn9i1EcdNY+sajiV89LEn4LLLLhNjSc859KgYvzonJOQLoXPq1Ck4efKkdY5qW4uWd8N997WSrfkFCxaUjukLL0wMa13X6aTqswwUO9Q/P/Z77PtUndmDhkKlSpXkjKeLFy2C0n8rLSbE6wy1atWGeW/Phfnz51liywret956m5yRfsniRdZ5tUPVSY2HcoPQaaIPdeoqWUp+NNWJer1C/foNREvUIyGXcXK75R8tE5P4TbPOmzxLdRM1n3Xr/jAkiUkSp4qPTyuWf6RuN9rquKIwXVlyU+hnW0ZGNlSpWhUuueQSWX4XvrdA9sBxk+N1zpSrTidVHrX+8bLbeV7HHx1unDRt7969cgx3iZIl5SSK89+ZF7I8ZCR52+0dgfZR87ZKCzW/Yny/fIHXdTwwDqYVg5fDHeu6AG2hMKPmMZSnApWtjquS57c1Lec6nboy52eLumbKzE+niSyTch6Ew03JP4oJb5lAPBOgvCPimQ+nPZRA1B1uXMriSfFHDeCMGFc9XM5qiyaoP2XTp02BvqJl7KeftsO8eW9H1MKN45yuvPIqsE+UlpaeKbu39nz4z66vKtk5z4yTE5ypY9wuXbpYzOp8zjGh2Fa0WDH5EQFb7bdt+0EsDVMSCovZynHG3kWLPrSLB51Oir4QgeKA+ufHeZ86purEXgc9xaynhQoVEhPaHYNCotU7Qcw8j5PbDRzQL6zbuJLvtqXqpMZz0+E8R5FFiWOXq6tkKfnRVKddv3O//4A0OSkhzu6PTjZ+hMBuvqXFRGDY4v3x2a6+kTxLSj7DWfpHj86B33//HZLFEAvTVmKVHh1XjKcrS0qW2lJsw7J8k/goiBMUoePdX/TmUK21So7fNhKufjop8kzqHz/b7dd0/FULt1xnWnBCZ7KYYPet6E2B8waoj5amedvrHYG2UfO2Sgclv2JcSr7Q8UA5mFYMXg53rOsCtIXCjJLHUJY9UNhSuNpleu2blHOqTr8y52WH/XwkzLx0UmWZlvMgHG5K/rFz4X0mEK8EKO+IeGXD6Q4nEFWHG5dB6d0nWbZKvfrqy3IctjJB/SnDLuXlypWHQ4cOillva0bkcL/8ymThyO8UDv1TSrxoNe/r6nA3b95Cjru0IoqdrVu2yK7h6hzFNlx6o169G2DWrNdh6ZLFgC9G7N6Mjv+Yp0fBd999q8SBTidFnyXs7A7lz4/zHvuxic4qVarCdddfD8WLl4CiYmZqbOVa9OEHMu12mbp9qk5qPJ0+vE6RRYlj16WrZCn50VSnXb9z/7nnXxLO7v8DnE8Ah2lgwLHtuDQTjkl+xTbO2vRZUvJZ02Z3QZs27cTs1cthyuRJTvPIxzquKEhXlpzKTGzDXjFYpnGYhNukc07Z9mNTrupeL506eSb1j9Kl2+r4K4dbTZqGS3t1694D8E++fQy3Sd72e0egvSZ5G+NT8ivGo+QLHQ+Ug2nF4OVwx7ouQFuozHR5DGXZA4Uthatdpte+STk31elV5rxssZ83ZabuddNJkWVazoNwuKn5R6WNt0wgXglQ3hHxyobTHU4gag43rtGbnNJXju97XaxNjROl2cOIkU/LtavtY4NxhnKcqfz9he/Bm2++YY8u971e+PinBsetOgMuP+Zs4XbGcTvW2TZ37hx4Zuw4uSTYkMHZlghcRiM9PUt2jcc/oNSg02fCIpo6S5YsBdmDBkunDrvqqxatoHVGwsPLBoosShy7fF0lS8mPpjrt+u37+KHnmWfGy14WTw0dbF3C8bXZg4bAN19/5TqJGvVZepU5S5HYycwaJFs7nxo6SNixzX7JaF/H1UjY2chetuGyhUeOHIFVYokrFVq1FssZNm8Z0itAXaNu/bhGotNNHjq6QdY/Km06/k6HG++79rrr4YknesGnqz+Bl19+UYqi5m3dOyKSvE3Jr2ikV76QCTj7o+OB0SgOt+7dROVlt81rPxJmbnnMTT6FLYWrm+y8nPPTGUmZo9jix8xUp5esSMp5Xh3uSPIPhRfHYQIXIwHKO+JiTDenKTICUXG4ExMTRQtzKpQvXx7mvPUmLFy4IMw6nH0TuxIOHzZUjN/eKq/jkl433dxQ/nHDP3DO4PXCb9eug5isLH9I9OvEREiFC18akcOts+3zNWtg3Phn4fTpP0TLRorleKr1Z1cL2185++czxCiPA50+ExYeKsJOR6Kze4+e0KBBEsycOQMWO7rNowJ87klJN4sPEXvhC7G2ujNQdVLjBaXTRB/q1FWylPxoqrNatWrQTCy7hWxnvzErBC3+6S9evLjs4r9//z55Ta0K4PXxSvcslQKvMqeu1xRrWffrPxC2//gjDBmSrU5HtNVxNRXqZxs6OdgdOrVvsjUsAp/J5WLyw8yMNGs5Q6XTj7+Kg1s/rqY6veThH/Eg6x9lv46/m8PdVtS9TZo0hWVLl8D06a9JUZS8TXlHoDDTvK3LryjTL1/gdRV0PDCezuGOdV2gbDKpD/zyrGKBWx1bKlfsBXZH43/KD+5TxMoAx8TcK5EGnU6TMkct42irHzMTnX6yIinneXW40R7TMof3cGAC8UiA8o6IRy6cZncCUXG4sRsUVvwHDx6UsyXbVW/dukW2AKs1ew/s3w849rR4iRJQt+41YgKyk5A2sL/1Em7WrLmc/AxlVBJjBnECL4x/XLykDxw4AO+887ZdvLXvNYbbiuCzQ7HtcTG7MTr1u8TyR5s2fie7lOMfCRzr/PzzE2Gti8PppZKiD++NlIWbXqpOdS+mrbdY53nnzh2QnXVuiTB1HbedxZJut4il3c6cOQNurZ1UndR4Qek00Yc6I6lknfnRVKf6g4f6cdm7zZs24a4Mbdu2hyZNm8lZyXF8LZal2rWvgN9OnRKt26PDWp11z9Ikn6mPZLPfmAkffPC+MimibSRc/RT52dbpwc6AE/zhUJSNYvhHhYoV5USAmL/R4XYGP/4qro6rqU4/eUHWP8p+HX90uHE4yYoVyyGfGMONs+JXqlxZTpyWM2aUmKF+sxRFyduUdwQKo+Rtk/yKMv3yBV5XQccD4+kcbiXLvo1mXYB6KMyUPX55DOOYsKVyxdU8br+jMfz44zaxfGS2MiWirU6nSZmjlHE0UsfMRKdOlmk5D8LhNsk/ET00vokJXCQEKO+IiySpnIwACETF4cblXdB5dgsff7wKJonx3BhwDddGjf4h1+M+ffo07NmzRy6xtWXLn3/cMI6adAb3nWH79u0weFCm87Q8xlYWHB/4SM/QSdNcI7uc1NmGBa1zl65yqTOctAWdTPzA8O6778BK8YfUNOj0obxIWXjZQtGp7lWtVs9OGCc/eKjz9u09994Hd999r5y1ffDgLMgVz9MZqDqp8YLSSdWH6YmkknXLjyY61Uy1J04clw7hoUOHQtC27/AA1L+xgfzwg2UJ2eP8Al+LLuXOoHuWJvls/ITnIF++fNBXLAtlOsTAaVckXJ0y7Mc623Bm42uvvU5OoIUTvuEqCi+/9KLsRWCXg/s6/hhHxxXjmOj0kxd0/YO26fjjOu/ISwWcLyA3NxcWvvcurFnzmTott7q8TX1HoDBd3jbJryhPly8wDgYdD4wTicMd7boA7dIxwzgY/PIYXjdhS+WakZkNVatWAxxqtmRJ+GoWqJcaKDqpZY5SxtEuHTOMQ9Wpk2VazoNwuNF+av7BuByYQLwSoLwj4pUNpzucQFQc7nA13mew2xS2Wh8+fEhMnBbqRHjfFZsrVNtwvCzO2n3gwP48GUbVlycljpuD1lmmbFnRRfeo7zrkVJ3UeEHppOoLspKl6sTHRkkntjoeO3b0gitLjmznehgkV1cFHifxz3/u3lzfPIu3Uvh7qAg7TdUZdqPLiaDqn6D5m+Rtl2SFnYp13qbwUN1v//e/n6S9uKzcl1+uDbOdcsKEFzUvxpqZLp34cXrsuGfh5IkTkJqabE3yqLsviOuUMkflSrWHopMqy6+cd+7cFcpXqCB72OEktB+8v1Au5ekmm5Kv1X0XWv5RdvGWCVwIBEzK0oVgL9twfglE5HAXKFAA8Cv1FjG797TXppzfFLB2JhBjApz/owOcuUaHK1Uq8w8lReHRRwyzwSEcKixYIFr7P/tUHfLWQSAp6SbZ+rts2VKYPm2q4yofRkrgIbFCSmUxvEMFnAzSuTypukbJ1youb5kAE/AmwGXJmw1fCScQkcMdLobPMAEmwASYABNgAkzAmwA63Dj3ydtvz4HdYv4TDkyACTABJsAE4oEAO9zx8JQ5jUyACTABJsAEmAATYAJMgAkwASYQcwLscMccOStkAkyACTABJsAEmAATYAJMgAkwgXggwA53PDxlTiMTYAJMgAkwASbABJgAE2ACTIAJxJwAO9wxR84KmQATYAJMgAkwASbABJgAE2ACTCAeCLDDHQ9PmdPIBJgAE2ACTIAJMAEmwASYABNgAjEnwA53zJGzQibABJgAE2ACTIAJMAEmwASYABOIBwLscMfDU+Y0MgEmwASYABNgAkyACTABJsAEmEDMCbDDHXPkrJAJMAEmwASYABNgAkyACTABJsAE4oEAO9zx8JQ5jUyACTABJsAEmAATYAJMgAkwASYQcwLscMccOStkAkyACTABJsAEmAATYAJMgAkwgXggwA53PDxlTiMTYAJMgAkwASbABJgAE2ACTIAJxJwAO9wxR84KmQATYAJMgAkwASbABJgAE2ACTCAeCLDDHQ9PmdPIBJgAE2ACTIAJMAEmwASYABNgAjEnEJHDnZCQH7p17wE7fv4ZFiyYH3OjWSETOJ8EOP9Hhz5zjQ5XqlTmH0qKwqPDAx0hMbG4deOqVSvh6682WMe8wwRiQaBVq/uhTNmylqp1676ET1d/Yh3bdyj52h6f95kAE3AnwGXJnQufdScQkcNdsGAheP6Fl+Ar8cdi7DNj3CWLswUKFIDKlavAwYMH4cCB/a7xMMNWqVIFjh49Cnv35rrGOV8nqbZVr345/PLLL7B//748mUrVlycljptNdOKzPHT4EBwRac1LoOqkxqPYQpFFiYO6qPk/KLsockziUNNpIjOIuEFyDcKeSGRQygilXkTd1HiR2Ol2T9D8Kfks1ml0S7fXOQqPkaPGQIkSJeD4sWNSzJy5b8GqlSu8RPqep/DyFRDBxfOhMwIzL7hbgirnQeX/J57sDdWqVoP8f/kLFC5cGD54fyHMnj3LlRslX7veyCeZABMIIcBlKQQHH2gIRMXhxpd4p04PQoOkmyB//vzShJ07d8DMma/Dd99+Y5nUoUNHaNToVihQsKA8l5ubC7PfmAn4ddYeEhMToUvXbnD11XXk6eHDhsLWrVvsUaz9ChUqQlp6Bhw7dhz6pvS2zpvuUGxr3+EBaNiwEVx66aVw5swZ2LdvL8yYMT2iFg6KPkyDCQtdmqk6MZ316ydB0aJF4Y8//oDc3D0wSzzLb775Wqci7DpVJzVemAKXExRZlDhKtEkl65cfTXQq3W7bkaOehtKl/+Z2SebJfqkp1jVTnd179IQGDZJgxvTXYOnSJZaczl0egltuaWQdqx388NS71+Pq0GhrwtVPMIVH0PZTygi1XqTEC9p+5Knj36tXH6h7zbUW+hMnTgDW63OFk7l50ybrPO7o8hkljSECxYFXXsR4lHqRki/sOnU8MC463Bj6pSbLrd9PLOoC1E9Np+4ZOdPixT8aedGp23lMTWPQtgVVzqn539T+G2+sDw/3fDQwh9vrmTufBx8zgXgkQHlHxCMXTrM7gag43Ni9qXmLlqJl+wBs2LABypUrBzVr1hItwPshMyMNTp36Fe68swm0a/8AHD58GNZ+8V8oWaoU1BEO9fHjxyEzK91qRb3iiiuhc5euUKpUadkKXqRIERg9agRs3Pida4r6JPeVjvnUKZNgxYrlrnF0Jym2tWx5D9z3r1bCodkn0rhOdiusW/ca4XifFo5+H+Hw/9niodOF1yn6MJ4pC7zHK1B13t+mLTRr1lz2Pvj88zVQrGgxSLrpZvjtt98gJ2c0bPvhBy8VYeepOqnxwhS4nKDIosSxizapZL3yo6lOu37nPv7px3LxxX8/ty4lJCTI57Rr1y5IT+svz5vqrFa9OvTvnwa7d++GrMw0Szbu3NzwFqglyrQKpUqXhtq1r4A9e/bAwAGp6rTR1oSrn2AKjyDtp5YRSr2I6aLEC9J+xVLHHx3uOqKOWylacBPy5YPLa9SAsmUvE72XDkCWqLNPiLobAyWfUdKo7MKtX16k1ouUfGHXqeOBcU0c7ljUBcomXX1AeUZ2Fn78o5EX7brd9qnPMkjbgizn1Pxvan+QDrffM3d7JnyOCcQbAco7It6YcHq9CUTF4R4ydLh0srMy02HHjp+l9gED06FGjZowduwY+Eo44an9Bsg/6DljRlstpY88+jjccMPfYYpwlleedZYxHt733oJ3IbF4omgR/4enw42O4EMPdYctWzbDyBHDvFOtuUKxLaVvP+kAox7Uh6Fbtx7SyXn1lZfgk08+1mg5d5miD2ObsDgn3X2PqvOpYSOgTJmy8kPJrl07pbCO/+4Et99+hxy/P3fOWyEKCv/1r9Yf75AL4oCqkxpPyc+rTlN91ErWLz+a6lRpddu6/em/664W0Pr+NrB48Ycw8/UZ8jZTnX36pMBV4iPYcxMnwNq1X7iplufKl68AWB6we+SE8WNh06aNnnH9LlC5+snAa1QeSk5e7aeWEUq9iDZR4wVlv5Kj468c7q5dOqlbQNXr48VzX3+2ZxIln5mm0S8voj7KO8I0X+h4IAQ3mRYc206s6gIvm5z1AeUZ2cwHP/72eHktS3ZZfvtu3J1pdN6fV9uCLOem+R/TQrE/SIeb+sydnPmYCcQLAco7Il5YcDr1BKLicOOX/F9//VX+UVcmtGnbDpo2vQumT3sNli1bAsNHjJJ/0JP79FJRoKHootpFdFVF53rOnDfl+R4P94T169fDms8+hQc7d/F0uDHjDx7ylOxaOHLkMKOWV8uAszsU2wamZcjx6SnJvUXL+xF5579atYYWLe620uiU63VM0Yf3Ull46bGfp+hER3bc2AmwY+dOGJSdYd1eq1Yt6CdaPjdsWC+u51jnG//zTmjdug0cOfILDBk8yOKiIlB0YlxqPIwbhE4TfaiTUsnq8qOpTtTrFbqKj0wY8EOPClnZQ6BChQqQKVqmd4tWbgwmOq8RXYdxXOC3YthATs7TSmzYtkiRoiIvDJAfZSZPfhVWG3xocgqjcHXe43ZM5YH35tV+kzJCqRfRJmq8IOxHGSro+Ls53DhpWOPGd8LkSa8AThiGgZLPTNKoy4vUetEkX2A6dDwwjpvjh+ftIZZ1AeqlpJPyjFQadPxVvLyWJSWHsqWk0S4nr7YFXc5N8j+mg2p/UA439ZnbGfM+E4g3ApR3RLwx4fR6E4iKw+2mrlfvZKhTp67omvpnqzf+UcFuyRnpA6zo2F2xt4jnNeGHn8ON3dOxm9xHy5bCtGlTLZmR7FBsw27W2MVs/fp18NrUyVD98hrQseN/xJj1BOjXr69nK6+bPRR9zvv8WDjjuh1TdGJlMn7CRDnp3YD+fS0x9UQvhEdFbwRs9Zz47HjrvGrhxxNu3f4pOvFeajyMG4ROE32ok1LJ6vKjqU7USw21ateG1NQBsHnzJhg1crh1m4nO9IwsqFixEkwSjhR2T8e5F3D4hzM89viTcP319eTHl2cnjBdj/H93RiEfU7iShdkievHAKHm137SM2MySu8560XldHXvFy6v9Sj5udfydDnelSpXFeNFH5HCfFDFfhppM0SSf2fV7pZGaF1GWSb3oly9Qlo4HxsG0YvAbw30+6wK0zS2dJs+Iyj/IvIh2mwS3NNrvz6ttsSjnXvkf00G1PyiHm/rM7Yx5nwnEGwHKOyLemHB6vQnExOHG7nRdxaRn27f/CEOHDJLWqBf+iy88J1p0UuD777+XLSSRONw4Yyh2bcRx09iih2MJH33sCbjsssvE+NVzDj0qxi/FCQn5QoicOnUKTp48aZ2j2tai5d1w332tZGt+wYIFpWP6wgsTw1rXdTqp+iwDxY7JH0v7fWqfqjN70FCoVKmSnPF08aJFUPpvpcWEeJ2hVq3aMO/tuTB//jwlEsoK3rfeepuckX7J4kXWebVD1UmNh3KD0GmiD3XqKllKfjTViXqpoVv3hyFJTFg4VXwIWrH8I+s2qs769RuI3hSPWPfhDk6Wt/yjZWJSwGkh5zMysqFK1apwySWXyPy/8L0FsgdLSCTigY4ritGVJTdVXjwwbhD2m5QRu31u9aL9utr3ixeE/UqPjj863Dhp2t69e+UY7hIlS8p8Mf+deSHLQ1LzmdKLW680muRFlGNSL/rlC5Sl44FxMK0YvBzu810XoG1u6aQ+IxP+QeZF03LulkZMuwpB2BbNcu6V/03tD8LhNnnmyj7eMoF4JEB5R8QjF06zO4GoO9y4ZNaT4o8awBkxrnq4nNUWTVEv/OnTpkBf0Rr300/bYd68tyNq4cbxo1deeRXYJ0pLS8+UXWp7Pvxnd1uV/JxnxskJztQxbpcuXSxmYT7nSFBsK1qsmPyIgK3227b9IJaGKQmFxWzlOGPvokUf2sWDTidFX4hAcWDyx9J5Lx5TdWKvg55i1tNChQqJCe2OQSHR6p0gZp7Hye0GDugX1m3cTZc6R9VJjafk+m0psihx7Dp0lSwlP5rqtOv328cZ80ePzoHff/8dksVwB3uL8/9v77zjriiuPn4CBJV8xIcWURAQCxh7eRXUmESNgKDRqIDoGwVURKORDtIeiiIg1S4qKChYwIaIUhSsGAt2SiKotAdpUsVX4Z0zMMvevbs7Z+6z9z7w3N/8cbfNnnPmOzO79+w0qc7uPXrqSQ55tQB2svmjBncbrqYmRuMW77d3dx02dnBdOFN9VOOJBNnx7q56Q5jWThNHsrVxZRm2uhTUE8fDxC2u/ZnUkajnorHJbCXximu/0WXjb1q49TrTKp/ZmTxI5f2XqvcDj/M3Hy2l5czojUuja1mUPhcl5cLGg+3ntHKIcrhL8lnAdkWlU5pHrvyTKosu9TwqjZx+fyiubdmq53Hl39X+JBxu1zz324h9EMgnApJ3RD7xQFrjCWTV4eZlUDp07KRbpR59dIweh23MMS987lJ+6KE1aP36dWrW26MzcrjHPDJWOfLLlUN/hxGvx0HyGNagw920aTPi8Vj+sHjRIt013JyT2MZLb5x66mk0adJTNGvmDOKXOXdvZsd/2N1D6KuvvjTiyKZTos8TtntH+scyeJ85dtFZp87hdPIpp1ClSpWpopoNm1u5Xn9tuk67kSfZSnVK4yWl01Wf7SErKY+uOiVp5TiNm1xIzZu3VDNJv0njxj6WcptU5/0PPKwc9v8jnp+Ah31w4LHyvIwQj9F+xDdW3K+Ae5VwneBhBnGTrPnv8e/buHJcW13yy+P9OB7BuMWx36WOxD0X/TZJ45l7imM/y7DxNw63mTSNlza6/oZ2xH/y/WO4peWMddrS6FoWpc9FSbmw8WD7Oa0cohzuknwWsF1R6ZTmkSt/1smhuGXRpZ5HpXGXJem/xbEt6XpuK//p1sezTcLhzjTPw2zFORAozQQk74jSnH6kzY1A1hxuXhe4U+cuenzfU2ptap4ozR/uGny3XrvaPzaYZyjnmcpfnfYKPfvs0/7oej/qzxT/qeFxpsHAy48FHe5gnLBjm21TpkymESNH6SXBBvQv9ETwMhq9evXVXeP5D6g02PS5sMimzipVqlJhv/7aCeOu+qZFK2mdmfCIskEiSxLHL9/2kJWUR1edfv1x+3369tMtj3cM7Kd6XnyTElWikz8cjRgxWvfauGNgf+9+Hq9b2G8AffH5Z3oSNV72b+PGjfSWWiLKhMsuV8sBNr0otBXcxInb2rjG3Rt1LYpHNuxnG2x1xPZcNOmwxcuG/Tb+QYebbT3p5FPo1ltvo/fefYfGjHlImy8pZxzRlkZpWdRKd/9EvSP8cXg/qlz449l4cFyJw217N0l5+W2T7kelU6JTyj8bZVGaPo4XlUa+li3bkqjntvKfif3Fdbilec62IYBAvhOQvCPynRHSv4dAVhzugoIC1cLcVS1jUYMmP/csTZs2dY/G3Xs8yzd3pRp050A1fnuxPstLep151tn6jxv/gQuGqD9TLVu2UpOVlUuJfrKayKlChQMycrhttn0wbx6NGn0v7djxq2rZ6Ow5nmZt03eV7Y/s/vOZYlTEgU2fC4sIFWmnM9F5Q7v21KBBQ5o48UmaEeg2zwo43xs2PEt9iFhNH6q11YNBqlMaLymdLvpYp+0hKymPrjrr1q1LTdRSX8z2macnBdHqY17rvlv322npkiU0YEBhWhypTnYiKlWqpIcMrFnzg5ZjVhkwH8P4Dzt3J+7apZM3rIDlH6kmD+zTu6e3HGCaETEnbFxjbg29FMfD1X4JfzYiro5InossQxLP1X6Waws2/mEOdwv17G3UqDHNnjWTJkx4QquQlDNJGlmYpCz60xX1jvDHiSsX/ng2HhzX5nCX1LOAbYtLpySPTPqSfhZwL7Dzzv+r/uA+Tq1ssFnNvZJpiEsjy3SpJ9I6znKLW8+l5d/FfraruA43y3Ctc3wPAgjkIwHJOyIfuSDN4QSy4nBzd2t+8K9bt07PbuxXvXjxIt0CbNbMXLtmDfFY0UqVK9MJJ5yoJiDbRj1v7+69hJs0aaonP2MZtdSYQZ7Ai+NvUS/ptWvX0osvPu8X7+1HjeH2IsTsSGy7Rc3OzE79CrXk0oKvv9JdyvmPBI91fuCB++ijEIczSqVEH9+bKYswvVKd5l5OWwe1LvPy5cuosO+eJcLMdd62Vku6/VEt7bZz504Ka2GV6pTGS0qniz7WmclDNlgeXXWaP3isn5e9W7hgAe+mBPPB6pmnJ9L06a+mXOMDqc4WLa6kRo2b6FnJebwu18369Y+hn7dvV63bQ3XL+TXXtiaeII+Hcnythk/UPOwwPZEelw92uDMJmXCN0xPHw9V+CX9bHZE8Fzk9kniu9sdxMtds/Nnh5uEkc+a8SWXUGG6exb5W7dp64rThw4aoWfEXalGSciZJIwuTlEXX52JcuTAseGvjwXFsDjfHCYZcPAtYZ1w6JXnEMiT8Xcsir+Zx7nnn05Il36jlIwtZTcYhLo0s1MU2SR1nmUnUc2n5d7GfbUvC4ZbkOetCAIF8JyB5R+Q7I6R/D4GsONy8vAU7z2Hh7bffosfUeG4OvIbrOef8Wa/HvWPHDlq1apVeYmvRol1/3DiOmXSG94Nh6dKl1L9fn+Bpfcxf8Hl81E3tUydNC40cctJmG1e01m3a6qXOeNIWdjL5A8PLL79Ic9UfUtdg08fyMmURZYtEp7nXtIjce88o/cHDnPdv/3bJpXTxxZfoWdv79+9LRSo/g0GqUxovKZ1SfZyeTB6yYeXRRaeZEX/r1i3aoV2/fn0QrVrC7X4qU6YMdVFLNEV195fqvLLVVXTG6Q30hySum5yXPF/B56pLuQk8M/BJJ52sJ2biSdp4FYIxDz+kW+FNHJdtJlzj5Nt4uNgv4W+rI9LnojSei/1xnMw1G39el53z2wQe319UVETTXnmZ5s1735zWW1s5k6aRhdnKoutz0VYuTEJsPDheJg53Lp4FbJstnbY8YhkcbPw5jktZ7N2nkA4/vC7xULOZM9NXs2B50mBLI8uR2iap4ywviXruUv6l9rNtSTjcLEeS5xwPAQTymYDkHZHPfJD2VAJZcbhTVcQf8cQ73Gq9YcN6NXFauhMRf3d2r0pt4/GtPGv32rVrimWQVF+xlARuTlrnwdWrqy7Gm2LXIZfqlMZLSqdUX5IPWalOzjZJOgPZG3roopNbMTdv3hRbN/nPc9Hqotg8DzUkcDJJrgHRsYdS+5PiH2tMBhel9ttEJ83fpZzZbOPrkrIokSONI+Fhut9+9923Wiwvi/fxxx9JVaTEc+GVVFl00SnhbyuL/HF65Kh7advWrdS1aydvUsYUEFk6sNnGapPimo0kxNnfunVbqqEmieUedjwJ7fRXp+mlPMPskJRrc58kz01cbEEg3wi41KV8Y4P0phPIyOEuX7488VfqRWp27/FPjEuXijMgUIoJoPxnJ3PBNTtcpVLBP5WUhEdHNcyGh1yYMHWqau1//z1ziG2AQMOGZ+oW59mzZ9GE8Y8HruIwUwLXqRVSaqvhHSbwZJbB5UnNNUm5NnGxBQEQiCaAuhTNBlfSCWTkcKeLwRkQAAEQAAEQAAEQiCbADjfPffL885NppZr/BAEEQAAEQAAE8oEAHO58yGWkEQRAAARAAARAAARAAARAAARAIOcE4HDnHDkUggAIgAAIgAAIgAAIgAAIgAAI5AMBONz5kMtIIwiAAAiAAAiAAAiAAAiAAAiAQM4JwOHOOXIoBAEQAAEQAAEQAAEQAAEQAAEQyAcCcLjzIZeRRhAAARAAARAAARAAARAAARAAgZwTgMOdc+RQCAIgAAIgAAIgAAIgAAIgAAIgkA8E4HDnQy4jjSAAAiAAAiAAAiAAAiAAAiAAAjknAIc758ihEARAAARAAARAAARAAARAAARAIB8IwOHOh1xGGkEABEAABEAABEAABEAABEAABHJOAA53zpFDIQiAAAiAAAiAAAiAAAiAAAiAQD4QgMOdD7mMNIIACIAACIAACIAACIAACIAACOScABzunCOHQhAAARAAARAAARAAARAAARAAgXwgAIc7H3IZaQQBEAABEAABEAABEAABEAABEMg5gYwc7rJly9H1N7SjZd9/T1OnvpRzo6EQBEqSAMp/duiDa3a4SqWCfyopCY9WV11NBQWVvBvfemsuff7Zp94xdkAgFwQuu+wKOrh6dU/VJ598TO+9+4537N+RlGt/fOyDAAiEE0BdCueCs+EEMnK499tvf3rgwYfpM/XHYuSIYeGS1dny5ctT7dp1aN26dbR27ZrQeFxg69SpQ5s2baLVq4tC45TUSaltRxxxJP3444+0Zs0PxTJVqq9YSgI3u+jkvFy/YT1tVGktTpDqlMaT2CKRJYnDuqTlPym7JHJKMk5S5SJJriXBQ1p+krYtqedP0vwlPCTviKR5SeVJeAweMowqV65MWzZv1mInT3mO3po7R6oiJZ6EV8oNe+FBUs+CvTBpnkkllU9x9fzWf3WguofXpXK//S1VqFCBpr86jZ55ZpJns39HUq45/t5cN/3pwT4IlBQBaV0qKfugd+8ikBWHm19I11xzLTVoeCaVK1dOp3j58mU0ceJT9NWXX3gEWrW6ms45509Ufr/99LmioiJ65umJxF9n/aGgoIDatL2ejjvueH160J0DafHiRf4o3n7NmodRz169afPmLdSlcwfvvOuOxLYrW11FZ599Dh1wwAG0c+dO+uGH1fTkkxMyauGQ6OM0uLCwpVmqk9N5xhkNqWLFivTrr79SUdEqmqTy8osvPrepSLsu1SmNl6Yg5IREliSOEe3ykI0rjy46jW7b9oZ27alBg4b05IQnaNasmSnRBw+5m6pV+33KOXPAZbdb1876sEWLK6lR4ybmkrfdsmUz3fLPm7zjJMsFC3Xh6hkRsiNNp7k1Lo9MHNtWmpeu9TcuP5N8/nD6bPxvu60jnXDiSR6KrVu3Ej/Xpygnc+GCBd553rHxkL4j/ELjWEi4upYLGw+2jR1uDt26dtLbuJ+4cmbjFSc37loUMymLknoWxKWJr0nt98uJ4++PF7cvzSdJeTR6ovLIXHep56effgbd2P7mYjncmdRNYyu2IJBPBCTviHzigbTGE8iKw83dm5o2u0i1bK+lTz/9lA499FA6+uh6qgV4DfXp3ZO2b/+JLrigEbW88irasGEDffThv6lK1ap0vHKot2zZQn369vJaUY855g/Uuk1bqlq1mm4FP/DAA2nokLvo66+/Ck1Zx05dtGP++LjHaM6cN0Pj2E5KbLvoor/RpX+/TDnZP6g0fqK7FZ5wwonK8d6hHP2OyuHf1eJh08XXJfo4nisLvicqSHVe0bwFNWnSVPc++OCDeXRQxYOo4Zln0c8//0zDhw+lb/773ygVaeelOqXx0hSEnJDIksTxi3Z5yEaVR1edfv1R+3WPOIK6d+9JK1eupL59eqZFY+eA68+H//7Au1a2bFmdnytWrKBePbvr81wv2b5PPv5I10cTmfN8gnLkOSRZLox8F67mnrCtNJ3m3qg8MtdtW2leutbfuPxM8vlj0mfjzw738eoZN1e14JYtU4aOPOooql79ENV7aS31Vc/srerZzUHCQ/KOMHbxNo6FlKtrubDxYLtcHO6ocibhxbpcQxwzKYuSehbY0iq13y8nir8/Tty+NJ+k5ZF1xeURX3et50k43K51k+1EAIF8JCB5R+QjF6Q5nEBWHO4BAwdpJ7tvn160bNn3WnOP23vRUUcdTSNHDqPPlBPetVsPql//GBo+bKjXUnrTzbfQaaf9D41TzvLc3c4yx+P7Xpn6MhVUKlAt4n+OdLjZEbzuuhto0aKFNPiuO8NTLDgrsa1zl27aAWY9rI/D9de3087Lo488TO+887ZA064oEn0c04WFTblU5x133kUHH1xdfyhZsWK5Fnv1/15D5557nh6/P2XycymqKvzud94f75QL6kCqUxrPyC+uTld90odsXHl01WnSGrft2LEzHas+Wt1/3z300UcfpkUNcw4uvLAZXX5Fc5ox4zWa+NST+h4el3r++RfQsGFD6Msv9vRI8Qt0LRf+e6P2pVyj7jfnpenk+HF5ZOTZttK85HjSZxnrjMvPJJ8/Jn02/sbhbtvmGnMLmef66NEjaf7unkkSHpJ3hKfEwkLK1aVcsG4bD44TJpPPB0NcOZPwCsqTHMeVnzC796ZngS19UvuNnDj+Jo5tK80naXlkfXF5xNdd63kSDrdr3WQ7EUAgHwlI3hH5yAVpDieQFYebvyT/9NNP+o+/Udu8RUtq3PhCmjD+CZo9eyYNumuIHiPUqeNtJgqd/cdzqE2b67RzPXnys/p8uxvb0/z582ne++/Rta3bRDrcXPD7D7hDd7kePPhOp5ZXz4DdOxLbbu/ZW49P79ypg2p536jv/Ptll1OzZhd7aQzKjTqW6ON7pSyi9PjPS3SyIztq5D20bPly6lfY27u9Xr161E21pH766Xx1fbh3/vy/XkCXX96cNm78kQb07+dxMREkOjmuNB7HTUKniz7WKXnI2sqjq07WGxdOVF19eRzfl6qb//Dhd4dGbas+RnHgD0Im9C0cQDVr1qQ+qkV8pWrl5nD11f+gc887P/LDlmu5MLpsWwlXmwy+Lk2nLY8kujiONC9d6q8tP5N8/ph02viHOdzm48zYxx4hnjBMykPyjjB22VhIuUrLhdFr48Hxwhw/c7/Z2sqZtPwYeZKtjZmURUk9C2xplNrPcmz8bbrMdWk+ScujLY9Yr2s9T8Lhdqmbhg22IJCPBCTviHzkgjSHE8iKwx2m6rYOnej4409QXV13tXrzHxXuotq7Vw8vOndX7KDiRU34Eedwm65vb8yeRePHP+7JzGRHYht3s+ZutfPnf0JPPD6WjjjyKO2olCtXlrp16xLZyhtmj0Rf8L44FsG4YccSnfwwGX3PfXrSux7du3hiTlW9EG5WvRG4FfW+e0d7500LP58I6/Yv0cn3SuNx3CR0uuhjnZKHrK08uupkvXGhV+++dNhhtegx5fhwN3GeK4GHa8SFevXrU9euPWjhwgU0ZPAgL+r//uNa+stfzqWXXnqR6tatq7qhV1Td1FfQC89P0UMLXMuFJ9iyI+FqERF6OSqdtjwKFRZyMpO8tNVfW34m+fwxSbLxDzrctWrVVuNFb9LDfTqr+TLMZIqZ8GAbgu8IY5eNhYnHWxtXf9yocmHi2HhwPE4rh7gx3LZylikvrTjix4UZi4hiUVLPgohkRZ6Osp9vsPGPFBq4kEk+xZVHSR651vMkHO5AsvVhVN0Mi4tzIJAvBCTviHxhgXTaCeTE4ebuXG3VpGdLly6hgQP6aavMy+uhB++njp0603/+8x/dQpKJw80SZrvMAAAp7UlEQVQzo3LXRh43zS11PJbw5n/eSocccogal7rHoWfF7DyULVsmhcz27dtp27Zt3jmpbc0uupguvfQy3Zq/n5r4jWdjf/DB+9Ja1206pfo8A9VO3IvcHy9qX6qzsN9AqlWrlp7xdMbrr1O131dTE+K1pnr16msH7KWXXvBUVFe8//Snv+gZ6WfOeN07b3akOqXxWG4SOl30sU7bQ1ZSHl11st6ocMYZDVTvhz2TmXE8ntzuzTdmq0n8xkfdppb2u5EaqokNH1cfjOa8+YYX75prW+t85BOrVq2igw46SE8MyEMn7hp0h47nUi48wZYdG1e+3VaXwlSEpVOSR2Gyws5lkpdx9Vean9LnT5jNYeds/Nnh5knTVq9ercdwV65SRZezl158IWV5yEx4hL0j2EYpC5OeOK4mjtmGlQtzjbc2HhyH08ohyuGWlLNMeGmlET+uzFhMFIuSeha41vMo+yX8IzCmnc4kn6LKo0seudTzbDjcUXUzDRBOgECeEZC8I/IMCZIbQyDrDjcvZfEv9UeNaKcaVz1Iz2rL9piX14Tx46iLamX79tul9MILz2fUws3jnP7wh2PJP1Faz159dFfZ9jfu6kZrGAwfMSpl3VQ+P2vWDDWr8x7HRGJbReWE8EcEbrX/5pv/qqVhqlAFNVs5z9j7+uuvGXV6a9Mp0ZciUB1EvciD8aKOpTq510F7Nevp/vvvrybQ2kz7q1bvsmrmeZ7c7vYe3dK6jUfp4/NSndJ4cbrMNYksSRwjj7e2h6ykPLrq9OsP7nfv0VNPSsiz+7OTzR8heAx2tWrVdIv327u7+vrv45n1hw4dTr/88gt1UsMifv31F+9y8+Yt6XTlxL/77tvEY/S5C3nnzl1VfTpMOxbr16/Xk2clVS6MYhtXjmerS0aW2UalU5JHRoZtm0lextVfSX66PH9s9pvrNv6mhVuvM/2b3+ghNfwx5kvVm4LnDTAfLV15RL0j2C4JC2M/b+O4+uNFlQt/HBsPjstp5RDlcEvKmSsvrTDmx5VZHIuSeha41PM4+yX8Y1CmXMokn6LKozSPXOt50g53XN1MgYMDEMhDApJ3RB5iQZIjCGTV4eY/6B06dtKtUo8+OkaPwzZ2mJcXdyk/9NAatH79OjXr7dEZOdxjHhmrHPnlyqHf1frGOngcEo9NDTrcTZs20w6EsYO3ixct0l3DzTmJbbz0xqmnnkaTJj1Fs2bOIH4xcvdmdvyH3T2EvvrqSyOObDol+jxhu3eiXuTBeFHHLjrr1DmcTj7lFKpUqTJVVLNccyvX669N12mPkh92XqpTGi9MR/CcRJYkjl+u7SErKY+uOv36g/v3P/Cwcpz/j3g+AR6mwYHHtvMSNu+qyfse8Y3ZNvc2bnIh8Z/puXPfpHFjHzOnI7eXqJ4cF1/8t5TlxpIqF0apjSvHs9UlI8tso9IpySMjw7bNJC/j6q8kP12ePzb7zXUbf+Nwm0nTePmg629oR/wn3z+G24VH3DuC7ZKwMPbzNo6rP15UufDHsfHguJxWDlEOt6ScufDSyiw/rswkLPwqc/EscKnncfZL+PvTFrefST5FlUdpHrnW8yQdblvdjGOFayCQDwQk74h84IA0yghkzeHm9X47de6ix/c9pdam5onS/OGuwXfrtav9Y4N5hnKeqfzVaa/Qs88+7Y+u96NeXvxS5XGrwcDLjwUd7mCcsGObbVOmTKYRI0fpJcEG9C/0RPASH7169dVd4/kPqDTY9LmwyKbOKlWqUmG//tqp4676pkUraZ2Z8IiyQSJLEscv3/aQlZRHV51+/f59/tAzYsRo3cvijoH9vUs8vraw3wD64vPPQidR69O3n26hvGNgP3XvN959UTuNGjWhFi2v1PWS66c/FLdcGFk2riaeyzYqnZI8kurJJC+jnmWS/Bw1amSizx+TThv/oMPN95108il066230XvvvkNjxjykRUl52N4REhbBCQKjuJo0mm1UuTDXeWvjwXEkDrft3STlxfpsIRNmEhZ+vbl4Fvj12fbj7N8b67k0j/iDluv/jKQcblvdtOUJroNAPhCQvCPygQPSKCOQFYe7oKBAtTB3pRo1atDk556ladOmplnDs29yd6VBdw5U47cX6+u8pNeZZ52t/7jxH7hgiPoz1bJlKyqnujn7w8mnnEoVKhyQkcNts+2DefNo1Oh7aceOX1XLRmfP8TTrdL6rbH9k959Pv01R+zZ9LiyidATPZ6LzhnbtqUGDhjRx4pM0I9BtnuVzvjdseJb6ELGaPlRrqweDVKc0XlI6XfSxTttDVlIeXXXy5GVN1BJezPaZpyeloOU//ZUqVdJd/Nes+UFfM6sChH28OvponmX+dlq6ZAkNGFCYIosPrmx1FR115NHEvVKWL1+mr99yy79UL4dT6aGHHkjpqcIXbeVCCxD82LgKRKREiUunJI/8wuL4u+Yly416lvE1W37yB78knz+sk4ONf5jD3UI9exs1akyzZ8301miX8JC8I9gmG4vgx8g4riyPQ1y52BVj16+NB8eyOdyScibh5bcrriwam6TPAxuLbDwLuBfYeef/VX9wHzf2UT33ij99Lvs2+yX8jT4bV9d8YrlR5VFSrtnhdq3nSTjc0rppuGELAvlKQPKOyFc2SHc6gaw43NwNih/8PIkYz5bsD4sXL9ItwGbNz7Vr1hCPPa1UuTKdoMYL//TTNup5e3fvJdykSVM9+RnLqKUmR+MJvDj+ls2b1eRca+nFF5/3i/f2o8ZwexFidiS2GQdkhVpKacHXX+ku5fxHgsc6P/DAffRRiMMZpVKij+/NlEWYXqlOcy+nrYNa55kdsMK+e5YIM9d521ot6fZHtbTbzp07KazlVKpTGi8pnS76WGcmD9lgeXTVaZxa1s/L3i1csIB3dWjR4kpq1LiJnpWcx9dyXaqv1rj/WU0GOHz40LQWbPNh65mnJ9L06a8aMd7WLFezcuVK+ly1kB988MF07LHH0batW6lP317ebNR8g6RceIItO5lwjRNpS2fw3mAe+a/H8ZfmpbT+SvIzyeePSaeNPzvcPJxkzpw3qYwaw82z4teqXVtPnDZcrdm+cOFCLUrCQ/KOYGESFlKuJp3ScmHjwfJsDrfR6d8Gy5mEl//+uLLI8STMjDwbi2w8C8xSY0uWfKOWjyw0pmS0tdkfJjTI38SxcZXmk6Q8SvPItZ4n4XBL66bhhi0I5CsByTsiX9kg3ekEsuJw8xIS7DyHhbfffoseUy1nHHgN13PO+bNej3vHjh16RmReYotnQzbBTHpijv3bpUuXUv9+ffynvH3+Gs1jkG5qnzppmhfBsmOzjSta6zZt9aRpPGkLO5n8geHll1+kueoPqWuw6WN5mbKIskWi09xrvu7fe88o/cHDnPdv/3bJpWqc7yV61vb+/ftSkZrhOhikOqXxktIp1cfpyeQhG1YeXXSamWq3bt1CfXr3VHMerE9Byy1RZ5zeQH/44brE7Hl+AXaYg2H0PfdTmTJlqItayilqWMBll1+h5ij4H+1s/0Y5V6tXF9HTkyam5b2kXAT1Rx1nwjVKFp+XpNN/f1gemes2/pK8dKm/tvxM+vnD6bTx53XeTzrpZINEDy0pKiqiaa+8TPPmve+d5x0bD+k7gmXZWLhwZXnScmHjwbIycbjDypmNF+sywVYWOZ6NmZElYZH0s6B3n0I6/PC6xEPNZs5MX83C2CbZSuwPygnjz3EkXCX5JC2PkjxyredJONwudTPIFscgkE8EJO+IfOKBtMYTyIrDHa8y9Sp3m+JW6w0b1qc5Eakxc38ktY3Hy/Ks3WvXrimWkVJ9xVISuDlpnQdXr65mLt8Uuw65VKc0XlI6pfqSfMhKdXK2SdLJrY6bN29KrC7xhIY8kzk73NkOSXLNhq02/i55KbVPkp9JPX+S5p80DwkLKVdJPAkP0zX4u+++1SKnvTKVPv74I4n4tDguvGxl0QhPklkSzwL+OD1y1L26t0zXrp28SR6NvSW9lXB1ySdJeqR5FFfPW7duSzXUJLHcw47zafqr0/RSnmH6JeU67D6cAwEQSCWAupTKA0fxBDJyuMuXL0/8lXqRmt17/BPj4jXgKgiUMgIo/9nJUHDNDlepVPBPJSXh0VENs+EhHCZMnapa+99/zxxiGyDQsOGZes3v2bNn0YTxjweu4jBTAtepFVJqq+EdJrw1d07a8qTmmqRcm7jYggAIRBNAXYpmgyvpBDJyuNPF4AwIgAAIgAAIgAAIRBNgh5snX3z++cm0Us1/ggACIAACIAAC+UAADnc+5DLSCAIgAAIgAAIgAAIgAAIgAAIgkHMCcLhzjhwKQQAEQAAEQAAEQAAEQAAEQAAE8oEAHO58yGWkEQRAAARAAARAAARAAARAAARAIOcE4HDnHDkUggAIgAAIgAAIgAAIgAAIgAAI5AMBONz5kMtIIwiAAAiAAAiAAAiAAAiAAAiAQM4JwOHOOXIoBAEQAAEQAAEQAAEQAAEQAAEQyAcCcLjzIZeRRhAAARAAARAAARAAARAAARAAgZwTgMOdc+RQCAIgAAIgAAIgAAIgAAIgAAIgkA8E4HDnQy4jjSAAAiAAAiAAAiAAAiAAAiAAAjknAIc758ihEARAAARAAARAAARAAARAAARAIB8IwOHOh1xGGkEABEAABEAABEAABEAABEAABHJOAA53zpFDIQiAAAiAAAiAAAiAAAiAAAiAQD4QgMOdD7mMNIIACIAACIAACIAACIAACIAACOScQEYOd9my5ej6G9rRsu+/p6lTX8q50VAIAiVJAOU/O/TBNTtcpVLBP5WUhEerq66mgoJK3o1vvTWXPv/sU+8YOyCQCwKXXXYFHVy9uqfqk08+pvfefcc79u9IyrU/PvZBAATCCaAuhXPB2XACGTnc++23Pz3w4MP0mfpjMXLEsHDJ6mz58uWpdu06tG7dOlq7dk1oPC6wderUoU2bNtHq1UWhcUrqpNS2I444kn788Udas+aHYpkq1VcsJYGbXXRyXq7fsJ42qrQWJ0h1SuNJbJHIksRhXdLyn5RdEjmlIU6SXEuKh7SOJPXMSDKdSfOX1CfJOyLJNLrIkvAYPGQYVa5cmbZs3qxFT57yHL01d46LGi+uhJcXGTslSmBvq+e3/qsD1T28LpX77W+pQoUKNP3VafTMM5NCGUnKdeiNOAkCIJBCAHUpBQcOLASy4nDzH4drrrmWGjQ8k8qVK6dNWL58GU2c+BR99eUXnkmtWl1N55zzJyq/3376XFFRET3z9ETir7P+UFBQQG3aXk/HHXe8Pj3ozoG0ePEifxRvv2bNw6hnr960efMW6tK5g3fedUdi25WtrqKzzz6HDjjgANq5cyf98MNqevLJCRm1cEj0cRpcWNjSLNXJ6TzjjIZUsWJF+vXXX6moaBVNUnn5xRef21SkXZfqlMZLUxByQiJLEseIdnnIxpVHF51Gd9h28JC7qVq134dd0mWyW9fOadduaNeeGjRoSE9OeIJmzZqZdt1WzjLRmaYkcMKFa+DWlEOJba3bXEd//OM5KffxAX8463DbLWnnbSekdcT1mRFVfiRptNkcvG7jf9ttHemEE0/ybtu6dSvxc32KcjIXLljgnecdW9mWviP8QuPKrK28shxXZjYeu2Tu+uDcrWsnv6mh+1F5yZFtvEIFRpx0TWccV1ZhY+uqL8Jsp9NSnftCPY8rF9J0Gninn34G3dj+5mI53EkzM7ZhCwKljYDkHVHa0oz0ZE4gKw43d29q2uwi1bK9lj799FM69NBD6eij66kW4DXUp3dP2r79J7rggkbU8sqraMOGDfTRh/+mKlWr0vHKod6yZQv16dvLa0U95pg/UOs2balq1Wq6FfzAAw+koUPuoq+//io01R07ddGO+ePjHqM5c94MjWM7KbHtoov+Rpf+/TLl0Pyg0viJ7lZ4wgknKsd7h3L0OyqHf1eLh00XX5fo43iuLPieqCDVeUXzFtSkSVPd++CDD+bRQRUPooZnnkU///wzDR8+lL7573+jVKSdl+qUxktTEHJCIksSxy/a5SEbVR5ddfr1B/e5lY3rxYf//sC7VLZsWZ1PK1asoF49u3vneafuEUdQ9+49aeXKldS3T8+Ua3wgKWeuOtOUhJxw4Rpyu3dKYttZZ/+R6qlnkglVq1Wj+vWPoVWrVtHtPbqa06KttI5k8syIKj+SNIqM90Wy8WeH+3j1jJurWnDLlilDRx51FFWvfojqvbSW+qpn9lb17OYgKduSd4TPtNgyKymvLMuVmY2HkclbicMdlZcSXqxDGlzSubc+C2xplaZxX6jnUeWCGUjTaXgl4XAnyczYhS0IlEYCkndEaUw30pQZgaw43AMGDtJOdt8+vWjZsu+1ZT1u70VHHXU0jRw5jD5TTnjXbj30H9zhw4Z6LaU33XwLnXba/9A45SzP3e0sczy+75WpL1NBpQLVIv7nSIebHcHrrruBFi1aSIPvujMzIuouiW2du3TTjgnrYX0crr++nXZyHn3kYXrnnbf1OcmPRB/LcWFh0yvVecedd9HBB1fXH0pWrFiuxV79v9fQueeep8fvT5n8XIqqCr/7nffHO+WCOpDqlMYz8our01Wf9CEbVx5ddZq0hm35TxkH/5/+Cy9sRpdf0ZxmzHiNJj71ZMptHTt2pmPVx63777uHPvrow5RrfMC22eqcq840JSEnpFxDbk055WpbjRo1ieszd2++Z/RIWrDg6xR5tgNpHXF9ZsSVH9c02tLA1238jcPdts01njjzXB+tuM3f3TNJUrYl7whPidqJK7OS8sqyXJnZeETJ5PPBEJeXEl5BeXHHLumM48o6JGxd9MXZ7XItE517Yz2PKxfMwzWdSTjc/nwoLjO/LOyDQGkjIHlHlLY0Iz2ZE8iKw81fbH/66Sf9h96Y1rxFS2rc+EKaMP4Jmj17Jg26a4j+g9up420mCp2tuni2UV092bmePPlZfb7dje1p/vz5NO/99+ja1m0iHW4u+P0H3KG7vw0efKdTy6tnwO4diW239+ytx6d37tRBtbxv1Hf+/bLLqVmzi700BuVGHUv08b1SFlF6/OclOtmRHTXyHlq2fDn1K+zt3V6vXj3qplpIP/10vro+3Dt//l8voMsvb04bN/5IA/r387iYCBKdHFcaj+MmodNFH+uUPGRt5dFVJ+uNCm3VRyYO/KHHhL6FA6hmzZrUR7Vgr1St3CacqLoE83i/L9VwgOHD7zanU7aScuaiM0V4zIGEa8zt3iUX2w48sKIqyz30R6WxYx+ldx0+lLFClzri8sywlR+XNHpgLDs2/mEON08adv75F9DYxx4hnjCMg6RsS94RxlxbmZWUV5blyszGg2WGOUR83h9seSnh5Zdn25em08aV9UjYSvXZ7Ha57qpzb6zntnLBPFzTmaTDXVxmLvmJuCCwLxKQvCP2xXTB5uwQyIrDHWbqbR060fHHn6C6sO5q9eY/KtwtuXevHl507q7YQcWLmvAjzuHm7uncNe+N2bNo/PjHPZmZ7Ehs427W3JV0/vxP6InHx9IRRx5FV1/9DzVmvSx169YlspU3zB6JvuB9cSyCccOOJTr5YTL6nvv0pHc9unfxxJyqeiHcrHojcOvoffeO9s6bFn4+EdbtX6KT75XG47hJ6HTRxzolD1lbeXTVyXqloV79+tS1aw9auHABDRk8KOW2Xr370mGH1aLHlIPE3c55TgUe1hEVpOUsTmeU7OB5CdfgPZLjONv+ecu/6JRTTtUfj+69Z7Sao+AXiUgvjksdcXlm2MqPZ8Dunbg0BuNGHdv4Bx3uWrVqq/GiN+nhPp3VfBlmMsVMy3bwHWHsdCmz0vLKsm3MbDxYBqeVg793iT7h+7HlZaa8fCpid6PS6cKVFUjZRumLNbKYF20698Z6bisXYUhs6UzS4S4uszD7cQ4EShMByTuiNKUXaSkegZw43Nxtqq2a9Gzp0iU0cEA/bbH5k/HQg/dTx06d6T//+Y9uIcnE4eYZQ7lrI4+b5hY9Hkt48z9vpUMOOUSNX93j0LNi/mpbtmyZFGrbt2+nbdu2eeektjW76GK69NLLdGv+fvvtpx3TBx+8L6113aZTqs8zUO1I//z47/HvS3UW9htItWrV0jOeznj9dar2+2pqQrzWVK9efXrh+Sn00ksveGKrK95/+tNf9Iz0M2e87p03O1Kd0ngsNwmdLvpYp+0hKymPrjpZrzRcf8ON1FBNWPi4+hA05803vNvOOKOBarG6yTvmHZ4E7803ZqvJ/sannDcH0nIWpdPIkWxtXFmGrS6F6YmzrXfvQqpz+OH0m9/8Rtffaa9M1T1wwuREnXOpI5JnhqT8BG2JS2MwbtSxjT873Dxp2urVq/UY7spVqujy89KLL6QsD5lJ2Q57R7CdrmVWWl5Zto2ZjQfL4LRyiHK4JXmZCS+tVPgTlk5XrqxKyjZMn9BUL5prPbfp3NvquaRceDB8O7Z0JulwJ8HMZzp2QaDUEZC8I0pdopGgjAlk3eHm5W/+pf6oEe1U46oH6Vlt2VrzJ2PC+HHURbXGffvtUnrhheczauHmsZF/+MOx5J8orWevPrpLbfsbd3W3NYSGjxilJzgzx7ydNWuGmq15j8Mhsa3iQQfpjwjcav/NN/9VS8NUoQpqtnKesff111/ziyebTom+FIHqQPrnJ3ifOZbq5F4H7dWsp/vvv7+a0G4z7a9avcuqmed5crvbe3RL6zZu5IdtpTql8cJ0BM9JZEni+OXaHrKS8uiq068/bp9nzB86dDj98ssv1EkNd/C32Hbv0VNPXsirALCTzR8ruDtwNTVhGLd4v727S7BfvqScxen0y7Lt27jy/ba6FNQhsY3r8pnqoyBPasaOd3fVm8O01gblhR1L64j0mSEpP347JGn0x4/at/E3Ldx6nWnFiZ2GgxS7L1UvCZ4PwHy0dC3bUe8IttO1zErKK8uVMLPxYDmcVg5RDrckL115aYXCn6h0unJldRK2UfqE5nrRXOq5VOfeVM8l5cKDsXtHks4kHW5WW1xmwTTgGARKEwHJO6I0pRdpKR6BrDrcvNxFh46ddKvUo4+O0eOwjbnmTwZ3KT/00Bq0fv06Nevt0Rk53GMeGasc+eXKob/DiFet5l1CHe6mTZvpcZdeRLWzeNEi3TXcnJPYxktvnHrqaTRp0lM0a+YM/WLi7s3s+A+7ewh99dWXRhzZdEr0ecJ270j+/ATv8R+76KxT53A6+ZRTqFKlylRRzYbNrVyvvzZdp90v07Yv1SmNZ9PH1yWyJHH8umwPWUl5dNXp1x+337jJhdS8eUs1k/SbNG7sYylR73/gYeWI/x/xvAM8nIMDj4HnJYl47PIjvjHg5kZJOYvTaeRItjauLMNWl4J6XGzjXjFcp3mYRNhkckHZ/mNJHZE+MyTlx6/bJY3++4L7Nv7G4TaTpvHSXtff0I74T75/DLdL2Y57R7B9rmVWUl5ZroSZjQfL4bRyiHK4JXnpwksrc/iJSqcrV1YpYRulz8FkHdWlnrvq3BvquaRcBJlJ0pm0w21sKA4zIwNbEChtBCTviNKWZqQncwJZc7h5XeBOnbvo8X1PqbWpeaI0f7hr8N167Wr/2GCeoZxnKn912iv07LNP+6Pr/agXPr+8eDxqMPDyY8EW7mCcsGObbVOmTKYRI0fpJcEG9C/0RPASK7169dVd4/kPqDTY9LmwyKbOKlWqUmG//tpZ4676pkUraZ2Z8IiyQSJLEscv3/aQlZRHV51+/XH7ffr20y2Pdwzsp3pefONF5ZaKESNG694Ydwzs753ncbiF/QbQF59/FjqJWlSd8wSonSid/jiSfRtXiYxgnCjbeNnCjRs30ltqiSsTLrtcLWfY9KLI1n4TL24bVUfYOZU+MyTlx29DVBr9cST7Nv5Bh5tlnnTyKXTrrbfRe+++Q2PGPKTVSMu27R2RSZmVlFc2UsLMxoPlSBxu27tJyov1uYawdGbClfVK2Ibpc7XZNX6czr21nrvWcWYSl07DLAmHO1vMjI3YgkBpISB5R5SWtCIdxSeQFYe7oKBAtTB3pRo1atDk556ladOmplnKM/ZyV8JBdw5U47cX6+u8pNeZZ52t/7jxH7hgiHrht2zZSk1WVi4l+slqIqQKFQ7IyOG22fbBvHk0avS9tGPHr6plo7PneJr1VN9Vtj+y+89nilERBzZ9LiwiVKSdzkTnDe3aU4MGDWnixCdpRqDbPCvgfG/Y8Cz1IWI1fajWVg8GqU5pvKR0uuhjnbaHrKQ8uuqsW7cuNVFLfTHbZ56eFESrj3mt+27db6elS5bQgAGFaXHYOahUqZIeCrBmzQ/6ulk9wPUjlxFu02niSbY2rhIZ/jhxtrGTw92hu3bp5A2L4Dw5Uk1+2Kd3T285QyNPwp/jRtURdrilzwxJ+TF2xaXRxJFubfzDHO4W6tnbqFFjmj1rJk2Y8IRWJSnbkncEC3Mts1HvCD8DKTMbD2Mfb6NauCV5KeHlt19aFuPS6cqV9dvYxunz28+9wM47/6/6g/s4tTLAZjX3SqbBptOlnku5sq3FreeScuFnYkuniZuEw+3CzOjFFgTykYDkHZGPXJDmcAJZcbi56yQ/+NetW6dnQfarXrx4kW4BNusEr12zhnhMaaXKlemEE05UE5Bto563d/dewk2aNNWTn7GMWmrMIE/gxfG3qJf02rVr6cUXn/eL9/ajxnB7EWJ2JLbdomY3Zqd+hVpyacHXX+ku5fxHgsc6P/DAffRRiMMZpVKij+/NlEWYXqlOcy+nrYNav3n58mVU2HfPEmHmOm9bqyXd/qiWdtu5cycFW1j5ulSnNF5SOl30sc5MHrLB8uiq0/zBY/287N3CBQt4NyWYD1bPPD2Rpk9/NeUaH7RocSU1atxEz0rO43C5ztWvfwz9rCYNHD58qNci7lLObDrTjIg5kQnXGHEUZ9s117YmnuCPh6J8rYZ/1DzsMD0RIJdvdriDQcLfVkeK88wIlh9jX1waTRzp1safHW4eTjJnzptURo3h5tnua9WurSdOGz5siJoVf6FWJSnbkncEC5OUWZfyyjKlzGw8WJathZvjBEMwLyW8/DIkZZHjx6VTwpVluLCN08eyTODVPM4973xasuQbtXxkoTmd0dam06WeS7lmq54Hy4UfiC2dJm4SDrcLM6MXWxDIRwKSd0Q+ckGawwlkxeHm5V3YeQ4Lb7/9Fj2mxnNz4DVczznnz3o97h07dtCqVav0EluLFu3648ZxzOQivB8MS5cupf79+gRP62NuNeDxgTe1T500LTRyyEmbbVzRWrdpq5c648lM2MnkDwwvv/wizVV/SF2DTR/Ly5RFlC0SneZe0wpz7z2j9AcPc96//dsll9LFF1+iZ23v378vFan8DAapTmm8pHRK9XF6MnnIhpVHF51mduutW7doh3D9+vVBtGoJt/upTJky1EUt0RTV3f/KVlfRGac30B+IuM5xHvE8BJ+rLuUmuJQziU4j17bNhGucTJttPOPvSSedrCfQ4knmeBWFMQ8/pHsRBOVK+NvqSHGeGWHlh220pTGYjrhjG39ev515mcDzABQVFdG0V16mefPeN6f11la2pe8IFmYrsy7lleVJmdl4sKxMHO6wvLTxYl0mSMoix7Wl08aVZbiwteljeRx69ymkww+vSzzUbObM9NUsdsWS/Up0Suu5lGu26nlYuTAUJOnkuEk43CxHyozjIoBAvhKQvCPylQ3SnU4gKw53uproM9zVklutN2xYryZOS3ciou/M/hWpbTwOlmftXrt2TbGMkuorlpLAzUnrPLh6ddVFd1PsOuRSndJ4SemU6kvyISvVydkmSWcgeyMPuXVy8+ZNe1WdS5JrZMJDLvCf/6LVRbFllm9Lkn9Sz4yQ5GR8Kmn+LmVbYnSuy6yEh+ma/d133+ok8LJyH3/8kSQ5aXFceCVZFnPJlT9Ojxx1L23bupW6du3kTd6YBiMLJyT1PEmunIRc1fPWrdtSjZo1dQ87noR2+qvT9FKeYRgl5drcJ2Fm4mILAvlGwKUu5RsbpDedQEYOd/ny5fVX6kVqdu/xT4xLl4ozIFCKCaD8ZydzwTU7XKVSwT+VlIRHRzXMhodmmDB1qmrtf/89c4htgEDDhmfq1tPZs2fRhPGPB67iMFMC16kVUmqr4R0m8GSQweVJzTVJuTZxsQUBEIgmgLoUzQZX0glk5HCni8EZEAABEAABEAABEIgmwA43z33y/POTaaWa/wQBBEAABEAABPKBABzufMhlpBEEQAAEQAAEQAAEQAAEQAAEQCDnBOBw5xw5FIIACIAACIAACIAACIAACIAACOQDATjc+ZDLSCMIgAAIgAAIgAAIgAAIgAAIgEDOCcDhzjlyKAQBEAABEAABEAABEAABEAABEMgHAnC48yGXkUYQAAEQAAEQAAEQAAEQAAEQAIGcE4DDnXPkUAgCIAACIAACIAACIAACIAACIJAPBOBw50MuI40gAAIgAAIgAAIgAAIgAAIgAAI5JwCHO+fIoRAEQAAEQAAEQAAEQAAEQAAEQCAfCMDhzodcRhpBAARAAARAAARAAARAAARAAARyTgAOd86RQyEIgAAIgAAIgAAIgAAIgAAIgEA+EIDDnQ+5jDSCAAiAAAiAAAiAAAiAAAiAAAjknAAc7pwjh0IQAAEQAAEQAAEQAAEQAAEQAIF8IACHOx9yGWkEARAAARAAARAAARAAARAAARDIOQE43DlHDoUgAAIgAAIgAAIgAAIgAAIgAAL5QAAOdz7kMtIIAiAAAiAAAiAAAiAAAiAAAiCQcwJwuHOOHApBAARAAARAAARAAARAAARAAATygQAc7nzIZaQRBEAABEAABEAABEAABEAABEAg5wQydriPPe442rRxE3333bc5NxoKQaCkCaD8ZycHwDU7XKVSwT+VFHik8sBR6SCAcl068hGpKHkCqEslnwf7igUZO9yPjX2C5s//hEaPGrGvpBV2gkBiBFD+E0OZIghcU3Dk/AD8U5GDRyoPHJUOAijXpSMfkYqSJ4C6VPJ5sK9YAId7X8kp2LlXEcBDNjvZAa7Z4SqVCv6ppMAjlQeOSgcBlOvSkY9IRckTQF0q+TzYVyxwcrgLCgq8dA0fMZo+++xTGjf2UX3ul19+oc2bN3vXDzywIpUtW8Y75p3t27fTtm3bvHOSOBxZEk8SRypLGi9JnUnKgv17yliSLFD+s1N/k+aaZJ6XhKxc6wT/1HIt5ZHkMztJWbkuP1J9ScdLklmSsqTpTFKnRJa0XO+t9kvtksaTMCsJWSWhM0kW+WC/S11iHgggwATEDnfVqtVoyNBhkdQWLPiahgwe5F0fPmIUFRRU8o55Z9asGfTkhPHeOUkcjiyJJ4kjlSWNl6TOJGXB/j1lLCkWKP/Zqb/Z4JpUnrMcDpK6KYkjlSWNl4RO8E8t1y48kuDPec0hSVlSeUnqTFIW7Mf7i8tA8P+itFxI4yVZZpOUBfuTL//MlEMS+eTyjtilFb8gsIuA2OGu8LvfUdOmzTxuTZo0peXLl+lWbj65evVqmvPmG951jsv3+MPiRYv0uG9zThKH40riSeJIZUnjJakzSVmw/xNG4AUJW1sclH+ibNTfbHDljLflpzSONJ5En1SWNF4SOsE/tVy78EiCP+c1hyRlSeUlqTNJWbAf7y8uA8H3jbRcSOMlWWaTlAX7ky//zJRDEvnk8o7YpRW/ILCLgNjhDgLDuIUgERznEwGU/+zkNrhmh6tUKvinkgKPVB44Kh0EUK5LRz4iFSVPAHWp5PNgX7EADve+klOwc68igIdsdrIDXLPDVSoV/FNJgUcqDxyVDgIo16UjH5GKkieAulTyebCvWJCxw/2Pf1xL3y/7nt6YPWtfSSvsBIHECKD8J4YyRRC4puDI+QH4pyIHj1QeOCodBFCuS0c+IhUlTwB1qeTzYF+xIGOHe19JIOwEARAAARAAARAAARAAARAAARAAgZIgAIe7JKhDJwiAAAiAAAiAAAiAAAiAAAiAQKknAIe71GcxEggCIAACIAACIAACIAACIAACIFASBOBwlwR16AQBEAABEAABEAABEAABEAABECj1BOBwl/osRgJBAARAAARAAARAAARAAARAAARKggAc7pKgDp0gAAIgAAIgAAIgAAIgAAIgAAKlngAc7lKfxUggCIAACIAACIAACIAACIAACIBASRCAw10S1KETBEAABEAABEAABEAABEAABECg1BOAw13qsxgJBAEQAAEQAAEQAAEQAAEQAAEQKAkCcLhLgjp0ggAIgAAIgAAIgAAIgAAIgAAIlHoCcLhLfRYjgSAAAiAAAiAAAiAAAiAAAiAAAiVB4P8BbRREoIwUzi0AAAAASUVORK5CYII=;" vertex="1" parent="1">
          <mxGeometry x="968" y="276" width="294.13" height="142.9" as="geometry" />
        </mxCell>
        <mxCell id="TyTauK2ivze7dspQ0SNf-83" value="" style="rounded=0;whiteSpace=wrap;html=1;fillColor=none;" vertex="1" parent="1">
          <mxGeometry x="-132" y="146" width="1510" height="880" as="geometry" />
        </mxCell>
      </root>
    </mxGraphModel>
  </diagram>
</mxfile>
